<?xml version="1.0" encoding="utf-8"?>
<!-- Generator: Adobe Illustrator 16.0.0, SVG Export Plug-In . SVG Version: 6.00 Build 0)  -->
<!DOCTYPE svg PUBLIC "-//W3C//DTD SVG 1.1//EN" "http://www.w3.org/Graphics/SVG/1.1/DTD/svg11.dtd">
<svg version="1.1" id="Layer_1" xmlns="http://www.w3.org/2000/svg" xmlns:xlink="http://www.w3.org/1999/xlink" x="0px" y="0px"
	 width="1440px" height="826px" viewBox="0 0 1440 826" enable-background="new 0 0 1440 826" xml:space="preserve">
<desc>JavaScript chart by amCharts 3.20.17</desc>
<desc>
	This map was created using Pixel Map Generator by amCharts and is licensed under the Creative Commons Attribution 4.0 International License. You may use this map the way you see fit as long as proper attribution to the name of amCharts is given in the form of link to http://pixelmap.amcharts.com/ To view a copy of this license, visit http://creativecommons.org/licenses/by/4.0/ If you would like to use this map without any attribution, you can acquire a commercial license for the JavaScript Maps - a tool that was used to produce this map. To do so, visit amCharts Online Store: http://www.amcharts.com/online-store/
	</desc>
<g>
	<g transform="translate(583.597308742828,146.2200884822916) scale(0.81225)">
		<g transform="translate(0,0) scale(2.150216475664089)">
			<path fill="#B5B5B5" stroke="#FFFFFF" stroke-width="0.5726" d="M-86.15,170.23l-1.02,0.01l-1.41-0.82l0.28-0.65l0.98-0.43
				l1.43,0.62L-86.15,170.23z M-72.27,163.14l3.66,1.02l2.58,2.11l0.41,1.49l-1.33,2.22l-0.14,1.62l-1.39,0.63l-0.4,0.95l-1.36,0.31
				l-0.21-1.21l-1.42-1.64l-0.71,0.51l0.28,0.35l-0.07,0.64l-0.34,0.22l-2.51,0.8l-0.46-0.2L-76.1,170l0.5-1.389l0.08-1.94
				l0.31-0.36l0.25-2.44l0.24-0.31l1.52-0.04L-72.27,163.14z M-97.55,152.07l1.08,2.3l0.27,3.15l0.74,2.37l1.06,1.75l1.03,0.76
				l3.35,0.62l2.4,0.94l-1.49,1.34l-1.24,3.46l0.11,0.37l0.65,0.39l1.26,0.41l-0.02,1.03l-0.35,0.37l-2.9,0.06l-1.06-1.76
				l-2.36-1.07l-4.48-1.35l-0.76-1.31l-0.24-1.13l0.57-1.76l-0.05-0.75l-1.14-0.61l-0.49-0.62l-0.26-2.97l-0.77-0.75l-3.9-0.44
				l-2.01,0.37l-2.99-0.74l-0.21-0.72l0.31-1.11l2.11-0.95l1.66-1.3l-0.15-0.79l-0.76-0.46l0.15-0.77l1.62-1.29l1.78-0.56l0.41,0.1
				l0.61,1.48l0.11,1.41l0.77,0.63l1.46,0.2l-1.43-3.56l2.61-0.82l0.35,0.07l1.92,1.51l-0.23,0.7l0.11,0.48L-97.55,152.07z"/>
			<path fill="#B5B5B5" stroke="#FFFFFF" stroke-width="0.5726" d="M-156.61,166.48l0.17,0.5l0.7,0.45l0.11,0.6l1.21,0.81l0.56,1.54
				l0.91,0.49l0.98-0.34l0.82,0.19l0.52,0.49l0.23,0.62l-0.11,1.03l0.19,0.13l-0.18,0.42l1.39,1.28l0.73,0.3l2.18-0.97l0.46,0.77
				l0.7,0.12l0.47-0.21l0.09,0.73l0.7-0.27l0.66,0.08l0.17,0.38l-0.28,1.78l-0.59,0.8l-0.77,0.58l-0.73-1.01l-0.57-0.22l-0.09,1.22
				l-0.97,0.9l-0.12,0.96l-1.74,0.85l0.57,0.17l0.46,0.68l2,1.66l0.64,0.17l0.52-0.24l0.72,0.66l1.86-0.06l0.57,0.24l0.771,1.72
				l-0.03,1.37l1.6,0.26l1.01,0.85l1.43,0.1l0.73,0.77l0.84-0.3l0.47,0.15l0.24,1.03l-0.73,0.89l0.89,0.869l-0.61,0.53l0.66,0.03
				l0.52,0.42l0.38,1.09l-0.35,0.42l1.16,0.18l0.22,0.79l0,0l-0.07,0.04l0,0l-0.78,0.05l-0.12,0.43l-1.58,0.9l-0.16,0.44l0,0
				l-0.67-0.08l-0.83-0.67l-1.23-0.11l0.14-0.34l-0.21-0.33l-0.42-0.32l-0.51,0.23l-0.33-0.26l0.17-0.44l-1.29-1.46l-2.6-1.75
				l-2.21-0.82l-0.43-0.9l-0.93-0.89l-7.35-5.65l-0.1-1.07l0.4-0.33l-0.7-1.45l-0.19-1.36l-1.84-1.52l-2.72-1.44l0.06-0.27
				l-4.64-3.4l-1.21-1.58l-0.55-1.47l-1.26-1.68l-0.97-2.45l-2.69-1.52l-1.64-2.02l0,0l3.3-2.15l0.68-0.82l0,0l0.01-0.01l0,0
				l3.94,2.49l-0.16,1.77l0.24-0.41l0.62,0.11l0.89-0.35l1.57,1.9l1.17,0.92l0.58,0.17l1.14-0.14l1.09,0.54l0,0L-156.61,166.48z"/>
			<path fill="#81C83D" stroke="#FFFFFF" stroke-width="0.5726" d="M-89.97,214.73l-0.511,0.21l-0.07,0.94l0.5,0.28l-0.04,0.56
				l0.33,0.07l0.45,1.25l0,0l-0.04,0.12l0,0l-0.17,0.52l-2.46,0.01l-0.24-0.3l-0.85-0.23l0.16,0.4l-0.45,0.03l-0.16-0.54
				l-0.27-0.089l-0.59,0.54l0.32,1.17l-0.75,0.36l-0.13,0.8l0.43,1.04l-0.14,1.45l1.19,1.22l-1.17,0.81l-0.089,0.59l-0.58,0.58
				l0.01,1.16l0,0l-1.27,0.2l-0.06-0.24l-0.56-0.02l-0.35-0.28l0.04-0.36l-2.04-0.79l-1-0.87l-1.21-0.1l-2.5,0.51l-1.26-0.16
				l-1.8,0.28l-0.35,0.24l-0.87-0.06l-0.5-0.46l-0.56,0.23l0.07-0.22l-0.46-0.32l-0.97-0.2l-0.74,0.66l-0.34-0.089l-0.09-0.84
				l-0.35-0.45l0.82,0.06l0.99-0.87l-0.08-0.36l0.71-0.33l0.44,1.06l-0.23,0.24l0.41,0.28l0.28,0.81l0.43,0.17l0.46-0.52l0.16-0.83
				l1.58-1.53l0.17-1.27l0.49-0.79l0.34-0.26l-0.06,0.61l0.33,0.27l1.15-0.13l0.79-1.29l0.179-2.59l0.59-1.89l0.34-0.2l-0.01-0.51
				l1.57-1.27l0.18-0.73l0.53-0.66l0.63-0.089l0.45,0.54l-0.06,1.09l0.84,0.46l0.88-0.27l0.54-0.8l1.06,0.49l0.349-0.35l0.49,0.25
				l0.1,0.56l0.4,0.22l0.93,0.13l0.64-0.44l0.4,0.26l0.97-0.28l0.36,0.21l0.41-0.13l0.39,0.39L-89.97,214.73z"/>
			<path fill="#B5B5B5" stroke="#FFFFFF" stroke-width="0.5726" d="M137.79,111.58l3.94,0.28l2.89,0.83l2.71,1.84l0.94-0.58
				l0.71-1.03l2.15-0.31l0,0l0.18,0.69l1.19,0.52l0.59,0.58l0.2,1.12l0.53,0.46l1.02,0.75l1.72,0.29l0.46,0.49l0.26,0.72l-0.06,1.77
				l-0.91,2.03l0,0l-1.81,0.03l-1.27-0.34l-2.64-2.76l-0.43,0.32L149,119.4l-7.12-0.27l-6.13,0.22l-0.93,0.55l-2.85,0.32l-1.26-1.41
				l-2.48-0.27l-0.61,0.89l-2.34,0.27l0,0l0.24-0.42l-0.15-1.24l-1.49-0.32l-1.13-1.28l0.26-0.14l0.05-0.91l0.29-0.28l0.89-0.33
				l0.82,0.33l0.44-0.09l0.01-0.81l0.29-0.34l0.76,0.43l1.12,0.04l0.41-0.35l1.22-0.01l2.679-1.05l0.66-0.52l0.72-0.12l0.421,0.68
				l0.77,0.58l0.36-0.77h0.31l0.43-0.51L137.79,111.58z"/>
			<path fill="#9FC677" stroke="#FFFFFF" stroke-width="0.5726" d="M75.83,90.59l1.24,1.33l0.64,1.04l-0.01,0.36l-0.5,0.78
				l-2.25,2.06l-1.11-0.34l0.59,0.97l0.09,2.34l3.88,3.34l4.19,2.45l0.46,1.13l1.12,0.52l1.01,0.08l2.64,2.24l0.949,1.53l2.27,0.72
				l0.22,0.94l-1.08,1.25l-2.03,1.41l-1.73-0.65l-2.51,0.24l-2.35-0.21l-2.61-0.49L77.57,113l-0.59-0.6l-0.58-1.52l-0.57-0.48
				l-0.89-0.27l-0.02,0.37l2.05,3.47l0.08,0.62l-0.51,0.37l-1.42-0.76l-1.34,0.43l-1.01,0.99l-0.3,0.65v0.77l-1.43,2.98l-0.77,0.56
				l-0.68,1.46l-0.8,2.81l0.9,1.98l-0.7,0.93l-0.67,2.08l0.52,1.48l-0.39,2.64l2.17-1.42l0.56-0.04l-0.85,3.26l0.71,1.87l-2.48,1.23
				l-1.81-0.1l-0.58-0.7l-0.36,0.22l-0.12,0.67l-1.66,1.99l-1.76,2.82l-1.51,0.8l-1.55,0.28l-1.1-2.51l0.27-0.94l-0.27-0.12
				l-0.41,1.54l0.59,0.59l0.49,1.11l-0.48,1.69l-1.91,0.66l-1.27,0.88l-0.05,0.78l0.41,0.67l-0.38,0.74l-2.01,0.79l-2.63,1.45
				l0.54,0.49l1.8-0.68l0.89,0.24l0.14,3.81l-0.34,0.41L52.35,157l1.8,0.24l0.35-0.34l0.23,0.91l1.19,0.32l-0.73,3.26l0,0
				l-2.04-0.76l-2.28-0.02l-1.08-0.36l-2.3-0.13l-0.77-0.47l-2.01,1.37l-0.23-0.45l0.04-0.86l-0.57-1.46l0.17-1.28l0.31-0.47
				l-0.63-0.43l-0.42,0.12l-0.44-0.2l0.18-0.511l-0.23-0.62l0.35-1.2l-0.1-1.58l-0.699-1.1l0.03-0.68l-0.71-0.75l0.13-0.59
				l-0.24-0.33l-1.02,0.12l-0.15-0.3l1.68-1.93l0.27,0.06l-0.14,0.65l0.21,0.06l0.92-1.08l0.22-0.83l0,0l-0.01,0.01l0,0l0.2-1.1
				l1.19-1.22l-0.64-0.56l-0.56,0.34l-0.19-0.12l-0.16-0.58l-0.62-0.49l-0.35,0.04l-0.37-1.05l-1.11-0.71l-1.16-1.41l-1.42-0.25
				l-0.34-0.85l-0.2-2.61l-0.42-0.37l-0.33-0.87l-0.8-0.67l0.18-0.92l-0.31-0.09l-0.16-1.23l0.36-0.07l-0.21-0.78l0.46-0.81
				l0.01-0.56l0.72-0.71l-0.3-0.95l-2.05,0.99l-0.24,0.56l-0.79,0.2l-0.65,0.56l-0.76-0.2l-0.86,0.16l-0.57-3.32l-0.79-0.54
				l-0.49,0.09l-0.25-0.42l0.24-1.1l0.38-0.7l0.49-0.23l0.45-0.95l0.56-0.37l0.32,0.23l0.88-0.17L33.4,122l1.3-1.3l0.04-0.6
				l-0.55-0.48l-1.37-2.26l-0.58-1.95l-0.81-0.43l-0.68,0.63l0.23,0.6l-1.02-0.73l-0.75,0.14l-0.69,0.51l-0.74-0.04l-1.16,1.09
				l-0.66,0.03l-0.18,0.86l-0.84,0.03l-0.57,0.38l0.06,0.56l-0.18,0.05l-1.64-0.61h-1.66l-0.09-0.36l-0.53-0.28l0.27-0.45
				l-0.28-0.82l-0.62-0.38L16.61,117l-0.77-0.28l0,0l0.04-0.66l0.57-0.23l0.1-0.99l0.43-0.54l-0.72-1.25l0.66-1.09l-0.4-0.61
				l0.081-0.3l0.81-0.33l0.08-0.56l0.43-0.37l0.85,0.08l1.15-0.48l0.17-1.16l0.27-0.37l-0.18-0.15l0.09-1.45l0.69-0.36l0,0
				l0.31-0.12l0,0l0.2-0.38l1.92-0.64l0.47-0.46l2.2,1.27l0.51-0.46l0,0l1.41,1.17l1.35,0.39l0.66,0.74l0.36,1.08l0.69-0.39
				l0.61,0.08l0.44,0.18l0.74,1.25l0.96,0.21l0.73-0.82l2.26,0.31l0.7-0.78l0.87,0.17l1.07-0.99l0.21-1.34l0.34-0.35l1.65,0.05
				l1.95-0.73l1.96-0.04l0.86-0.74l0.46-0.99l2.06-2.46l1.06-2.08l-0.2-1.55l2.06-1.86l0.29-3.14l0.98-1.39l0.45-1.38l0.44-0.04
				l1.14,0.73l0.27,0.61l1.13,0.21l0.87-0.25l1.46-0.96l1.9-0.65l1.67-0.99l2.31,0.22l2.079-0.35l0.45,0.95l0.53,0.39l1.53,0.61
				l0.91-0.22l1.38,1.42l1.17,0.44l0.31,0.04l1.07-0.65l1.09-0.13L75.83,90.59z"/>
			<path fill="#B5B5B5" stroke="#FFFFFF" stroke-width="0.5726" d="M-120.88,131.3l0.75,0.42l0.89,1.63l-0.87,0.7l-0.47,1.59h-0.45
				l-0.73-0.75l-0.41,0.17l-0.13,1.07l-0.42,0.17l-0.59-2.13l-0.99-0.76l0.38-1.28l0.62-0.19l0.06-0.65l0.19,0.64l-0.38,0.35
				l0.36,0.54l0.12-0.72l0.83,0.22l0.42-0.27l0.14-0.65L-120.88,131.3z M-116.44,129.3h0.44l-0.01-0.76l0.21-0.17l0.99,1.35
				l0.79,0.64l0.65,0.06l0.05,0.37l-1.22-0.37l-0.24,0.22l0.37,0.43l-0.11,0.21l-0.76-0.39l-0.33,0.1l-2.1-1.63l-0.75,0.13
				l-0.76,0.51l-0.45-0.08l-0.56,0.43l-0.44-0.5l-0.6,0.13l-0.45-0.39l0.01-0.54l1.17-0.8l-0.14-1.92l0.68-0.31l1.41,0.91l1.39,1.53
				l0.19,0.6L-116.44,129.3z M-122.28,124.23l0.14,0.18l0.06-0.37l0.44,0.04l1.62,1.73l-0.82,0.36l-0.42-0.25l-1.08-1.2l-0.77-1.31
				L-122.28,124.23z M-120.25,122.93l1.48,1.81l1.13,0.93l-0.06,0.47l-1.87-1.3l-1.37-1.54l-0.02-0.43L-120.25,122.93z
				 M-121.95,121.58l0.49,0.33l-0.49,0.15l0.29,0.28l-0.72-0.28l0.05,0.22l-0.37,0.39l-0.25-0.06l-0.4-0.7l-0.18,0.06l-0.06-0.54
				l0.6,0.17l0.05-0.37l-0.55-0.46L-121.95,121.58z M-123.99,114.9l-0.14,0.7l0.59,0.45l-0.67,0.29l0.79,0.15l0.05-0.27l0.33,0.25
				l-0.16,0.24l-0.54-0.13l-0.1,0.87l-0.48-0.38l-1.11-1.86l1.22-0.43L-123.99,114.9z M-129.06,115.26l-0.09,0.14l-1.29-1.3
				l-0.26-0.78l1.39,0.84l0.46,0.79L-129.06,115.26z M-130.33,115.05l-0.18,0.41l-0.15-0.35l-1.02-0.52l-0.41-1.01l0.5-0.37
				l0.96,1.07L-130.33,115.05z M-135.56,113.45l0.1,0.54l0.97,1.12l-0.17,0.29l-0.83-0.63l0.35,0.61l-0.14,0.66l0.26,0.32
				l-0.33,0.82l-0.43,0.16l-0.21-0.31l-0.61-0.05l-0.78-1.13l-0.16-1.52l0.31-1.02l0.64,0.37l-0.08-0.95l0.46-0.35l0.56,0.29
				L-135.56,113.45z M-126.22,112.6l0.27,0.08l0.12-0.37l0.36-0.04l0.27,0.33l-0.13,0.43l-0.25,0.06l0.09,0.43l0.67,0.06l0.67,0.45
				l-1.37,0.89l-0.32-1.01l-0.771-0.19l-0.02-0.8l-0.17-0.14l-0.28,0.27l-0.23-0.21l0.14-0.55l0.41-0.09L-126.22,112.6z
				 M-130.84,112.34l-0.78-0.65l0.36-0.56l0.41,0.41L-130.84,112.34z M-129.86,110.72l-0.04,0.22l0.72,0.73l1.04,0.56l0.04,0.41
				l-0.35,0.08l-0.14,0.62l-1.8-1.15l0.17-0.66l-0.55-0.52l0.1-0.24l0.29,0.14l0.31-0.2v-0.42L-129.86,110.72z M-136.65,109.77
				l-0.05,0.2l-0.3-0.09l-0.05,0.63l0.95,1.51l-0.73-0.04l-1.19-0.7l0.25-1.16l0.59-0.17l0.27-0.48L-136.65,109.77z M-125.85,109.75
				l-0.14,1.61l-0.62,0.04l0.02,0.74l-0.71-0.18l-0.21,0.18l-1.79-0.78l-0.24-1.1l0.34-0.05l-0.07,0.46l0.32-0.01l-0.24-0.89
				l1.02,0.1l0.14-0.68l0.31-0.06l0.78,0.68l0.14-0.2l-0.22-0.43l0.49-0.2L-125.85,109.75z M-119.56,109.29l0.13,0.56l0.63,0.37
				l0.4,1.01l-0.2,1.03l0.23,0.85l-0.22,0.26l0.72,0.05l-0.74,1.3l-1.29-0.19l-1.13-0.72l-0.8-0.06l0.6-0.29l-0.8-1.03l0.19-0.29
				l0.48,0.05l-0.17-0.38l0.35-0.43l-0.38-0.35l-0.66,0.35l-0.12,0.6l-0.61-0.45l-0.32,0.41l-1-0.06l-0.54-0.78l-0.11-0.38
				l0.44-0.64l1.26-0.2l-0.23-0.64l0.33-0.15l0.6,0.13l0.41-0.29l1.48,0.42l1.01-0.85L-119.56,109.29z"/>
			<path fill="#B5B5B5" stroke="#FFFFFF" stroke-width="0.5726" d="M71.09,78.7l-0.46,0.36l-1.11-0.86l-0.43-1.04l0.14-0.53
				l1.23-0.1l0.7,0.21L71.09,78.7z M67,74.66l1.88,1.28l-0.45,0.39l-1.44-0.62l-1.63-0.09l-0.9-0.71l0.06-0.36l0.76-0.32L67,74.66z
				 M71.63,68.43l-0.65,0.24l-1.03-0.73l-0.13-0.93l0.64-0.71l0.41,0.04l1.08,0.85l0.1,0.4L71.63,68.43z M73.89,65.64l0.37,0.16
				l0.4,1.69l-0.89,0.43l-3.56-2.63L71,64.45l0.43-0.02l0.85,0.29l0.67,0.68L73.89,65.64z M41.89,66.85l0.27-1.35l0.31,0.03
				l0.65-0.77l0.46,0.34l0.341-0.09l0.1-0.48l0.59-0.51l-0.05-1.23L45,62.63l0.29,0.48l1.28,0.26l0.9,1.01l0.47-0.75l0.71-0.28
				l0.22-0.63l1.45,0.33l1.27-0.29l1.02,0.82l0.19,0.51l0.5-0.12l0.18-0.45l0.71,0.07l-0.06-0.52l0.43-0.56l0.69,0.48l0.22,0.51
				l1.35-0.14l0.44-0.57l0.68,0.62l0.63,0.14l1.02-0.51l1.66,0.65l0.28-0.33l1.98,0.07l1.05-0.48l2.6,1.81l0.57,0.85l1.03,0.29
				l0.74-0.22l0.21,0.15l0,0l-1.43,0.66l-1.33-0.38l-0.13,0.62l1.16,0.46l2.28,1.87l-1.47,0.22l1.42,0.8l1.33,0.14l1.1,1.13
				l-0.16,0.76l0.9,0.27l-0.03,0.22l-0.99,0.94l-0.9,0.18l-2.67,0.19l-2.26-0.32l-1.51,0.26l-0.77,0.79l0.04,0.34l0.49,0.74
				l1.27,0.78l1.06-0.13l0.68,0.18l-0.19,1.16l1.5,0.77l-0.14,0.24l-1.78,0.43l-0.23,0.39l-0.82,0.14L66,79.97l2.16,0.56l2.31,1
				l1.07,1.75l-0.2,2.42l1.56,0.57l0.52,2l2.39,2.32l0,0l-0.57,0.49l-1.09,0.13l-1.07,0.65l-0.31-0.04l-1.18-0.43l-1.37-1.43
				l-0.91,0.22l-1.53-0.61l-0.53-0.38l-0.45-0.96l-2.07,0.35l-2.31-0.22l-1.68,0.99L58.84,90l-1.46,0.96l-0.86,0.26L55.38,91
				l-0.25-0.6l-1.14-0.73l-0.43,0.04l-0.46,1.38l-0.97,1.39l-0.3,3.14l-2.05,1.86l0.2,1.55l-1.07,2.07l-2.05,2.46l-0.47,0.99
				l-0.86,0.74l-1.96,0.04l-1.95,0.73l-1.65-0.04l-0.34,0.35l-0.21,1.33l-1.08,1l-0.87-0.17l-0.69,0.78L34.52,109l-0.73,0.82
				l-0.96-0.22l-0.74-1.25l-0.44-0.17l-0.6-0.08l-0.69,0.39L30,107.41l-0.66-0.74L28,106.28l-1.42-1.17l0,0l0.41-0.68l-0.06-0.9
				l0.67-0.4l0.75-1.03l-0.12-1.94l0.35-0.78l0.47-0.14l0.46,0.21l0.37-0.54l0.86-0.38l-0.34-0.68l0.59-0.82l-0.43-0.21l-0.64,0.29
				l-0.05-1.19l-0.44-0.41l0.25-1.79l1.55-0.17l0.65-0.42l-0.26-0.55l0.26-0.54l0.56,0.1l0.79-0.7h0.56l0.54-0.85l1.14-0.14
				l0.5-0.42l0.06-0.26l-1.08-1.24l-0.84,0.26l-0.26-0.4l0.32-0.66l-0.21-0.86l0.5-0.44l0.14-0.65l-0.62-0.48l0.8-0.65l0.19-0.9
				l1.32-0.89l0.28-0.7l0.56,0.89l1.04-0.07l0.67-0.65l0.87-0.12l0.23-1.22l0.67-0.56l-0.66-0.76l0.3-2.37l0.51-1.06l0.29,0.02
				l0.35,0.53l0.32-0.49l-0.51-0.85l-0.62-2.05l0.01-1.31l0.54-1.94l-0.84-0.88l1.08-0.55l0.52-1.75l0,0L41.89,66.85z"/>
			<path fill="#B5B5B5" stroke="#FFFFFF" stroke-width="0.5726" d="M194.11,162.27l-0.43,0.06l-0.83-0.74l-0.47-1.99l-0.73-1.09
				l-0.49-2.09l0.38-0.92l0.53-0.53l0.49,0.07l0.66,0.58l-0.49,2.11l1.66,3.77L194.11,162.27z M185.01,152.56l3.18,0.27l1.57-0.41
				l3.33-0.1l5.25,0.44l-0.22,0.33l-1.19,0.5l-11.49,0.91l-1.84-1l0.01-0.7l0.54-0.62l0.49-0.07L185.01,152.56z M178.01,151.04
				l0.82,0.28l1.57-0.42l2.501,0.6l0.4,0.83v1.41l-2.33-0.18l-1.53,0.23l-0.83,0.78l-2.11-0.69l-4.12,1.53l-2.46,0.19l-1.1-1.94
				v-0.9l0.62-1.82l0.41-0.46l1.981-0.39l1.53-0.01L178.01,151.04z M220.78,147.06l3.8,2.34l0.25,0.79l-0.31,0.64l-1.16,0.44
				l-5.15-0.4l-0.97,0.55l-1.41,0.21l-1.62-0.75l-0.78-0.82l0.72-2.8l0.26-0.29l0.27,0.22l2.47-1.52l1.36,0.26L220.78,147.06z
				 M216.94,144.6l-1.74,0.16l-0.56-0.53l1.32-0.88l1.52,0.61L216.94,144.6z M212.66,137.88l-0.59,0.2l-1.7-0.38l-0.09-0.59
				l0.699-1.75l0.73-0.01L212.66,137.88z M216.39,131.02l1.63,2.12l-0.26,0.8l-0.92,1.25l0.65,1.37l0.46,0.27l1.57-0.48l0.93,0.42
				l0.64,0.86l-0.05,0.43l-1.14,0.93l-0.9,0.24l-1.14-0.49l-1.01-1.24l-1.8,0.76l-0.37-0.13l-0.79-2.76l-1.44-1.53l-0.19-0.86
				l0.45-1.66l0.73-0.19l0.61,0.54l1.01-0.22l0.74-0.59L216.39,131.02z M210.71,134.03l-0.97-0.06l-0.14-0.37l-0.01-2.97l0.55-0.4
				l1.36-0.14l0.33,0.39l0.32,1.41l-0.39,1.69L210.71,134.03z M220.58,100.14l1.039,0.17l0.82,0.73l0.62,3.25l-0.66,2.52l-1.17,2.08
				l-3.72,2.7l-0.32,0.5l0.04,0.86l0.36,0.6l2.01,1.25l0.72-0.11l1.06-0.8l0.15-1.92l0.66-1.12l0.93-0.72l1.41,0.03l0.48-0.25
				l0.4-0.87l-0.13-0.39l-0.64-0.26l-0.179-0.7l0.83-1.34l2.7-1.88l0.98-0.42l2.7-0.59l1.42,0.29l-0.33,6.6l-0.48,0.57l-3.18,1.86
				l-2.14,0.63l-1.25,1.25l-0.01,0.37l0.36,0.72l1.65,1.21l3.49,1.25l1.27,0.11l0.28,2.1l-0.15,0.74l0.56,0.41l1.58,0.42l0.66,0.54
				l0.45,0.86l-1.32-0.76l-3.96-0.93l-1.33-1.11l-2.52,0.16l-0.97-0.26l-0.78-0.69l-1.27-0.22l-1.7-0.15l-0.53,0.32l-0.61,2.25
				l0.41,0.32l0.25,2l-0.58,0.95l0.04,1.14l2.19,5.78l2.56,4.31l2.73,2.73l-2.18-0.23l-0.31-0.3l0.11-0.3l-1.46-1.11l-1.7-0.89
				l-2.35-4.56l-2.04-1.14l-0.8-1.24l0.54-4.08l-0.18-1.89l-0.47-2.08l-1.26-1.04l-0.72-2.76l0.32-1.66l0.62-0.64l0.45-0.91
				l-0.07-0.44l-1.57-0.47l-0.17-0.25l0.21-0.83l-0.41-1.38l-1.18,0.22l-0.11-0.33l0.07-2.19l1.79-3.3l-0.03-1.16l0.599-3.18
				l1.76-2.69l3.13-3.39l0.55-0.48h1.56l-0.18,0.94l-1.33,2.06l-1.32,1l-0.05,1.32L220.58,100.14z M229.69,96.61l-1.62,0.08
				l-1.6,0.39l-0.48-1.2l-0.25-2.98l1.62-2.62l1.25-1.23l1.85-0.89l1.85,2.22l0.14,0.67l-1.03,3.16l-0.73,1.35L229.69,96.61z"/>
			<path fill="#B5B5B5" stroke="#FFFFFF" stroke-width="0.5726" d="M91.41,248.26l0.08,0.27l0.59-0.25l0.17,0.42L92,249.04
				l-0.26-0.19l-0.14,0.27l-0.28-0.08l-0.08-0.79L91.41,248.26z M54.23,247.75l-0.24,1.17l-0.51,0.43l-0.44,1.43l-2.4,3.29
				l-0.11,0.48l1.25,0.38l-0.429,0.52l-1.721,0.28l0.48-1.24l-0.72,0.15l-0.36,0.32l-0.09,1.3l-0.33-0.02l-0.13-0.3l-0.96-0.33
				l-1.83,0.07l-0.09-0.63l-0.25-0.04l-0.96,0.33l-0.75-0.21l-0.38,0.38l-0.91-0.9l-1.21-0.11l-0.27-0.33l-0.14-0.53l0.38-0.62
				l0.29-0.07l0.04,0.31l0.88,0.36l0.51-0.48l0.73,0.171l0.74-0.5l0.25-2.67l-0.43-0.45l-0.1-0.65l0.41-0.54l0.71-0.4l0.11-0.42
				l0.25,0.08l0.89-0.48l1.25-1.24l1.42-0.5L50,245.62l3.02,0.92L54.23,247.75z M67.1,244.68l0.97-0.06L68.5,245l-1.11,0.77
				l-1.44,2.33l-0.81-0.52l0.57-1.04l-0.35-0.32l0.07-1.031l1.16-0.66L67.1,244.68z M88.52,246.17h-0.58l-0.39-0.33l0.01-0.75
				l0.75-0.78l0.66,0.07l0.41,0.77l-0.261,0.59L88.52,246.17z M72.43,243.95h1.67l1.07,0.42l0.21,1.57l0.6,0.5l0.28,0.8l0.98,0.52
				l1.18-0.44l0.28-0.54l0.95-0.74l2.82,0.65l0.44,1.15L82.39,250l0.54-0.17l0.2-0.33l0.01-1.36l0.42-0.71l1.19-0.95l2.69,0.46
				l-0.14,0.95l0.72,1.19v0.79l-0.47,0.21l-0.12,0.49l0.3,0.52l-0.07,0.66l0.57,0.15l0.82-0.32l-0.27-0.47l0.54-0.08l0.37-0.46
				l0.25,0.42l-0.44,0.94l0.07,0.94l-0.58,0.45l-1.31-0.24l-1.02,0.19l-0.89-0.87l-0.76,0.5l-1.33-0.32l-0.89,0.79l0.42,0.19
				l2.32-0.01l0.65,0.37l0.12,0.38l-0.36,0.27l-1.16,0.16l-1.73-0.7l-3.89,1.26l-1.02-0.4l-0.24-0.61l0.13-0.53l0.59-0.67l0.2-0.88
				l-0.46-0.73l-0.06,0.92l-0.61,0.07l-0.35,0.48l-0.57,0.25l-0.13,0.44l-0.41,0.09L75,254.87l-0.79,0.32l-0.66-0.5l-1.12,0.24
				l-0.3,0.5l-1.67,0.73l-0.51-0.19l-0.12-0.42l-0.7,0.4l-0.93-0.19l-2.5,1.23l-2.04,0.67l-1.1,0.07l-1.36-0.46l-0.84,0.04
				l-0.88,0.84l-1.43,0.34l-0.82-0.29l-0.25-0.34l-0.54-0.11l-0.32,0.21l-2.22-1.01l-0.22-0.41l0.36-1.47l0.48-0.24l-0.05-0.33
				l0.66-0.13l-0.59-1.27l0.24-0.19l-0.3-0.84l0.64-1.18l0.49-0.27l-0.14-0.69l0.38,0.27l1.34-0.21l3.09-2.18l3.66,1.47l0.59-0.73
				l1.9-0.17l0.9,0.65l0.53-0.04l0.22,0.79l-0.75,0.5l0.52,0.41l0.76-0.07l-0.2-1.09l0.35-0.11l0.26,0.8l0.46,0.01l0.02,0.38
				l-0.68,0.07l0.25,0.31l-0.12,0.5l0.44,1.39l1.28-0.25l1.36,0.46l1.3-1.01l1.17-0.25l0.86,0.36l1.36-0.53l-0.13-0.62l-0.4-0.38
				l-0.47-0.13l-0.14,0.21l-1.7-1.73l-1.42,0.16l-2.36-1.55l-1.36-1.56l-0.12-0.29l0.32-0.83l1.01-0.699l0.59,0.05l1.469-0.67
				L72.43,243.95z"/>
			<path fill="#B5B5B5" stroke="#FFFFFF" stroke-width="0.5726" d="M99.37,138.48l-0.09,2.04l0.33,1.92l0.07,0.21l0.32-0.07
				l0.03,0.43l-0.6,1.81l-1.31,0.16l-0.17,0.32l0.47-0.17l0.09,0.21l-1.03,0.34v0.22l1.29,1.13l1.33-0.44l1.119,0.83l-0.54,0.7
				l0.23,0.72l0.87,0.83l-0.07,0.53l0.33,0.11l0.36,0.64l-0.38,0.79l0.33,0.23l1.25,0.03l0.13,2.61l-0.31,0.18l0.19,0.75l0,0
				l-0.87,0.39l0.1,1.04l-0.61,0.07l-0.52,0.67l-1.51,1.08l-0.05,1.1l1.27,0.61l0.45,1.44l1.37,0.58l0.24,0.96l-0.21,0.5l-1.07,0.78
				l-0.19,0.61l-0.62,0.67l-1.31,0.35l-0.63-0.24l-0.3,0.63l-0.2,1.6l0.3,0.8l-0.27,0.59l0.89,1.55l-0.05,0.32l-0.89-0.04
				l-0.57,0.21l-0.4,0.67l-0.75,0.21l-0.17-0.24l-0.33,0.03l-0.31,0.25l-0.01,0.35l0.58,0.57l0.71,3.33l0,0l-2.851-0.89l-1.09,0.93
				l-2.46,0.19l-1.87,1l-1.2-3.35l0.06-3.88l0.84-2.65l-0.32-0.56l-0.8-0.15l-0.601,0.28l-0.14-1.29l0.67-1.98l0.31-0.19l0.59,0.47
				h0.59l1.49-0.97l2.06-1.99l-0.23-2.43l1.26-3.83l0.78-0.73l0.62-0.2l0.49,0.23l0.52-1.93l-0.64-0.69l-0.38-1.45l0.4-1.34
				l-0.44-2.93l0.59-0.62l-0.32-1.32l0.64-1.26l1.49-1.27l0.84-2.84L99.37,138.48z"/>
			<path fill="#B5B5B5" stroke="#FFFFFF" stroke-width="0.5726" d="M-19.387,93.588l-0.63,0.24l-0.96-1.31l-0.22-4.11l0.14-0.5
				l0.37-0.19l0.79,1.19l-0.02,2.95L-19.387,93.588z M38.993,55.208l1.45,0.22l1.16,6.4l0.15,4.8l-0.34,0.92l0.28,0.63l0.77,0.42
				l0,0l-0.01,0.11l0,0l-0.51,1.75l-1.08,0.55l0.83,0.87l-0.54,1.95v1.31l0.61,2.04l0.52,0.86l-0.33,0.49l-0.35-0.54l-0.29-0.01
				l-0.5,1.06l-0.3,2.37l0.66,0.76l-0.67,0.56l-0.24,1.22l-0.87,0.11l-0.67,0.65l-1.03,0.08l-0.57-0.89l-0.27,0.69l-1.33,0.9
				l-0.19,0.89l-0.8,0.65l0.62,0.49l-0.14,0.65l-0.5,0.44l0.21,0.85l-0.32,0.67l0.27,0.4l0.83-0.27l1.08,1.24l-0.06,0.27l-0.49,0.42
				l-1.15,0.13l-0.53,0.85h-0.57l-0.78,0.7l-0.57-0.09l-0.25,0.53l0.25,0.56l-0.65,0.41l-1.55,0.17l-0.24,1.8l0.43,0.41l0.05,1.18
				l0.64-0.28l0.44,0.21l-0.6,0.82l0.35,0.68l-0.87,0.38l-0.37,0.54l-0.46-0.21l-0.47,0.13l-0.34,0.79l0.11,1.94l-0.75,1.03
				l-0.67,0.4l0.06,0.89l-0.4,0.69l0,0l-0.51,0.45l-2.2-1.27l-0.48,0.45l-1.92,0.64l-0.2,0.38l0,0l-0.28,0.12l0,0l-1-0.79
				l-2.57,0.27l-0.34,0.38l-1.61,0.67l-0.19,1.03l-2.45,1.21l-0.27-0.08l-0.64-1.13l-0.57-0.26l-1.79,0.47l-1.53-1.35l-2-0.04
				l-0.64-0.18l-0.33-0.57l-0.31-0.04l-1.13,0.38l-0.64-0.06l1.35-1.65l-0.55-0.59l-2.01-0.23l-0.93,0.69l-0.77-0.36l-1.39,0.11
				l-2.45-0.32l-1.39,0.8l-1.32,0.29l-1.43,0.67l-0.42,0.46l0.36,0.55l-0.03,0.55l-0.71,0.71l-0.3,2.3l-2.71,0.19l-1.14,1.18
				l-0.26,0.65l-1.44-0.3l-0.49,0.14l-1.07-0.42l-1.39,0.75l-0.27,0.47l-0.6-0.99l-0.65-0.1l-1.01,0.27l-2.18-1.01l-1.64,0.48
				l-3.25,0.43l-0.75,0.96l-2.38,1.05l-0.38,0.02l-0.39-0.38l-0.33,0.57l-1.07,0.04l-1.31-0.59l-0.77-1.16l-1.65-0.21l-0.28-0.82
				l-1.28-1.95l-1.11-0.06l-0.37-0.29l-0.3-0.74l-1.27-0.62l-0.36-1.43l-1.5-0.21l-0.71-1.09l-1.85-1.66l-0.26-0.54l0.33-1.81
				l-0.13-0.3l-1.01-0.25l-0.73-0.79l-0.2-0.52l0.03-0.4l0.51-0.06l0.56-0.82l0.4-1.16l0,0l0.1,1.95l0.29,0.56l0.58,0.68l3.2,2.33
				l4.74-0.22l1.12-1.39l2.2,2.58l3.72,1.21l0.03,0.55l-0.86,0.75l0.17,0.09l0.69-0.12l0.41-0.39l0.16-1.21l0.69-0.07l2.27,1.03
				l1.28,1.33l1.35,0.6l2.41,0.45l0.86-0.19l-1.35-0.97l-1.86,0.19l-1.5-0.9l-0.86-1.59l0.41-1.37l0.51-0.24l1.99-5.57l0.71-0.82
				l1.02,0.26l0.65-0.6l-0.22-0.24l-2.66,0.25l0.13-1.69l0.58-2.33l0.27-0.1l1.82,1.31l1.2-0.44l-0.72-1.62l0.609-3.11l3.17-2.22
				l6.18-0.83l11.21-2.84l2.11-0.87l3.75-4.72l1.97-2.99l1.45-1.68l3.11-2.74l2.68-3.59l0.92-2.84l-0.47-2.07l0.43-0.24l1.73,0.1
				l0,0l1.63,0.61l1.36,1.75l0.25,1.45l3.15,2.83l1.35,1.71l0.47-0.05l1.07-0.62l1-1.14l0.74-2.94l-1.27-5.67l0.9-0.93l1.75-0.31
				l0.66-0.97l0,0l0.23,1.1l0,0l-0.19,0.6l0.22,1.81l1.11,3.82l1.73,0.61l2.09,0.31l-0.13-0.77l-1.12-0.98l-0.09-2.83l-0.92-2.58
				l-1.06-1.33l0,0l1.02-0.76l1.61,0.93l0.42-0.08L38.993,55.208z"/>
			<path fill="#B5B5B5" stroke="#FFFFFF" stroke-width="0.5726" d="M84.12,59.05l-0.38,0.56l-0.57-0.01l-2.66-1.04l1.88-0.25
				L84.12,59.05z M33.66,55.18l1.07,1.33l0.91,2.57l0.09,2.84l1.12,0.97l0.13,0.78l-2.09-0.31l-1.73-0.62l-1.11-3.82l-0.21-1.81
				l0.18-0.6l0,0l0.43,0.14l0.89-0.67L33.66,55.18z M31.35,55.18l-0.1,0.22l0.55,0.03l0,0l-0.65,0.97l-1.76,0.32l-0.9,0.92
				l1.27,5.68l-0.74,2.93l-1,1.14l-1.07,0.62l-0.47,0.05l-1.35-1.7l-3.14-2.84l-0.26-1.45l-1.36-1.75l-1.63-0.61l0,0l1.27,0.16
				l1.42-0.2l3.16-1.39l2.06-2.05l3.53-2.38L32,53.11h0.84L31.35,55.18z"/>
			<path fill="#B5B5B5" stroke="#FFFFFF" stroke-width="0.5726" d="M149.2,278.67l0.68,0.06l-1.41,1.27l0.93,0.28l0.12,0.68
				l-0.44,0.49l-0.79-0.03l-1.44,0.78l-0.51,1.3l-0.55,0.12l-0.7-0.32l-0.77,0.64l-1.49,0.08l-0.5,0.34l0.26,0.28l-0.28,0.44
				l-0.84-0.34l-0.52,0.12l-0.12,0.31l-0.4-0.25l0.13-1.07l-0.33-0.73l0.14-0.3l1.84-0.62l0.61,0.09l0.99-0.26l1.28-1.14l0.85-0.23
				l0.23-0.54l0.37,0.02l-0.04-0.33l0.76-0.73l1.51-0.65l0.23-0.69l0.47,0.53L149.2,278.67z M128.35,277.8l0.72,0.24l-0.25,1.1
				l-1.95,1.31l-1.76-0.05l-0.88-0.56l2.29-1.21l0.24-0.69l0.36-0.2l0.58-0.19L128.35,277.8z M150.7,273.81l0.45-0.09l0.05,0.38
				l-0.68,0.21l-0.47,0.5l-0.12-0.29l-0.37-0.03l0.3,0.75l-0.01,0.52l-0.36-0.05l0.24,0.29l-0.12,0.35l-0.33-0.01l-0.25-0.43
				l-0.699,0.47l-0.21-1.02l0.86-0.71l0.66-1.2l0.86-0.33L150.7,273.81z M101.28,262.61l0.97,1.24l1.49,0.05l0.38,0.89l-0.02,1
				l0.3,0.42l0.58,0.04l0.45,0.38l2.11-0.69l0.39,0.81l1.38,0.73l1.06,2.56l1.68,0.81l0.37,0.58l0.22,0.89l-0.24,0.66l-1.02,0.56
				l-0.58,0.78l-0.76,0.48l-0.9,0.3l-1.28-0.06l-0.8,0.39l-0.31,0.52l-0.91-0.35l-0.44-0.46l-2.18,0.02l-0.9-0.41l-1.45-1.45
				l-0.36-0.08l-0.12-0.94l-0.8-0.99l-0.99-0.429l-0.01-0.39l-1.3-0.1l-1.19-1.05l-0.35-0.86l-0.57,0.16l-0.56-0.47l-1.69-0.39
				l-0.82,0.33l-0.25,0.42l-0.82-0.43l-0.32,0.08l-0.16-0.29l-1.79-0.02l-2.07-0.92l-1.54-2.01l1.12-1.37l2.81-1.17l0.44,0.29
				l1.3-0.47l0.62,0.26l1.67-0.25l1.05,0.27l0.69-0.43l0.87-0.02l0.59,0.43l1.61,0.34l2.26-1.8L101.28,262.61z M173.41,256.34
				l0.16,0.07l-0.33,0.97l0.6,0.51l1.5-0.59l0.56-0.81l1.02,0.86l-0.23,2.07l-0.58,0.07l-0.6,0.44l-0.57-0.47l-0.88,0.02l-0.27,0.47
				l0.09,1.22l0.78,0.56l0.42,1.93l0,0l-1.51,1.26l-0.24,1.37l-0.49,0.46l-1.41,0.76l-1.93,2.4l-2.96,1.78l-0.64,1.16l-1.27,0.89
				l-0.89,0.23l-3.27-0.171l-1.97,1.64l-0.85,0.11l-2.38,1.03l-1.41,0.179l-0.699-0.2l-0.62,0.29l-0.99-0.609l-1.18,0.43l0.65-1.28
				l-0.07-0.58l0.51-0.18l0.1-0.55l3.17-1.19l0.46-0.71l-0.98-0.53l-0.76,0.01l-0.58,0.44l-0.341-0.23l0.11-1.51l1.21-0.79l0.16-0.9
				l-0.33-0.54l0.609-0.47l-0.04-1.51l1.08-1.03l0.67-0.26l0.44-0.71l1.12-0.48l0.32-0.5l0.46-0.15l0.92-1.09l0.74-0.05l0,0
				l0.67,0.99l0.39-0.02l0.2,0.27l1.34-0.81l0.65,0.68l0.17,0.51l-0.17,0.71l1.03-0.23l0.23-0.42l-0.16-0.37l0.51-0.57l0.01-0.46
				l0.85-0.36l0.39-0.5l-0.06-0.46l0.44-1.32l0,0l1.09,0.03l0.76-0.26l1.34-1.01l0.1-0.47l0.67-0.07l0.85-0.59L173.41,256.34z
				 M98.61,254.38l-0.35-0.01l0.24-0.45l0.2,0.11L98.61,254.38z M96.67,254.22l-0.45-0.14l0.38-0.18L96.67,254.22z M95.98,251.95
				l-0.6,0.07l-0.14,0.23l-0.28-0.09l0.93-0.57L95.98,251.95z M96.61,251.3l0.24,0.01l0.09,1.09l0.48-0.2l-0.23-0.5l0.33,0.13
				l0.17-0.38l0.97,0.08l-0.11,0.52l-0.37,0.06l-0.32,0.46l-0.35-0.18l-0.21,0.31l-0.09,0.31l0.5,0.41l-0.6,0.79l-0.22-0.01
				l-0.22-0.5l-0.64,0.26l-0.14-0.56l0.28-0.72l0.55-0.01l-0.1-0.42l-0.32,0.11l0.21-0.39l-0.32-0.67H96.61L96.61,251.3z
				 M136.57,248.66l0.65,0.27l-0.53,0.74l-0.75-0.5l0.07-0.43L136.57,248.66z M94.23,249.01l0.11,0.48l0.96,0.18l0.33-0.16
				l0.04,0.76l-0.29-0.23l-0.09,0.16l0.27,0.88l-0.77,0.11l0.03-0.4l-0.31-0.07l-0.36,0.52l-0.32,0.02l0.14,0.29l0.42-0.1l-0.31,0.5
				l-0.32-0.05l-0.31,0.39l0.3,0.37l-0.14,0.31l0.34,0.19l-0.46,0.21l-0.48-0.4l-0.45,0.19l0.55-1.21l-0.47-0.33l0.23-0.42
				l-0.2-0.21l0.94-0.87l-0.27-0.3l0.37-0.25l-0.19-0.65l0.41,0.1l0.08-0.36L94.23,249.01z M148.01,248.66l0.05,0.27l-0.29,0.24
				l-1.15,0.41l-0.68-0.2l-0.64,0.51l-0.74,1.21l-0.73,0.19l-0.21-0.39l0.26-0.85l0.94-0.48l0.46-0.79l0.65,0.17L148.01,248.66z
				 M127.14,246.76l0.33,0.43l-0.1,0.29l-1.03,0.02l0.33-0.69L127.14,246.76z M148.94,245.89l0.48-0.18l1.29,0.57l-0.47,0.46v0.85
				l-0.27,0.51l-1.69-0.05l-2.59,0.35v-0.6l0.57-0.88l1.65-1.07l0.55,0.07l0.38-0.21L148.94,245.89z M164.14,247.54l-0.76,0.87
				l-0.19,0.9l-1.19,1.03l-1.06-0.01l0.21-0.67l-0.39-1.09l-0.68-0.03l-0.62,0.56l-0.46-0.14l0.76-1.44l1.43-0.78l0.41,0.25v0.56
				l0.47,0.04l0.76-0.95l0.57-0.32l0.68-1.02l0.37-0.29l0.54-0.01l0.24,0.49l-0.42,0.68l0.02,0.82L164.14,247.54z M158.15,245.47
				l0.84,0.1l0.33,0.53l-1.27,0.46l-0.52-0.14l-0.62,0.24l-1.39,1.97l-0.75-0.3l-0.89,0.68l-0.14,0.32l0.35,0.82l-0.48,0.52
				l-0.49-0.04l-0.38-0.65l-1.39,0.96l-1.2-0.82l-0.37,0.29l-0.73-0.11l-0.17,0.2l-0.28-0.25l0.05-0.35l0.32-0.01l1.13-0.89
				l0.41-0.71l2.07-0.88l-0.58-0.63l-1.18,0.1l0.55-0.61l0.39-0.17l0.75,0.27l0.43-0.41h1.02l-0.98,1.63l0.78,0.26l0.63-0.46
				l-0.23-0.76h0.42l-0.02,0.43l0.511-0.42l-0.4-0.95l0.6-0.08l0.13,0.44l0.59,0.12l0.04-0.5l1.33-0.77L158.15,245.47z M168.1,244.2
				l1.21,0.09l-0.23,0.85l0.21,0.13l0.72-0.42l1.44-0.26l2.33,0.25l0.67-0.3l2.02,0.06l0.52,1.16l-0.05,1.38l-1.12,0.49l-2.54,0.1
				l-1.35,0.51l-2.05-0.09l-1.71,0.75l-0.65-0.37l-1.06,0.59l-0.18-0.29l-0.74,0.081l-0.27-0.601l1.031-1.53l2.07-0.99l-0.69-0.02
				l-1.38,0.66l-0.03-0.72l0.87-1.07l0.32-0.31L168.1,244.2z M144.91,243.98l0.63,0.431l-0.19,0.84l0.76,1.69l-0.64,0.57l-0.97-0.23
				l-0.53,0.72l0.02,0.97l-1.48-0.26l0.05,0.73l0.69,0.78l-0.19,0.81l-1.47,0.27l-0.12,0.35l-0.86-0.14l-1.57,0.6l-0.53,0.62
				l-1.7,0.54l-1.08-0.1l-0.92,0.22l-1.18-0.1l-0.27-0.27l-0.89,0.04l-1.29,0.91l-1.63,0.56l-0.81,0.02l-1.23,0.65l-1.58-0.47
				l-0.29,0.79l-0.21,0.06l-0.26-0.12l0.33-0.86l-0.87-0.53l-0.63,0.12l-2.11-0.27l-0.37,0.54v0.71l-0.39,0.35l-0.48,0.14
				l-0.58-0.33h-1.39l-2.54,0.99l-1.21-0.41l-0.73-0.63l-0.39-0.74l-0.69,0.15l-0.33,0.63l-0.39,0.1l-1.46-0.38l-0.7-0.75
				l-3.05,0.03l-1.07,0.52l-0.5-0.01l-0.95-0.26l-0.91-0.74l-1.91,0.51l-1.09,0.03l-0.53,0.65l-0.34-0.11l0.03-0.69l-0.67-0.05
				l-0.53-0.63l0.23-2.68l1.12-1l0.1-0.46l-0.3-0.69l0.35-0.04l0.01,0.49l0.32,0.19l0.98-0.61l0.4,0.39l0.22-0.3l-0.17-0.32
				l0.32-0.46l0.64-0.11l0.45,0.52l-0.17,0.3l0.32,0.04l0.26-1.17l0.51,0.24l0.69-0.98l1.24-0.33l1.24,0.14l0.62-0.21l0.25-0.53
				l0.67,0.79l0.73-0.27l1.03,0.25l0.07-0.56l0.61,0.29l0.57,0.74l0.41-0.03l0.35,0.32h3.58l0.06,0.4l0.42-0.03l0.14,0.63l0.6-0.09
				l2.99,0.89l0.41,0.18l0.56,1.01l1,0.46l0.74-0.37l0.61,0.8l0.47-0.5l0.52-0.17l-0.19-0.47l0.68,0.3l-0.17-0.36l0.32-0.88
				l0.86,0.57l0.74-0.26l0.97,0.23l0.699-0.42l0.97,0.21l0.74-0.76l-0.081,0.42l0.88-0.47l0.19,0.05l-0.23,1.24l0.79-0.09l0.22,0.3
				l0.28-0.21l0.78,0.38l0.95,1.01l0.96,0.23l0.98-0.41l1.62-0.06l0.7-0.87l-0.02-0.33l-0.48-0.45l0.2-0.28l0.96-0.27l0.56-0.46
				l0.15-0.46l0.91-0.04l1.04-0.45l0.46,0.08l0.7-0.93l1.26-0.29l0.36-0.94l0.38-0.21l-0.5-0.29l-1.34,0.25l-0.38,0.57l-0.81-0.16
				l0.79-1.07l0.04-0.64l0.699-0.18l0.55-0.44L144.91,243.98z"/>
			<path fill="#B5B5B5" stroke="#FFFFFF" stroke-width="0.5726" d="M120.63,166.45l1.37,0.36l1.18,0.79l0.601-0.48l0.949-0.11
				l0.48,1.14l-0.28,0.76l1.04,0.72l1.01,0.14l1.34-1.17l1.28-0.49l0,0l3.88,1.39l0.55-0.28l1.87,0.27l0.42,0.57l0.9,0.18l0.02,1.02
				l0.72,0.66l0.47-0.08l0.33,0.88l0.59,0.1v0.54l0,0l-0.77,1.03l0.15,0.65l1.82,0.81l0.57,0.97l-0.14,0.349l-0.3,0.13l-2.01-1.84
				l-0.63-0.01l0.58,1.09l-0.38,1.06l-1.01,0.39l-0.03,0.33l0.67,1.12l3.21,2.04l0.47,1.21l0.39,0.25l1.84-0.03l0.07,0.33
				l-0.43,0.31l-0.16,0.82l0.55,0.28l0.08,0.3l-0.29,0.37l0.45,1.09l2.21-0.04l-0.08-0.35l-0.69-0.52l-0.15-0.35l0.18-0.09
				l0.53,0.03l0.57,0.41l0.64,2.23l-0.18,2.32l-1.04,0.81l-2.03-1.65l-0.25,0.04l0.02,0.47l1.24,1.32l0.06,0.36l-0.56,0.41
				l-0.24-0.34l-0.48,0.21l-0.52-1.11l-0.63-0.42l-1.78,0.85l-0.69-0.08l-2.33,0.64l-0.63-0.12l-1.15,0.62l-0.79,0.15l-0.89,2.16
				l0.24,0.91l0.71,0.93l-1.09,1.1l-1.42,0.03l-1.27-0.59l-1.729-0.18l-0.83,0.14l-0.53-0.6l-1.31-0.511l-1.18-1.7l0.27-1.54
				l0.7-1.91l-0.04-1.2l0.38-0.98l0.43-0.21l0.6-1.19l-0.21-1.66l-1.1-0.43l-2.01-0.3l-1.28-1.66l-0.38-0.16l-0.15-0.73h-0.94
				l-0.83-1.15l-3.44-3.12l-0.18-0.58l0.31-1.46l1.41-1.85l0.6-0.29l0.54-1.299l0.01-1.96l0.44-0.84v-1.39l-0.43-0.02l-0.2-0.67
				l-0.13,0.37l-0.48-0.1l0.28,0.28l-0.03,0.2l-0.27-0.03l-0.31-0.95l0.39,0.12L120.63,166.45z"/>
			<path fill="#B5B5B5" stroke="#FFFFFF" stroke-width="0.5726" d="M-225.56,96.79l-0.14,0.08l-1.69-2.06l-1.34-0.46l-0.11-0.26
				l2.57-0.06l0.9,1.74L-225.56,96.79z M-249.99,45.3l2.23,1.2l0.33,0.93l2.43,2.02l4.07,1.11l3.42,0.22l1.6-0.29l1.86-0.74
				l1.08,0.41l1.27-0.29l2.15,0.55l0.63,1l0.52,0.18l4.5-1.43l3.6,3.92l1.35,1.11l1.02,0.24l0.8,1.49l0.16,1.28l0.76,1.31
				l-0.06,0.78l0.69-0.08l0.83,0.3l2.32,1.58l0.15,1.12l-0.28,0.73l0,0l-1.02-0.01l-0.64,0.18l-0.27,0.37l-0.8,0.02l0.17,0.95
				l-0.34,0.2l0.14,0.39l-0.38,0.58l-0.3,2.18l-1,0.54l-0.07,0.55l-0.63-0.29l0.21,1.19l-1.59,1.51l0.93,1.54l-0.01,0.63l0.63,0.29
				l0.19,0.75l0.48,0.34l-0.27,0.45l0.28,0.84l0.55,0.37l0.23-0.1l0.33,0.6l-0.19,0.66l-1.99,0.55l1.01,0.67l0.06,0.62l0.54,0.55
				l-0.06,0.82l-0.68,0.05l0.42,2.31l0.78,0.2l0.51,0.9l0.8,0.1l0.19,0.47l-0.31,0.74l0.59,1.19l-0.52,0.18l-0.18,1.19l0.17,0.84
				l0.35,0.47l-0.04,0.6l0.7,0.3l0.47,1.37l-0.48,2.35l0,0l-2.99-1.67l-1.12,0.39l-1.78-0.45l-1.42-1.94l-0.13-3.38l-0.82-3.33
				l-2.18-0.71l-0.99-0.72l-1.07-1.46l-0.42-1.65l-0.41-0.65l-1.3-0.44l-2.46-4.09l-1.6-1.09l-0.28-0.96l-1.37-0.94l-2.23-0.13
				l-1.12,0.19l-1.02-0.37l-1.45-1.38l-1.63-2.34l-1.47-1.52l-2.61-1.43l-2.71-2.86l-4.44-3.8l-1.65-2.39l-2.15-3.94l0.21-0.82
				l-1.03-1.57l0.28-1.78l-0.49-1.08l0.1-1.32l0.73,0.01l2.14-1.24l2.43,0.37L-249.99,45.3z"/>
			<path fill="#B5B5B5" stroke="#FFFFFF" stroke-width="0.5726" d="M-31.46,245.38l-1.71-0.08l-4.83-1.78l-0.52-0.67l-1.63-0.52
				l-3.1-1.47l0,0l0.49,0.02l0.32-1.07l1.07-1.06l0.05-1.33l1.83-0.13l0.32,0.76l0.51-0.65l2.1-1.57l0.51,3.25l0.61,0.39l0.51-0.12
				l0.16,0.29l1.26-0.27l0.15,0.27l0.5-0.22l0.55,0.49l0.22-0.23l0.23,0.15l-0.61,2.82l0.4,1.35l-0.08,0.63l0.19,0.15l0.47-0.31
				l-0.23,0.51l0.32-0.02L-31.46,245.38z"/>
			<path fill="#9FC677" stroke="#FFFFFF" stroke-width="0.5726" d="M-139.87,118.97l-0.49-0.15l-0.27-0.67l0.39-1.46l0.88-0.56
				l1.01,1.04l0.11,1.17l-0.33,0.31L-139.87,118.97z M-148.09,111.91l1.99-0.24l2.41,1.39l1.72,1.43l0.15,0.65l-0.2,0.89l-0.46,0.25
				l-1.05-1.04l-0.9-0.41l-2.94-0.09l-1.88,0.36l-0.93-0.47l-1.08-1.03l0.44-0.68l0.88-0.24v-0.62l-0.439-0.96l0.27-1.18l1,0.14
				l0.89,1.13l-0.14,0.39L-148.09,111.91z M-142.07,111.27l1.89,2.12l0.06,0.44l-0.3,0.33l-0.93,0.04l-2.06-1.44l-2.68-1.37
				l-1.01,0.09l-0.51-0.44l0.8-1.4l1.02-0.17l2.55,0.98L-142.07,111.27z M-151.39,112.91h-0.36l-1.3-1.21l-0.67-0.98l-0.57-2.94
				l0.12-1.81l1.14-0.03l2.75,2.62l-0.44,1.72l0.31,2.09L-151.39,112.91z M-150.03,105.33l0.17,2.43l-0.2,0.3l-2.7-2.33l-3.04-0.66
				l-0.82-0.79l-0.76-1.26l0.91-0.21l1.56,0.63l3.98,0.73l0.64,0.37L-150.03,105.33z M-163.12,101.53l-1.6-0.29l-0.66-0.6
				l-0.81-2.11l0.05-1.11l0.15-0.58l0.46-0.44l2.92-0.84l0.85,0.41l1.09,1.43l0.05,0.75l-0.64,0.82l-0.16,1.54l-1.07,0.83
				L-163.12,101.53z M-177.48,95.56l0.7-0.11l1.45,0.63l0.42-0.33l-0.97-0.6l-0.27-0.53l0.08-1l0.8-0.46l2.02-0.23l2.08,0.26
				l-0.09,0.43l0.3,0.65l2.94,1.95l0.63,0.67l0.26,1.81l1.22,2.7l1.98,0.92l2.09-0.3l1.02,0.28l3.84,3.19l1.71,0.9l0.94,2.59
				l-0.15,1.46l0.35,1.15l3.16,3.16l1.75,0.96h4.68l0.98,0.54l2.17,2.6l0.02,1.01l-7.45,3.91l-1.21-1l-0.85,0.01l1.61,1.13
				l0.69,0.21l1.05-0.95l3.58-0.66l3.77-2.13l0.83-1.13l1.91-0.71l1.45,0.53l4.23,3.18l1.05,4.13l-3.05,0.35l-0.33,1.09l-2.24,1.55
				l0.41,0.19l0.58-0.49l1.06-0.08l-0.27,0.53l1.37,0.18l1.42,0.62l0.75,1.1l-1.28,0.04l-1.42,0.62l-0.3,0.95l-2.23,1.48l-0.32,1.81
				l0.92,1.18l0,0l-1,0.1l-0.71,0.4l-0.33-0.26l-3.04-0.53l-1.71,0.12l-1.45,1.96l-1.78,1.27l-0.94,1.4l-0.59,0.07l-0.68,0.55
				l-0.52-0.36l-1.89-0.21l-0.39-0.64l-1.03-0.1l0.04-0.54l-0.84-0.43l-0.24-0.65l-1.54,0.49l-0.52-0.68l-0.65,0.25l-1.83-0.58
				l-0.51,0.52l-0.2-0.17l-0.5,0.24l-0.15,0.53l-0.69,0.15l-0.03,0.26l-0.51-0.09l0,0l-0.18-0.11l0,0h-0.75l-1.49-0.57l0.03-0.24
				l-0.85-0.9l-1.32-0.6l-1.42-1.04l-0.08-0.47l-0.77-0.35l0.07-0.34l-1.44-0.52l-0.92-0.69l-0.1-0.35l-1.69-0.81l-0.6-1.3
				l0.18-0.89l-0.67-0.5l-1.05,0.18l-0.16,0.6l-0.87-0.39l-0.23-0.8l-0.72-0.66l-0.55-2.54l0.42-0.61l0.45,0.37l0.5-0.87l0.08-0.72
				l-0.33-0.79l0.23-1.13l-0.32-0.84l-0.45-0.27l-0.55,0.19l-1.12,1.12l-0.92-0.03l-2.4-0.66l-0.65-1.46l-0.32-0.23l-0.32-0.12
				l-1,0.39l-0.13-1.34l-1.08-2.23l0.08-0.79l0.69-1.09l-0.4-0.62l-0.9-0.36l0,0l-0.73-0.86l0.23-0.17v-0.96l-0.37,0.03l-0.36-0.6
				l0.63-0.03l0.32-0.76l-0.3-0.86l-0.33-0.14l0.03-0.36l1-0.33l-0.81-1.06l-0.18-1.34l-0.87-1.29l0.32-0.23l2.54-0.13l-0.01-0.3
				h0.9l0.26-0.46h0.67l0.7-0.6l-0.04-0.93l0.42-1l-0.11-0.86l-0.5-0.1l0.24-0.57l-0.21-0.66l-1.6-0.3l-0.24-0.26l0.97-5.36
				l-0.77-2.12l-0.15-1.12l0.31-1.62l1.22,3.12l1.15,1.17L-177.48,95.56z"/>
			<path fill="#B5B5B5" stroke="#FFFFFF" stroke-width="0.5726" d="M180.79,105.73l-0.74,1.04l-0.63,2.14l-2.12,3.33l-1.11,0.48
				l-2.29,1.96l-1.61,3.1l-1.62,1.97l-1.77,0.9l-1.09,0.27l-4.38,0.55l-2.48,0.59l-1.9,0.22l-0.86-0.26l-1.87,0.02l0,0l0.91-2.04
				l0.06-1.76l-0.26-0.72l-0.46-0.49l-1.71-0.29l-1.02-0.76l-0.53-0.45l-0.2-1.11l-0.6-0.59l-1.18-0.52l-0.18-0.69l0,0l1.97-0.09
				l4.48,1.25l0.76-0.25l3.24,0.77l1.34-0.05l5.53-2.61l1.03-2.27l0.84-0.33l2.45,0.03l0.35-0.49l-0.01-0.52l-1-0.24l-0.22-0.38
				l0.36-0.96l0.95-0.69l1.43,0.26l1.69-0.97l0.17-0.45l-0.42-1.13l2.19-1.73l0.9-0.08l1.45,0.41l0.58,0.47l-0.06,0.87l1.23,1.03
				l-0.261,0.72L180.79,105.73z M184.52,88.18l-0.58-0.11l-0.35-1.25l0.36-0.99l0.44-0.2l0.58,0.5l-0.681,1l0.36,0.86L184.52,88.18z
				 M186.72,73.86l-0.18,0.47l0.89,1.09l0.5,0.14l0.13,1.06l-0.52,0.81l-0.32-0.05l-0.06,0.52l-0.42-0.82l-0.42,0.01l-0.59-0.6
				l-0.24,0.05l-0.31-0.98l0.38-0.88l-0.4-0.45l0.28-0.11l-1.36-0.66l-0.14-1.07l0.61-0.22l0.87,0.16L186.72,73.86z M203.03,71.21
				L202.61,71l-1.14-2.36l-0.14-0.87l0.58,0.24l1.219,1.57L203.03,71.21z M203.67,68.5l-0.92-0.13l-0.17-1.08l0.59-0.51l0.78-1.56
				l-0.2-0.51l-0.99-0.33l-0.27-0.81l0.33-2.57l0.28-0.53l1.08,0.19l0.68,0.59l0.91,3.05l-0.62,0.99l-0.99,2.72L203.67,68.5z"/>
			<path fill="#B5B5B5" stroke="#FFFFFF" stroke-width="0.5726" d="M-120.87,150.48l-1.08-0.44l-0.46,0.09l-0.4,0.36l0.07,0.64
				l-0.27,0.36l-1.68,0.14l-1.93,0.63l-0.91-0.23l-1.05,0.15l-1.23-0.5l-0.61,0.3l-0.25,0.44l-1.4,0.07l-1.85,0.68l-0.93,0.81
				l-0.31,3.06l0.46,0.4l-1.51,0.64v2.48l-1.72-1.29l-0.67-0.84l-0.06-0.65l-0.68-0.37l-1.04,1.42l0.57,0.58l0.13,0.61l-1.31,0.51
				l-1.18-0.54l-0.251,0.44l-2.21-0.51l-0.49,0.71l0.5,0.84l-1.33,1.81l-0.38,0.3l-0.47-0.1l-1.45,0.91l-0.7,0.99l-0.41-0.17
				l-0.86,0.44l-0.71-0.13l-0.58-0.14l-0.91-0.72l-0.42,0.17l-0.71-0.44l-0.47,0.21l-0.08,0.61l-0.35,0.37l-1.38,0.41l-0.35,0.61
				l0,0l-0.48-0.14l0,0l-1.09-0.54l-1.14,0.14l-0.58-0.17l-1.17-0.92l-1.57-1.9l-0.89,0.35l-0.62-0.11l-0.24,0.41l0.16-1.77
				l-3.94-2.49l0,0l0.2-0.43l0,0l-0.58-2.8l-0.33-0.63l-0.88-0.61l-0.64-1.2l-0.14-3.08l0.57,0.28l0.28-0.33l0.57,0.6l0.47-0.29
				l1.36-0.21l1-0.12l0.31,0.3l0.86-0.23l1.01-1.51l1.71-1.04l0.53-0.94l-0.34-0.49l0.35-0.57l-0.33-1.37l0.52-0.52l1.33-0.3
				l0.96-1.59l-0.4,0.15l-0.45-0.37l-0.03-1.59l0,0l-0.03-0.01l0,0l0.51,0.08l0.03-0.26l0.68-0.15l0.15-0.52l0.5-0.25l0.2,0.18
				l0.5-0.53l1.84,0.58l0.65-0.25l0.51,0.68l1.54-0.48l0.25,0.64l0.84,0.43l-0.04,0.54l1.03,0.1l0.39,0.64l1.89,0.22l0.52,0.36
				l0.68-0.56l0.58-0.07l0.94-1.4l1.78-1.27l1.45-1.95l1.72-0.12l3.04,0.53l0.33,0.26l0.72-0.4l1-0.09l0,0l1.02,0.67l1.5,1.54
				l2.74,1.33l1.72-0.44l3.84,1.26l2.21-0.58l0.62,1.47l-0.27,1.22l0.8,1.68l-0.18,2.54L-120.87,150.48z"/>
			<path fill="#B5B5B5" stroke="#FFFFFF" stroke-width="0.5726" d="M157.25,204.33l-0.98-0.08l-0.51-1.03l-0.04-0.67l1.1,0.12
				l0.4,0.34L157.25,204.33z M133.64,205.78l-0.84,0.05l-2.12-3.01l0.87-2.57l0.74-0.48l1.02,0.32l1.06,2.19l-0.21,2.8l-0.16,0.51
				L133.64,205.78z M144.31,193.64l0.55,3.68l-0.1,0.85l-1.94,1.63l-0.73,1.46l0.77,1.56l-0.25,1.11l-0.64,1.02l-0.8,0.22
				l-1.36-0.49l-2.46-0.32l-0.13-0.78l0.81-2.53l0.24-0.51l0.9-0.73l-0.07-1.23l-0.78-1.95l0.68-1.35l2.17-0.49l1.24-0.94l1.4-0.67
				L144.31,193.64z M151.5,194.52l-0.22,2.52l-0.5-0.56l0.16-0.86l-0.58-0.92l-0.34,0.17l0.07,1.74l-0.31,0.22l-0.63-0.43l0.34-1.07
				l-0.47,0.06l-0.91,2.74l-0.24,2.33l0.59,0.52l0.32-0.07l2.39,1.95l0.01,0.31l-1.1,1.34l-1.38,0.58l-0.75-0.45l-1.83,1.01
				l-0.22,0.58l0.57,0.04l0.19,0.28l-1.35,2.18l-0.38,0.22l-2.15-0.1l-1.16-2.59l2.57-3.66l0.75-1.81l1.23-4.63l-0.05-2.35
				l1.11-2.57l1.77-1.22h0.69l-0.27,0.44l0.18,0.64l0.84,0.47l0.8,1.18L151.5,194.52z M149.88,184.69l1.57-0.25l0.86,1.19
				l-0.09,0.61l-1.6,1.84l-1.14-0.07l-1.58-2.15v-0.62l0.82-0.87l0.56-0.12L149.88,184.69z M152.53,143.39l0.4,0.84l-0.6,0.96
				l0.7,1.34l0.37-0.06l0.36-0.84l1.07-1.27l0.69-0.32l2.11,1l-0.39,2.33l-1.08,1.06l-0.44,0.03l-0.99-0.46l-0.77-1.06l-0.66,0.59
				l-0.43,2.17l-0.69,0.28l-0.81-0.22l-0.34-0.46l1.17-1.03l-0.59-3l-1.36,1.33l-0.23,0.91l-0.67,1.02l-1.01,0.9l-0.81,0.06
				l-0.57-1.37l-0.62-0.46l0.01-0.72l0.421-1.55l1.08-1.46l0.28-0.34l0.37-0.03l0.62,0.37l1.98-0.72l0.52,0.59l0.38-0.74
				L152.53,143.39z M123.85,108.46l2.07-0.21l1.04-0.69l0.27,0.18v0.36l-0.16,0.24l-0.699,0.15l0.83,1.39l1.27,1.03l0.56,0.14
				l4.84-0.65l0.92,1.2l1.02-0.68l1.97,0.64l0,0l-2.12,0.69l-0.44,0.51h-0.32l-0.35,0.78l-0.77-0.59l-0.41-0.67l-0.72,0.12
				l-0.66,0.51l-2.69,1.06h-1.22l-0.41,0.35l-1.12-0.04l-0.75-0.43l-0.3,0.34l-0.01,0.82l-0.44,0.08l-0.82-0.32l-0.89,0.32
				l-0.3,0.29l-0.04,0.89l-0.27,0.15l1.13,1.28l1.48,0.31l0.15,1.23l-0.24,0.43l0,0l-1.16-0.35l-1.46,0.37l-0.52,0.69l-1.69-0.2
				l-1.29,0.3l-3.17-1.48l-2.86-0.16l-2.38,1.04l-1.43,1.44l-1.79,2.62l0.3,0.28l-0.46,0.7l-0.17,1.78l-0.5,0.53l-0.41-0.06
				l0.06,1.14l-0.39,0.84l-0.04,1.15l0.86,2.42l-0.349,2.59l0.24,0.6l3.17,4.14l0.71,0.21l0.92-0.5l0.68,0.83l0.93,0.09l1.2,1.98
				l-0.34,1.77l0.67,0.58l0.85,1.82l0.43,0.05l0.699-0.36l0.22-0.47l0.431-0.19l0.57,0.01v0.61l0.6,0.439l1-0.14l2.05,0.25l1.18-1.3
				l0.92-1.83l1.9-2.35l1.31-1.07l0.56-1l1.5-0.53l0.18-0.79l0.43-0.13l0.56,0.23l-0.29,1.25l0.21,0.31l1.16,0.55l1.84,0.21
				l0.77,0.33l1.12-0.74l0.63-0.12l1,0.25l0.43-0.43l0.34-1.66l1.27-0.49l0.82,0.36l2.27-0.84l3.15,0.45l3.639-0.23l0.59-0.3
				l-0.06-0.23l-1.21-0.43l-1.68-0.16l-0.37-0.49l1.25-0.53l2.81-0.15l0.92-0.68l2.241,0.09l1.299,0.5l1.43,0.77l0.62,1.62
				l-0.12,1.04l-0.68,0.78l-0.3,1.64l-0.69,0.75l-1.3-0.32l-1.06-1.23l-0.27-0.76l-1.23-0.29l-3.64,0.53l-0.86,1.84l-1.11,1.2
				l-0.86,1.46l-1,0.8l-2.72,3.06l-3.16,1.76l-2.22,0.28l-0.86,0.56l-1.69,0.33l-0.56,0.42l-0.85,2.02l-1.14,0.94l-1.86,0.12
				l-1.33-1.6l-1.641-0.71l-0.429,0.22l-0.16,0.84l0.71,2.13l0.32-0.25l0.91-0.05l2.02,2.72l0.72,0.29l0.77-0.14l0.65,0.2l1.75,1.83
				l1.86,3.27l0.62,2.14l4.21,3.19v0.58l-0.65,1.25l1.58,1.44l0.67-0.09l0.78,0.58l-0.95,1.08l-0.82-0.22l-0.29,0.27l0,0l0.01-0.53
				l-0.59-0.11l-0.33-0.88l-0.47,0.08l-0.72-0.66l-0.02-1.02l-0.91-0.18l-0.41-0.58l-1.86-0.27l-0.56,0.28l-3.87-1.38l0,0l1.26-2.09
				l0.77-0.37l-1.02-2.15l-0.53-0.42l-0.38,0.05l-0.55-0.85l-1.22-0.23l-1.06-0.83l-1.3-0.05l-0.8-0.49l-1.45-0.25l-4.79-1.94
				l-0.85-0.13l-0.39,0.11l-0.07,0.28h-0.71l-0.64-0.28l-1.08-0.57L113.8,157l-2.39-3.34l-0.25,0.1l-0.71,2.43l-1.13-0.49h-1.52
				l-0.7-0.32l-0.1-0.49l-1.52-0.03l-1.58,1.16l-0.33-0.45l0,0l-0.19-0.75l0.3-0.18l-0.12-2.61l-1.25-0.02l-0.33-0.23l0.38-0.8
				l-0.37-0.65l-0.33-0.1l0.08-0.53l-0.869-0.83l-0.23-0.71l0.54-0.7l-1.11-0.84l-1.33,0.45l-1.3-1.14v-0.22l1.04-0.349l-0.09-0.21
				l-0.47,0.17l0.16-0.32l1.31-0.16l0.61-1.811l-0.02-0.42l-0.32,0.07l-0.08-0.21l-0.33-1.93l0.11-2.03l0,0l1.63-1.32l0.13-0.84
				l0.77-0.5l1.41,3.2l0.42-0.43l-0.18-1.97l-0.69-0.9l-0.699-2.38l0.13-2.17l0.79-2.03l-0.27-1.01l-1.15,0.36l-0.27-0.13l-0.6-0.41
				l-0.83-1.54l0.93,0.16l-0.07-0.49l0.73,0.37l0.43,0.35l-0.04,0.34l0.6,0.74l0.6,0.14l0.57-0.66l0.33-0.84l-0.03-1.38l-1.52-1.99
				l0.35-0.23l1.46,0.27l-0.2-1.04l-0.52-0.79l0.84-1.81l1.81-0.78l0.12-0.65l-0.31-1.4l0.17-0.72l0.62-0.53h0.64l1.47-0.82
				l0.44-2.29l0.52-0.38l0.77,0.17v1.72l1.18,0.78l2.27,0.42l0.49-1.64l0.53-0.86l0.59-0.62l0.94-0.33l0.69-0.73l0.4-1.92
				l-0.16-1.18l0.16-0.65l1.78-0.27l2.1,0.26L123.85,108.46z"/>
			<path fill="#9FC677" stroke="#FFFFFF" stroke-width="0.5726" d="M-132.23,195.9l0.55-0.04l0.03,0.43l0.36,0.02l0.31,0.41
				l-0.02,0.45l-0.38,0.52l0.91,0.61l0.42-1.04l0.42,0.32l1.4-0.32l0.98,0.47l1.3-0.83l1.6,0.3l0.67-1.09l-0.63-0.82l-0.02-0.69
				l-0.45-0.27l0.25-0.66l0.56-0.54l-0.18-2.28l0.55-1.09l1.13-0.96l0.52,0.04l2.15-1.31l0.51,0.47l1.86,0.1l1.26-0.21l0.07-0.29
				l0.97-0.47l1.05-0.18l0.87-0.79l0.29-0.81l0.57-0.32l-0.24-0.29l0.37-0.37l0.25-0.9l0.32,0.04l0.1-0.43l0.47-0.22l0.56,0.2
				l0.6-0.54l0.2-0.4l-0.22-0.53l0.76-1.129l0.4,1.02l0.74-0.29l0.26,0.07l0.08,0.6l1.31,0.18l-0.12,0.67l0,0h0.45l0,0l0.29,0.23
				l-0.05,0.39l0.56,0.07l0.089,0.27h-0.32l0.61,0.79l-0.4,0.7l0.79-0.11l-0.2,0.5h0.55l0.3,0.79l0.63,0.06l0.49-0.38l0.66,0.69l0,0
				l-0.22,2.27l1.19,2.31l-0.03,1.05l-0.3,0.7l0.4,0.71l-0.53,1.02l-0.36,1.58l0.61,1.56l-0.46,0.41l-0.26,1.04l0.02,3.03l-0.7,1.17
				l-0.18,3.18l0.16,0.61l-0.56,1.79l0.02,1l-0.34,0.88l-0.93,1.03l-0.1-0.81l-1.69-0.41l-0.03-1.34l-0.47-0.46h-0.45l-1.3-0.85
				l-0.67-0.66l-1.13-2.04l-0.27-0.06l-0.45,0.39l-0.17,1.71l-0.61-0.21l-0.52,0.35l0.32,0.68l0.27-0.01l-0.42,0.28l0.52,0.74
				l-0.62,0.11l-0.32,0.33l0.2,0.39l0.64-0.07l-0.45,0.45l-0.48,0.08l-2.78-1.36l-2.49-1.61l-1.24-1.28l-1.34-0.25l-0.74,0.34
				l-0.4,0.34l1.78,2.38l-0.17,0.38l0.94,1.49l0.23,1.23l-0.08,0.16l-2.1,0.11l-0.35-0.37l0.26-0.13l-0.13-0.61l-1.72-1.63
				l-0.33-0.6l-1.66-0.98l0.29-0.39l-0.76-0.97l-2.43-1.75l-1.2-1.44l-0.07-0.87l-1.36-0.49l-0.02-0.36l0.46-0.46l-0.44-0.8
				l-0.5-0.18l-1.19-1.16l-0.59,0.11l0.08-0.59l-0.64-0.56l-0.601,0.03l-0.97-0.57l0,0l0.171-0.44l1.57-0.9l0.12-0.43l0.78-0.05l0,0
				L-132.23,195.9z"/>
			<path fill="#B5B5B5" stroke="#FFFFFF" stroke-width="0.5726" d="M233.51,246.32l-1.31-0.06l-1.2-0.6l-0.12-0.28l0.91-0.32
				l1.14,0.06l0.84,0.43l0.02,0.43L233.51,246.32z M216.58,243.91l1.52,0.54h2.19l0.37,0.44l-1.59,1.43l-3.16-1.18l-0.51-1.1
				L216.58,243.91z M259.5,247.55l-0.57,0.04v-0.19l1.44-1.44l1.08-0.56l1.36-1.65l2.36,0.59l-0.56,0.52l-2.73,1.02l-0.96,0.64
				l-0.15,0.37L259.5,247.55z M244.66,243.32l-1.05-0.25l-1.48-1.95l0.07-0.94l0.36-0.57l1.38-0.18l2.01,0.72l0.21,1.21
				L244.66,243.32z M200.58,237.68l0.68,0.01l0.3,1.12l-1.19,0.05l-1.45,0.42l-1.67,1.54l-1.28,0.65l-5.16-0.67l-1.96,0.4l-1.97,1.5
				l-0.4-0.16l0.73-2.24l2.5-2.81l3.05,0.92l2.26-0.39l1.1-0.9l3.09-0.97l0.2,0.68L200.58,237.68z M210.44,237.38l-0.51,0.05
				l-0.18-0.34l0.41-1.67l0.31-0.2l1.4,0.46l0.04,0.22l-0.15,0.59L210.44,237.38z M264.21,235.35L263.1,235l-0.17-0.45l0.29-0.4
				l2.6-0.24L264.21,235.35z M274.2,230.96l-0.95,0.2l-0.54,0.42l0.37,3.34l-0.85,2.14l-0.91,1.09l-2.62,1.82l-0.92,1.34l-0.3,1.34
				l-0.4,0.2l-2.81-0.44l-0.23-1.92l1.71-2.63l-0.17-0.43l1.03-2.38l2.27-1.72l1.11-1.25l1.27-2.01l0.66-0.34l1.1-0.12l0.81,0.41
				L274.2,230.96z M277.02,229.49l0.79,1.65l-0.41,0.48l-0.68-0.48l-0.3-0.75l-0.83-0.15l-1,0.22l-0.53-0.27l0.36-0.57
				L277.02,229.49z M229.2,230.95l-0.42,0.15l-1.23-0.79l-0.11-0.52l1.35-0.92l1.14,0.63L229.2,230.95z M321.02,218.52l-1.56,3.08
				l-0.61-0.15l0.27,1.2l-0.56,0.16l-0.75,1.45l-0.72,0.42l-0.45-0.37l0.08-0.38l0.44-0.39l0.77-1.85l-0.44-0.22l-0.13-1.17
				l1.21-0.609l0.15-0.8l0.6-0.28l1.15-1.11l0.68,0.28L321.02,218.52z M290.3,212.49l-0.53,0.21l-1.03-0.58l-0.02-2.85l-0.24-1.41
				l0.95-0.27l1.4,2.9l-0.05,0.95L290.3,212.49z M319.03,208.8l0.34,1.77l-0.54,0.11l-0.01,0.25l1.08,0.56l-0.03,0.28l-0.49,0.3
				l-0.63-0.28l0.25,1.19l-0.54,0.06l-0.51-0.42l-0.16,0.36l1.65,1.64l-0.7,2.72l-0.61,0.94l-1.7,0.64l0.261,0.83l0.429,0.28
				l-0.079,0.42l-0.97,0.83l-0.74-0.22l-0.28,0.14l-0.22,0.47l0.07,0.28l0.43-0.14l-0.05,0.42l-0.58,0.85l-1.8,1.66l-0.06,0.56
				l-0.45,0.52l-2.04,1.03l-0.38-0.05l-0.26-0.74l-0.27-0.25h-0.58l-0.58-1.11l0.601-1.74l0.34-2.61l0.57-1.83l-0.33-2.75l0.56-0.06
				l-0.31-1l0.24-0.89l0.37-0.3l0.12,0.42l1.08-0.22l0.22,0.699l0.69-0.47l0.5-1.11l-0.36-0.66l1.28-1.67l-0.29-0.3l-0.43,0.251
				l-0.59-0.49l-0.7-0.09l-0.4-0.44l0.07-0.28l0.56-0.58l1.12,0.56l1.129-0.84l0.601-1.381l0.66-0.42l0.1-1.64l0.8-1.03l0.54-0.14
				l1.44,1.92l0.35,0.83l-0.02,0.94l0.66,0.89l-0.081,0.42L319.03,208.8z M292.98,211.47l-1.78,1.96l1.56-4.47l0.83-0.97l2.09-4.7
				l0.83-0.07l0.25,0.59l-1.31,3.69l-1.21,0.96l-1.05,1.35l-0.28,0.85L292.98,211.47z M229.54,178.84l-1.77,0.34l0.15-1.42
				l0.45-0.33l1.02,0.1l0.76,0.77L229.54,178.84z M231.05,177.45l0.68,0.24l0.32-0.55l0.22,0.03l0.2,1.66l-1.41,0.1l-0.99-1.68
				l0.41-0.19L231.05,177.45z M226.79,178.96l-0.57,0.98l-0.86,0.71l-1.8,0.51l-0.32-0.03l1.77-1.82l-0.23-0.1l-3.15,1.92
				l-0.63-0.04l-0.341-0.45l-0.01-0.71l0.79-0.83l0.93-0.58l2.3-0.44l0.67-0.8l0.601-0.25l1.06,0.59L226.79,178.96z M216.64,175.19
				l-1.62-0.47l-0.57-0.58l0.64-0.5l0.66,0.08l1.15,1.3L216.64,175.19z M218.73,173.58l-1.46-0.01l-0.5-0.42l1.049-0.93l0.7-0.11
				l0.48,0.39l-0.06,0.95L218.73,173.58z M207.4,171.99l1.55,1l0.15,0.81l-0.86-0.04l-0.2,0.31l0.16,0.62l0.61,0.57l0.73-0.44
				l1.67,0.55l-0.44,3.48l-0.31,0.54l-1.63,0.14l-3.54,1.7l-2.55,0.78l-4.49-1.81l-2-1.37l-2.82-2.74l-0.37-1.1l-0.06-2.42
				l0.24-0.47l1.06-0.71l0.34,0.08l0.83,0.91l0.51,0.02l1.06-0.95l1.95-0.5l4.69-0.19l1.3,0.22L207.4,171.99z M248.4,168.55
				l3.23,1.3l4.65-0.27l0.56,0.14l3.05,2.2l0.56,1.53l0.18,1.91l0.36,0.44l1.72,0.15l0.53,0.54l0.63,2.01l-0.07,0.52l-0.53,0.72
				l-0.171,2.82l-3.09-1.22l-0.82-0.89l-2.29-1.36l-3.82-1.3l-2.06-1.06l-0.45-0.62l-0.01-0.72l-0.98-0.64l-5.43-0.54l-0.25,0.27
				l0.089,0.45l0.75,1.201l-0.23,0.48l-0.4,0.1l-3.95-0.82l-1.99-0.91l-2.43,0.1l-0.27-0.22l0.75-0.85l0.04-0.57l-0.57-0.41
				l-0.74-0.11l-1.65,1.02l-2.37,2.28l-2.09,0.35l-0.95-0.58l-1.43-2.2l-1.219-0.84l-0.47-1.99l-0.58,0.02l-0.68,0.67l-0.55,1.27
				l-0.33,1.88l-0.41,0.54l-0.36,0.09l-0.82,1.41l-0.32,1.17l-0.12-0.21l-0.19-0.88l0.47-0.97l0.12-1.05l-0.7-1.14l-0.35-1.15
				l1.9-1.45l2.83-3.34l9.93,0.12l1.81-0.4l0.75-0.6l0.31,0.03l0.37,0.46l-0.06,1.14l0.9,0.78l1.17-0.24l1.98-1.24l0.44-0.81
				l2.21-0.31l3.53,1.31L248.4,168.55z"/>
			<path fill="#81C83D" stroke="#FFFFFF" stroke-width="0.5726" d="M-84.39,212.5l0.97,0.74l1.87-0.42l0.76,0.21l1.67,2.52
				l2.23,0.63l0.69,0.79l0.37-0.28l0.59,0.09l1.13-0.66l0.53,0.01l0.08,0.36l0.53-0.28l-0.07,0.64l3.41,1.41l1.23-0.92l-0.33-0.6
				l0.53,0.28l1.13-0.02l0.52,0.38l0.2-0.47l0.45,1.62l1.07,1.26l1.12,0.68l0.23,3.04l0.5,0.96l0.5,0.13l0.24-0.29l0.4,0.22
				l0.05,0.48l0.97,0.24l0.8-0.39l0.06-0.31l-0.26-0.09l0.21-0.23l0.39-0.02l0,0l-0.11,1.23l-1.11,1.29l0.05,0.96l0.53,0.31
				l-0.28,0.5l-0.06,0.88l-0.81,0.26l-0.42,0.48l-1.06-0.2l-0.84,0.4l0.16,1.14l-0.43,0.67l0.04,0.69l0.32,0.18l0.99-0.07l0.41,0.4
				l0.51,0.9l-0.06,0.75l0.48,1.1l-0.35,0.8l0.95,0.82l0,0l-0.59,0.36l-1.04-0.3l-0.41,0.26l0.1,0.52l-0.39-0.61l-1.66,0.14
				l-0.36,0.33l-0.12,0.93l-0.39,0.27l-1.96,0.2l-3.73-0.64l-1.28-0.44l-2.1-0.09l-0.58-0.71l-1.66-0.31l-0.24-0.61l-1-0.73
				l-2.09-0.92l-3.25-0.37l-1.68-0.44l-7.95-0.55l-1.83-0.84l-0.47,0.16l-0.32-1.85l0.52-0.77l0.75-0.16l-0.08-0.74l0.81-0.5
				l0.57-0.71l-0.03-0.76l-0.41-0.43l-1.03-0.12l-0.68,0.41l0,0l-0.01-1.16l0.58-0.58l0.089-0.59l1.17-0.81l-1.19-1.22l0.14-1.45
				l-0.43-1.04l0.13-0.8l0.75-0.36l-0.32-1.17l0.59-0.54l0.27,0.089l0.16,0.54l0.45-0.03l-0.16-0.4l0.85,0.23l0.24,0.3l2.46-0.01
				l0.17-0.52l0,0l0.04-0.12l0,0l0.44-0.04l-0.13,0.69l0.77-0.21l0.85,0.37l0.21-0.79l-0.18-0.78l0.53-0.15l0.38-0.72l0.12-1.67l0,0
				l0.47-0.26l-0.2-0.35l0.37-0.23l-0.31-0.4l0.39-0.77l-0.38-0.21l0.52-0.34L-84.39,212.5z"/>
			<path fill="#9FC677" stroke="#FFFFFF" stroke-width="0.5726" d="M-132.27,195.93l-0.22-0.79l-1.16-0.18l0.35-0.42l-0.38-1.09
				l-0.52-0.42l-0.66-0.03l0.61-0.53l-0.89-0.869l0.73-0.89l-0.24-1.03l-0.47-0.15l-0.84,0.3l-0.73-0.77l-1.43-0.1l-1.01-0.85
				l-1.6-0.26l0.03-1.37l-0.771-1.72l-0.57-0.24l-1.86,0.06l-0.72-0.66l-0.52,0.24l-0.64-0.17l-2-1.66l-0.46-0.68l-0.57-0.17
				l1.74-0.85l0.12-0.96l0.97-0.9l0.09-1.22l0.57,0.22l0.73,1.01l0.77-0.58l0.59-0.8l0.28-1.78l-0.17-0.38l-0.66-0.08l-0.7,0.27
				l-0.09-0.73l-0.47,0.21l-0.7-0.12l-0.46-0.77l-2.18,0.97l-0.73-0.3l-1.39-1.28l0.18-0.42l-0.19-0.13l0.11-1.03l-0.23-0.62
				l-0.52-0.49l-0.82-0.19l-0.98,0.34l-0.91-0.49l-0.56-1.54l-1.21-0.81l-0.11-0.6l-0.7-0.45l-0.17-0.5l0,0l0.43,0.12l0,0l0.35-0.61
				l1.38-0.41l0.35-0.37l0.08-0.61l0.47-0.21l0.71,0.44l0.42-0.17l0.91,0.72l0.58,0.14l0.71,0.13l0.86-0.44l0.41,0.17l0.7-0.99
				l1.45-0.91l0.47,0.1l0.38-0.3l1.33-1.81l-0.5-0.84l0.49-0.71l2.21,0.51l0.251-0.44l1.18,0.54l1.31-0.51l-0.13-0.61l-0.57-0.58
				l1.04-1.42l0.68,0.37l0.06,0.65l0.67,0.84l1.72,1.29v-2.48l1.51-0.64l-0.46-0.4l0.31-3.06l0.93-0.81l1.85-0.68l1.4-0.07
				l0.251-0.44l0.609-0.3l1.23,0.5l1.05-0.15l0.91,0.23l1.93-0.63l1.68-0.14l0.27-0.36l-0.07-0.64l0.4-0.36l0.46-0.09l1.08,0.44l0,0
				l0.53,0.83l0.13,0.76l-0.84,1.38l0.18,0.96l0.62-1.08l0.35,0.06l2.79,1.98l1.16,0.05l0.79,0.97l0.2,1.72l-0.9,0.93l-0.27-0.06
				l-0.51,0.41l-0.97,1.51l0.74,0.13l1.12-1.37l0.89-0.19l0.36,0.67l0.96,0.05l1.69,0.65l1.26-0.699l2.03,0.71l3.95,0.27l0.23,0.51
				l-0.41,1.46l0.21,1.2l0.73,0.861l1.55,0.28l0.17,0.52l-0.19,1.69l0.511,1.09l0.59,0.52l1.74-0.04l1.03,0.62l-0.02,1.88l0.63,1.66
				l-1.73,1.09l-0.95,0.98l-1.36,3.06l-0.15,0.95l0.19,0.76l1.45,1.01l0.33,0.82l-0.2,0.72l-1.33,2.25l-0.23,1.39l-0.24,0.31l0,0
				l-0.67-0.69l-0.48,0.38l-0.64-0.06l-0.29-0.79h-0.55l0.2-0.5l-0.79,0.11l0.39-0.7l-0.61-0.79h0.32l-0.089-0.27l-0.56-0.07
				l0.05-0.38l-0.29-0.23l0,0h-0.45l0,0l0.13-0.68l-1.31-0.18l-0.08-0.6l-0.26-0.07l-0.75,0.29l-0.4-1.02l-0.76,1.13l0.22,0.52
				l-0.19,0.41l-0.6,0.54l-0.57-0.2l-0.46,0.22l-0.1,0.43l-0.32-0.05l-0.25,0.91l-0.37,0.36l0.24,0.29l-0.58,0.32l-0.29,0.81
				l-0.861,0.79l-1.05,0.18l-0.97,0.48l-0.07,0.29l-1.26,0.21l-1.86-0.1l-0.51-0.47l-2.15,1.31l-0.52-0.04l-1.129,0.96l-0.55,1.09
				l0.18,2.27l-0.56,0.55l-0.25,0.65l0.45,0.28l0.03,0.69l0.63,0.81l-0.68,1.09l-1.6-0.3l-1.3,0.84l-0.98-0.48l-1.39,0.33
				l-0.43-0.33l-0.42,1.05l-0.91-0.62l0.38-0.52l0.02-0.439l-0.31-0.42l-0.36-0.009l-0.03-0.43l-0.55,0.04l0,0L-132.27,195.93z"/>
			<path fill="#9FC677" stroke="#FFFFFF" stroke-width="0.5726" d="M-17.82,224.37l-0.47,0.31l-0.13,0.69l-0.56,0.08l-0.25,1.13
				l-0.62,0.57l0.8,0.56l-0.2,1.83l-1.21,1.66l-1.41,0.57l-0.33,0.75h0.39l-0.17,0.46l0.25,0.13l-0.09,0.22l-3.04-1.36l-0.37-0.46
				l-0.95,0.26l-0.16,1.45l-0.43,0.81l0.42,1.13l0.07,1.2l0.52,0.35l-0.25,1.49l0.67,0.57l0.81-0.04l-0.11,0.48l0.43,1.09
				l-1.01,1.36l-0.82-0.15l-0.05-0.24l-0.7,0.29l-0.21,1.29l-0.41,0.58l-0.45-0.26l-0.74,0.51l-1.05-0.27l-0.63,0.77l-0.19,1.44l0,0
				l-0.99-0.24l0,0l0.06-0.42l-0.32,0.02l0.23-0.51l-0.47,0.31l-0.19-0.15l0.08-0.63l-0.4-1.35l0.61-2.82l-0.23-0.15l-0.22,0.23
				l-0.55-0.49l-0.5,0.22l-0.15-0.27l-1.26,0.27l-0.16-0.29l-0.51,0.12l-0.61-0.39l-0.51-3.25l-2.1,1.57l-0.51,0.65l-0.32-0.76
				l-1.83,0.13l-0.05,1.33l-1.07,1.06l-0.32,1.07l-0.49-0.02l0,0l-4.4-1.35l-3.17-0.59l-1.02,0.21l-0.37-0.28l0.16-0.42l-1.55-0.35
				l-3.24-0.09l-0.66,0.54l-0.1,0.32l0.49,0.26l-0.17,0.2l-3.52-0.601l0.03-0.47l-0.2-0.07l1.16-0.64l-0.9,0.17l0,0l-0.95-0.82
				l0.35-0.8l-0.48-1.1l0.06-0.75l-0.51-0.9l-0.41-0.4l-0.99,0.07l-0.32-0.18l-0.04-0.69l0.43-0.67l-0.16-1.14l0.84-0.4l1.06,0.2
				l0.42-0.48l0.81-0.26l0.06-0.88l0.28-0.5l-0.53-0.31l-0.05-0.96l1.11-1.29l0.11-1.23l0,0l-0.02,0.41l0.44,0.42l1.36,0.4
				l0.22-0.34l1.14-0.35l0.3-0.33l0.09,0.75l0.53,0.52l2.13,0.38l2.37-0.32l1.5-1.02l0.77,0.85l1.24,0.14l3.11,1.02l1.92,0.01
				l2-0.64l0.42-0.44l0.64,0.2l0.39,0.69l0.98,0.5l0.84,0.26l0.97-0.21l0.09,0.19l0.52-0.19l0.66-1.55l0.86-1.05l-0.46-0.04
				l-0.12-0.19l0.341,0.06l-0.19-0.39l0.52,0.07l0.92-0.96l0.19-1.551l0.49-0.52l-0.23-0.27l0.86-0.8l2.69-0.66l2.02,0.341
				l0.75,2.59l0.52,0.72l1.44,0.51l1.94,0.19l1.2-0.51l0.17-0.41l0.42-0.23l1.14,0.35L-17.82,224.37z"/>
			<path fill="#B5B5B5" stroke="#FFFFFF" stroke-width="0.5726" d="M-57.21,150.59l-0.32-0.06l-0.48-1.23l0.13-0.25l1.34-0.4
				l0.53,0.12l0.46,0.52l-0.27,0.75L-57.21,150.59z M-47.14,140.84l1.33-0.2l0.72,0.5l0.56-0.46l0.4,0.21l0.53,2.03l-4.26,2.44
				l-1.1-0.36l-0.37-0.38l0.63-0.95l0.33-2.22l0.64-0.88L-47.14,140.84z M-45.67,96.3l-0.41,1.16l-0.55,0.82l-0.51,0.06l-0.04,0.41
				l0.15,0.54l0.73,0.8l1.01,0.25l0.13,0.3l-0.33,1.8l0.26,0.55l1.85,1.65l0.71,1.09l1.5,0.22l0.37,1.42l1.26,0.63l0.3,0.73
				l0.37,0.3l1.11,0.06l1.28,1.95l0.28,0.82l1.65,0.21l0.76,1.15l1.32,0.59l1.07-0.04l0.33-0.56l0.39,0.38l0.38-0.02l2.38-1.06
				l0.75-0.96l3.25-0.42l1.64-0.48l2.18,1l1.01-0.27l0.65,0.1l0.6,0.99l0.27-0.46l1.39-0.75l1.07,0.42l0.49-0.15l1.44,0.3l0.26-0.65
				l1.14-1.17l2.71-0.19l0.3-2.3l0.71-0.71l0.03-0.55l-0.36-0.55l0.42-0.46l1.43-0.67l1.32-0.3l1.39-0.79l2.45,0.31l1.39-0.1
				l0.77,0.35l0.93-0.69l2.01,0.23l0.55,0.59l-1.35,1.66l0.64,0.06l1.13-0.38l0.32,0.04l0.32,0.56l0.64,0.19l2,0.04l1.53,1.34
				l1.79-0.46l0.57,0.25l0.64,1.13l0.27,0.09l2.45-1.22l0.19-1.03l1.61-0.66l0.34-0.39l2.57-0.26l1,0.78l0,0l-0.03,0.01l0,0
				l-0.69,0.35l-0.09,1.45l0.18,0.16l-0.27,0.35l-0.17,1.18l-1.15,0.48l-0.85-0.08l-0.43,0.35l-0.08,0.56l-0.81,0.33l-0.08,0.31
				l0.4,0.6l-0.66,1.1l0.72,1.25l-0.43,0.53l-0.1,1l-0.56,0.23l-0.05,0.66l0,0l-0.43,0.24l-0.19,0.6l-0.94,1.07l-0.91,0.36
				l-0.22,0.92l-1.11,0.64l-1.44,1.49l-0.77,0.48l-1.17-0.22l-1.15,0.49l0.84,1.01l1.31,0.69l-0.12,1.13l0.46,0.51l-0.37,0.96
				l0.37,0.23l-0.3,0.67l-0.38,0.22l0.29,0.17l-0.07,0.28l-0.3,0.06l-0.71,0.92l-0.72,0.15l-1.22,1.5l0.66,0.6l0.16,0.66l-0.7,1.09
				l-0.47-0.47l-0.41-0.01l-0.12-0.3l-1.15,0.74l-1.13-0.12l-1.49,0.61l-0.57,0.54l-1.56,0.08l-0.07,0.73l-0.63,0.02l-0.21,0.36
				l-0.75,0.02l-0.51,0.48l-0.86,0.22l-0.71-0.13l-0.27,0.58l-0.31-0.22v-0.51l-0.32-0.12l-1.13,0.63l-0.35-0.15l-0.3,0.37
				l-0.88-1.43l-0.75-0.26l-0.7,0.97l0.12,0.66l-1.89-0.35l-0.16,0.15l0.21,1.21l-1.03,0.28l-0.72-0.57l-0.12,0.73l0.24,0.64
				l-0.56-0.13l-0.67,0.76l-0.85-0.06l-1.63,0.96l-0.5,0.03l-0.25,0.31l0.14,0.58l-0.79,0.54l-0.23,0.45l0.25,0.54l-0.22,0.41
				l0.28,0.24l-0.11,0.26l-2.4,0.55l-0.1,0.45h-0.26l-0.31,0.63l-0.53,0.28l-0.65,1.19l-0.93-0.19l-0.11,0.45l-0.32-0.12l0.03,1.21
				l-0.52-0.66l-0.7,0.41l0.27,0.71l-0.68,0.19l-0.31-0.36l-0.67,0.38l-0.41-0.33l-1.83,1.32l0.03,0.66l0.37,0.09l0.37,0.53
				l0.97-0.72l0.42,0.57l0.09,1.01l-0.54,0.98l-0.04,0.54l0.28,0.35l-0.33,0.66l0.41,0.55l1.22,0.12l-0.08,0.69l-0.6,0.5l0.52,1.28
				l-0.67,1.05l0.57,0.95l0.41,1.54l0.47,2.84l-0.29,0.7l0.67,0.21l0.12,0.38l-0.46,0.77l-2,0.69l-0.14,0.48l-0.53,0.44l-1,0.17
				l-1.7,0.75l-0.62,1.03l0,0l-1.14,0.65l-0.29-0.12l0.01-1.54l-0.3-0.73l-0.38-0.49l-0.54-0.05l-2.04,0.81l-1.67,1.35l-0.56-0.31
				l-0.4-1.26l0.57-1.41l-0.62-0.56l-0.13-1.4l-1.06-0.31l0.58-0.68l0.23-1.06l-0.82-3.21l-0.61-0.73l0.5-2.74l-0.57-1.52
				l-1.981-1.02l-0.65-0.63l0.17-0.779l1.14-0.66l0.59-1.01l0.58-2.82l-0.15-1.9l-0.73-0.76l-0.67-0.16l-0.73-0.92l0.45-1.19
				l-1.62-0.53l-0.98-1.36l-0.56-0.34l-0.62,0.41l-0.95-0.63l-0.59-0.87l-1.93-0.7l-0.4,0.11l0.16,0.71l-0.44,0.41l-1.45-0.48
				l-0.47-0.48l-0.38-0.75l0.18-2.2l0.68,0.41l1.64,0.32l0.88,0.53l0.02-0.43l-0.82-0.62l-0.73-0.03l-0.19-0.38l0.25-0.96
				l-1.53,0.14l-1.42-0.51l-0.61-0.68l-1.18-3.82l0.29-0.5l0.54-0.11l-0.14-0.68l0.95-1.51l0.33-1.36l-0.17-1l-0.71-1.6l-0.94-0.97
				l-1.96-0.47l0.4-1.32V120l-0.61-0.71l0.4-1.79l-0.24-0.78l-0.62-0.67l0.21-0.73l-0.64-0.75l0.13-0.37l1.02-0.5l0.56-0.59
				l0.32-0.96l-1.18-2.7l0.11-0.17l0.61,0.14v-0.64l1.11-1.56l0.19-0.67l-0.18-1.06l0.41-1.34l2.92-2.21l0.41-1.31l0.58-0.81
				l-0.13-1.62l1.56-0.16l0.65-0.54l1.42-0.03L-45.67,96.3z M-57.65,85.02l-0.98-0.57l0.77-0.65l0.24-0.88l0.4-0.15l0.39,0.37
				l-0.13,1.25L-57.65,85.02z M-102.91,85.2l-0.54-0.21l-0.33-2.27l0.24-0.77l2.18,1.19l-0.5,1.13L-102.91,85.2z M-65.63,73.02
				l-1.92,0.41l-1.25-0.69l0.49-0.71l1.04-0.76l-2.07-0.81l-0.86-1.56l-0.22-0.94l0.48-0.6l0.62-0.18l1.6-1.72l1.03,0.23l0.31,1.11
				l1.91,1.83l0.17,1.51l-0.17,0.66L-65.63,73.02z"/>
			<path fill="#9FC677" stroke="#FFFFFF" stroke-width="0.5726" d="M4.32,248.96l1.27,0.06l0.39,0.25l-0.16,0.31l-0.86,0.2
				l-1.21-0.11l0.05-0.44L4.32,248.96z M41.33,229.53l0.45,0.15l0.11,0.38l0.73,0.22l0.76-0.88l-0.3,1.3l-0.93,0.24l-1.07-0.54
				l-0.13-0.28l0.28-0.95L41.33,229.53z M21.21,230.53l-0.82-0.11l-0.64-0.46l-0.25-0.52l0.22-0.48l0.73-0.22l0.4,0.29l0.56,1.26
				L21.21,230.53z M39.65,227.49l0.58,0.59l-1.35-0.2l-0.36-0.54l0.24-0.28L39.65,227.49z M15.74,226.25l1.45,0.76l0.24,0.65
				l-2.58,0.71l-0.56-0.07l0.83,0.64l1.21,0.07l0.17,0.55l-1.34-0.16l-0.79-0.82l-0.62,0.62l0.14,0.7l-3.01-0.36l-0.52,0.32
				l-0.67,0.01l-0.771,1.41l-0.59,0.38l-0.11-0.37l-0.63-0.13l-3.97,0.08l-0.23-0.41l-0.29,0.05l0.18-0.41l-0.27-0.25l-0.34,0.37
				l0.43,0.61l-0.79,0.07l-3.36-0.96l-1.25-0.08l-0.9,0.22l-0.37-0.3l0.24-0.79h-0.24l-0.19-0.57l0.2-0.39l0.5,0.12l1.08-0.85
				l0.53-1.03l0.91-0.32l1.92-0.14l7.08,0.26l6.08-0.47L15.74,226.25z M34.55,225.47l2.66,0.4l1.22,0.71l0.19,0.37l-0.4,0.5
				l-0.73-0.19l-0.34-0.36l-0.87,0.13l-0.26-0.32l-0.86,0.12l0.93,0.93l-0.98,0.11l-0.37-0.31l-0.4,0.5l-0.54-0.53l0.42-0.46
				l-0.97,0.01l-0.11-0.26l0.18-0.52l0.64-0.34l-0.26-0.43L34.55,225.47z M-17.18,224.62l1.64,0.41l1.77-0.5l0.89,1.6l1.08,0.35
				l1.64-0.41l2.75-0.08l1.47,0.62l0.33-0.38l-0.18-0.25l0.22-0.44l0.43,0.22l0.24,0.59l0.41,0.23l-0.34,0.38l0.23,0.84l0.49,0.38
				l0.05,0.46l-0.49,1.03l0.62,0.6l-0.25,0.72l0.74,0.18l0.16-0.33l0.69-0.07l1.15,1.29l-0.24,0.64l0.16,0.08l-0.19,2.03l-0.31,0.05
				l0.75,0.82l-0.16,0.72l0.35,0.45l0.65,0.23l0.21-0.15l0.69,0.54l0.73-0.05l0.58,0.7l1.18,0.61l1.17-0.02l0.46,0.59l3.26-1.22
				l2.4,0.51l0.65-0.35l0.74,0.37l1.31-0.8l1.05,0.26l0.95-0.91l0.75-0.36l0.45,0.32l0.57,1.09l1.35,0.1l0.56-0.26l0.68,0.67
				l1.29,0.22l0.81,0.5l0.35,0.53l-0.04,0.77l-0.69,0.58l0.03,2.02l-0.79,1.86l0.05,0.62l-0.81,2.51l-0.07,0.48l0.31,0.71
				l-0.22,0.55l0.34,0.1l0.26-1.25l0.38,2.31l0.37,0.48l0.43-0.32l0.49,0.51l0.82,0.13l0.45,0.75l-0.26,0.65l-0.89,0.36l-1.35-0.46
				l-1.3-0.07l0.48-0.66l-0.11-0.48l-0.48-0.52l-1-0.46l-0.45,0.05l-0.27,0.62l-1.61-0.42l-0.91,0.25L14.5,251l-0.27,0.31
				l-0.52,0.04l-0.18-0.21l0.35-0.3l-0.22-0.27l-0.54,0.28l-1.18-0.38l0.04-0.34l-0.4,0.26l-0.1-0.81l-1.23,0.51l-0.02-0.61
				l-0.62,0.19l-0.62-0.76l-0.7-0.09l-0.09-0.21l-0.66,0.07l-0.64-0.31v-0.34l-0.3-0.13l-1.04,0.35l-0.72-1.11l-1.42-0.63
				l-3.01,0.32l-0.89,0.511l-0.78,0.86l-3.1,0.41l0.04,0.42l-0.33,0.11l-1.87-0.8l-2.45-0.39l-1.3-0.69l-0.51,0.26l-0.98-0.33
				l-2.12-0.07l-1.52-0.58l-0.02,0.29h-0.66l-0.57-0.5l-0.29,0.19l-0.94-0.2l0.03,0.89l-0.27,0.15l-0.28-0.03l-0.05-0.6h-0.29
				l0.07,0.44l-0.41,0.179l0.36,0.48l-0.43,0.11l-1-0.33l0.09-0.439l-0.63,0.18l-0.49-0.42l-0.22,0.39l-1.08-0.26l-0.1-0.65
				l-0.27-0.17l-0.58,0.31l-2.08-0.439l-0.45,0.29l-1.05,0.09l-0.67-0.48l-0.02-0.29l-0.24-0.01l-0.09,0.37l-0.84,0.09l-1.62-0.54
				l0,0l0.19-1.45l0.63-0.76l1.05,0.27l0.73-0.51l0.45,0.26l0.41-0.59l0.2-1.291l0.71-0.29l0.05,0.24l0.81,0.15l1.01-1.36
				l-0.43-1.09l0.11-0.47l-0.81,0.03l-0.67-0.57l0.26-1.48l-0.52-0.349l-0.07-1.2l-0.42-1.14l0.43-0.81l0.16-1.45l0.95-0.26
				l0.36,0.46l3.05,1.36l0.081-0.22l-0.24-0.13l0.15-0.46h-0.38l0.34-0.75l1.4-0.58l1.21-1.66l0.2-1.83l-0.8-0.56l0.609-0.57
				l0.26-1.13l0.57-0.08l0.12-0.68l0.47-0.32l0,0L-17.18,224.62z M-2.46,209.53l0.33,0.09l0.18,0.7l-0.18,0.69l-0.65,0.33
				l-1.38-0.01l-0.22-0.44l0.25-0.74l1.41-0.86L-2.46,209.53z"/>
			<path fill="#B5B5B5" stroke="#FFFFFF" stroke-width="0.5726" d="M-111.47,221.1l-0.4,1.54l-0.55,0.19l-0.38,0.48l-0.16-0.24
				l0.38-0.71l-0.27-0.22l0.04-0.35l-0.71,0.44l-0.06,0.26l-0.21-0.14l0.25-0.49l0.87-0.63L-111.47,221.1z M-89.64,214.88l1.5,0.29
				l0.63-0.35l1.19-0.07l0,0l-0.12,1.66l-0.38,0.72l-0.54,0.15l0.19,0.78l-0.21,0.79l-0.85-0.37l-0.77,0.21l0.14-0.69l-0.45,0.05
				l0,0l0,0l0,0l-0.45-1.25l-0.33-0.07l0.04-0.55l-0.5-0.28l0.06-0.94l0.51-0.22l0,0L-89.64,214.88z"/>
			<path fill="#B5B5B5" stroke="#FFFFFF" stroke-width="0.5726" d="M377.24,248.43l-4.45-0.53l-0.43-0.62l2.52-2.18l1.66-0.36
				l1.09,3L377.24,248.43z M373.28,246.15l-2.32,1.78l-2.28,0.7l-1.23-0.47l-5-0.33l-2.44,0.57l-0.45,0.3l-0.431,0.05l-0.179-0.35
				l1.69-3.96l2.93-4.96l2.29-2.96l2.62-1.76l2.11-0.8l4.08-0.74l1.78,0.09l0.95,0.46l1.27,2.03l1.1,0.21l0.47,0.82l-0.96,2.26
				l-1.1,1.58l-0.61,2.29l-1.56,1.49l-1.7,0.37L373.28,246.15z M375.09,223.95l0.49,0.42l1.08,0.2l0.63,1.02l-0.86,0.52l-0.62-0.24
				l-0.9-1.28l-0.09-0.43L375.09,223.95z M343.64,150.86l2.41,0.48l5.02,0.37l1.41,0.71l-0.37,0.39l-2.72,0.46l-2.16,0.7l-4.73-0.42
				l-3.38-0.81l-1.61-0.93l-2.14-0.65l-3.57-0.39l-0.9-1.08l0.79-0.23l0.99,0.32l9.34,0.66L343.64,150.86z M381.13,154.8l1.01,0.01
				l1.65,0.55l10.63,5.25l1.5,0.22l2.16-0.26l1.09-0.51l0.84,0.05l0.7,1.16l1.6,0.74l0.78-0.14l0.09-0.23l1.4,0.03l2.241,0.33
				l1.32,0.47l0.38,0.57l-0.73,1.24l0.38,0.32l1.42-0.4l2.66,0.06l-2.12,53.96l-0.58,0.06l-0.66,1.66l0.24,0.71l-1.34,1.9
				l-0.101,0.68l0.091,1.57l0.4,1.01l0.64,0.69l0.84-0.15l-2.27,32.44l-2.32-1.2l-1.11-1.54l-2.01-1.99l-1.34-2.48l-6.2-5.27
				l-0.89-1.1l0.02-0.81l1.23-0.96l1.44-2.69l-1.41,0.59l-0.33,1.85l-1.88,0.88l-4.32,0.15l-1.38,0.76l-2.41,0.42l-0.58-0.06
				l-0.7-0.46l-0.76-1.17l-2.01,0.73l-1.69,1.17l-0.59,1.08l-0.42,0.05l-0.9-2.44l1.08-1.34l0.23-1.81l1.22-0.66l0.29-1.55
				l0.87-1.87l0.6-0.58l0.04-0.43l-2.25-1.42l-0.92-1.84l-2.7-1.64l-0.1-0.33l3.97,0.02l1.641,0.71l1.84-0.18l0.75-1.11l-0.92,0.59
				l-1.74,0.16l-2.79-0.861l-1.4-0.66l-2.31-2.13l-0.22-0.8l0.54-0.41l2.07,0.28l0.96-0.6l1.53-0.18l1.06,0.36l1.72,1.48l1.16-0.04
				l-1.39-0.5l-1.42-1.18l-1.5-0.38l-2.84-1.52l-0.16-0.92l0.56-0.15l-3.07-3.281l-0.97-1.81l-0.48-2.84l-0.92-1.86l0.11-1.7
				l-1.23-0.34l-0.62-0.56l0.37-0.5l2.4-1.14l-0.54-0.14l-1.37,0.21l-0.85,0.48l-1.37,0.19l-0.2-1.51l0.34-3.16l-0.46,0.74
				l-1.26-0.48l-4.03-2.95l-1.26-0.51l0.29-0.48l-1.1-0.01l-1.56-0.72l-1.981-1.72l-0.86,0.37l-2.98-0.85l-2.63-0.35l-6.61-3.59
				l-1.49,0.02l-3.2-1.31l-0.88-1.12l-0.63-0.27l-2.98,0.05l-4.33-0.95l-2.83,0.44l-5.21-2.64l0,0l1.45-2l0.92-0.68l1.53-2.54
				l2.01-2.39l-7.089-2.6l-5.4-1.58l-2.79-1.16l1.02-2.13l0.85-1.03l1.4-0.81l0.25-1.65l1.32-0.68l2.14-1.92l0,0l0.47,2.1l0.38,0.31
				l1.18-0.53l0.37-0.73l0.38,0.03l-0.1,1.57l-0.42,0.37l-0.18,1.21l0.89,1.81l1.69,1.28l1.79,0.46l3.14,0.36l1.88-0.35l1.41-0.94
				l0.21-0.84l0.56-0.66l1.59-0.62l0.79-0.62l-0.37-0.49l0.35-0.43l2.12-0.9l0.45-0.67l0.32-2.3l1.07-1.23l2.31-0.96l1.07-0.85
				l1.34-3.04l-0.09-1.219l0.34-0.42l0.77-0.53l1.08-0.081l0.73,0.04l0.2,0.35l0.8,0.2l2.22-0.03l3.51-1.68l1.11-0.34l1.77-0.09
				l0.72-0.68l-0.52-1.52l-0.53-0.251l-0.75-0.869l0.18-1.04l3.29-1.33l3.82-2.2l3.54-1.24l1.25,0.22l1.87,1.7l5.12,1.83l3.53,0.84
				l1.28,0.81l0.62,0.86L381.13,154.8z M323.7,142.87l-0.82-0.01l-0.94-1.4l0.17-0.84l0.43-0.57l0.68-0.04l0.61,0.29l0.91,0.94
				l-0.08,0.88l-0.42,0.58L323.7,142.87z M331.89,136.11l2.8,0.23l1.36,0.91l0.82-0.64l0.46-0.06l3.1,2.48l1.86,2.73l1.06-0.19
				l1.75,0.96l-1.79,1.21l-1.559,0.34l-0.88-0.02l-1.14-0.67l-1.97,0.16l-0.74-0.74l-0.64-2.67l0.04-0.77l-0.48-1.04l-0.42-0.04
				l-1.53,0.72l-1.51-1.28l-0.55-0.13l0.06,0.46l-0.35-0.14l-0.84-0.8l-0.52-1.12l0.22-0.42L331.89,136.11z"/>
			<path fill="#B5B5B5" stroke="#FFFFFF" stroke-width="0.5726" d="M52.37,179.06l-0.15,0.17l-0.89-1.5l0.58-1.39l0.95-0.96
				l0.14,0.88L52.37,179.06z M48.23,184.92l-0.48,0.14l-0.51-0.23l0.43-1.73l-0.01-1.51l-0.73-1.05l-0.16-1.24l1.72-4.69l2.11-1.47
				l0.23,0.34l-0.35,1.94l0.18,2.23L51.26,181L51,183.05L48.23,184.92z M43.64,145.38l-0.22,0.83l-0.91,1.08l-0.21-0.06l0.13-0.66
				l-0.27-0.06l-1.67,1.93l0.15,0.3l1.02-0.12l0.24,0.33l-0.13,0.6l0.71,0.74l-0.04,0.69l0.699,1.1l0.1,1.58l-0.35,1.19l0.23,0.62
				l-0.18,0.51l0.44,0.21l0.42-0.12l0.63,0.42l-0.3,0.47l-0.17,1.28l0.57,1.46l-0.05,0.86l0.23,0.45l2-1.37l0.77,0.48l2.3,0.11
				l1.08,0.36l2.28,0.03l2.04,0.76l0,0l-0.36,1.58l-0.45,0.56l-0.341,0.01l-0.22-0.66l-0.64-0.33l-1.68,0.33l-0.06,1.37l0.84,0.77
				l0.11,2.62l-0.29,0.72l-1.21,1.52l-0.62,0.17l-0.35-1.3l-0.77-1.39l-0.28-0.05l-0.35,1.45l0.14,0.76l1.28,1.6l0.06,0.82
				l-0.66,0.33l-1.08,1.44l-1.35,2.42l-0.58,2.46l-2,0.43l-1.56,1.28l-11.91,4.72l-3.26,1.92l-1.05,0.13l-0.39-0.81l0.089-6.86
				l-1.71-2.29l-0.61,0.07l-1.28-0.74l0,0l0.01-0.77l0.71-2l1.28-1.93l0.37-1.9l1.34-2.54l1.15-0.47l0.23-0.71l1.02-0.179l0.4-0.51
				l0.3-1.52l1.03-1.11l0.17-0.8l0.48,0.03l5.04-3.6l0.6,0.21l0.53-1.79l-0.58-1.64l0.82-0.62l0.22-0.68l-0.55-0.78l-0.09-0.66
				l1.42-5.15l1.68-0.27l1.87-0.83l0.42,0.09l0.84-0.66l0,0L43.64,145.38z"/>
			<path fill="#B5B5B5" stroke="#FFFFFF" stroke-width="0.5726" d="M302.97,188l0.61,0.76l-4.15-1.88l-0.1-0.97L302.97,188z
				 M254.43,156.3l-1.04,0.03l-3.03-0.9l-2.54-1.32l-0.28-0.36l0.5-0.45l4.21-1.67l4.58-0.89l1.16,2.11l0.009,2.17l-0.8,0.52
				L254.43,156.3z M250.78,143.92l-1.44,0.46l-1.33-0.45l0.35-0.57l1.53-0.42l1.3,0.44L250.78,143.92z M264.97,139.29l0.49,0.65
				l1.48-0.35l0.58,0.87l-0.06,1.62l-0.51,2.25l-0.62,1.39l-0.52,0.32l-1.26-0.24l-1.71-1.43l-0.91-1.74l0.3-0.45l-0.23-0.62
				l-0.84-0.89l0.36-0.37L264.97,139.29z M265.24,137.83l-0.39,0.65l-1.38,0.59l-1.88,0.4l-2.79,0.04l-1.17,0.25l1.31-1.28l3.53-0.1
				l1.12-0.25l0.54-0.59h0.66L265.24,137.83z M260.72,134.21l-2.06-0.23l-0.14-0.82l2.32-0.84l0.68,0.23l0.49,0.6l-0.38,0.64
				L260.72,134.21z M304.06,137.29l2.57,0.04l0.07-0.47l3.3,0.08l1.88,1.53l-1.2,1.91l1.4,2.69l1.13,1.01l1.09,2.02l-0.68,0.73
				l-0.23,2.12l-1.96,1.75l0.45,2.99l0.32,0.72l-0.21,1.71l0.32,3.88l0.89,1.58l0.44,0.15l0.95,0.96l1.97,5.17l0.47,0.02l0.46-0.39
				l-0.69-3.01l0.19-1.49l0.81-0.81l1.48,0.75l0.21,0.77v3.65l0,0l-2.14,1.91l-1.33,0.68l-0.24,1.65l-1.4,0.81l-0.85,1.03
				l-1.03,2.13l2.8,1.16l5.4,1.58l7.08,2.6l-2.01,2.4l-1.52,2.53l-0.92,0.68l-1.46,2l0,0l-0.96-0.41l-2.2-1.9l0.64-2.56l0.37-0.19
				l2.1,0.27l0.86,0.38l0.81-0.57l-4.3-0.38l-0.83,0.63l-0.31,0.75l-1.11,0.24l-1.24-1.63l-0.97-0.24l-0.43,1.37l-0.55,0.28
				l-1.71-1.1l-0.28-0.61l0.47-0.93l-0.71-1.02l-0.21-0.1l-1.49,0.77l-1.46-0.79l-1.27-2.34l-0.55,0.37l0.1,0.82l-0.38,0.09
				l-1.02-0.66l-0.97-2.3l0.949-0.88l-0.12-1.981l0.41-1.219l2.19-1.61l0.06-1.08l-0.48-0.67l-2.54,2.54l-0.35,3.98l-1.46,0.72
				l0.63,1.07l-0.07,0.48l-2.79,2.39l0.07,1.01l0.49,0.44l0.13,0.54l-3.22,3.01l-2.76-0.21l-0.86,0.8l-1.14-0.28l-1.33-2.35
				l0.17-0.13l-0.11-0.51l-0.9-2.52l0.51-1.24l1.56-0.56l0.57-0.57l-0.61-1.22l-0.48,0.06l-0.39-0.33l-0.27-1.17l0.28-0.97
				l-0.76-0.53l-0.51,0.21l-0.171,0.87l-0.84-0.26l-0.95-1.31l-0.05-0.72l-0.49-1l-1.31-1.039l-2.77-1.54h-1.22l-1.61,0.41
				l-1.75-2.62l2.68-1.35l2.62-0.16l3.71,0.5l2.16,1.45l1.78-1.25l2.64-3.4l1.29-0.73l2.06-0.41l0.92,0.439l1.09,1.07l1.74,0.65
				l1.45-0.4l0.64,0.081l0.42,0.61l-0.03,1.91l0.21-0.29l0.25-2.64l0.51,0.1l1.06,1.98l0.1-1.71l-0.23-0.67l-0.33-0.21l0.88-0.81
				l1.09-0.52l0.62-0.88l-0.09-1.72l-0.36,0.89l-1.25,0.41l-0.73-0.63l2.32-1.25l-0.15-0.97l-0.86,0.14l-3.39,1.79l-3.03,0.03
				l-2.04-0.55l-1.42,0.19l-3.49,1.07l-0.92-0.05l-1.2-0.53l-1.88,0.88l-0.74-0.36l-0.32-0.86l-0.59-0.5l-1.74,0.44l-0.93,0.57
				l-1.38,0.13l-2.06-1.7l-1.66-0.95l-1.55-3.05l-0.05-0.94l0.65-0.7l-0.2-0.79l-1.06-0.95l-2.32-0.88l-0.26-0.55l-1.66-0.78
				l-4.61-1.54l0.82,0.79l0.03,0.32l-0.67,0.55l-1.17,0.42l-0.43-0.71l-0.96-0.38l-0.91,0.05l-1.24-0.76l1.43-2.32l1.74-0.349
				l1.039-1.77l0.56-2.6l-0.44-1.38l3.78-1.28l0.94,0.4l4.32-0.99l0.67-1.03l2.75-2.28l2.4-1.2l2.39-0.57l4.08,0.33l5.86,2.46
				l0.86,0.08l2.92,2.57L304.06,137.29z M264.69,126.63l2.41,0.69l1.42,0.13l2.34,1.34l0.32,1.53l-0.97,1.67l-1.26-0.7l-0.93-0.09
				l-1.87,0.44l-1.49-1.64l-1.24-0.49l-1.49-1.99l-1.09,0.13l0.19,0.7l1.469,1.56l2.77,1.11l0.37,0.62l-0.4,0.64l-0.99,0.47
				l-1.299,0.17l-0.73-0.51l-0.42-1.66l-1.33,0.3l-0.68,0.62l-0.45-1.63l-1.22,0.31l-1.01-0.12l-2.05-0.81l0.3-0.19l2.13,0.33
				l0.63-0.34l-0.4-0.7l-0.91,0.03l0.1,0.52l-0.72-0.16l-0.3-0.54l0.11-0.47l6.07-1.01l0.3,0.22l0.71-0.06l-0.24-0.23l0.47-0.29
				L264.69,126.63z M245.37,129.45l-0.27,0.13l-3.6-3.85l0.71,0.29l2.99,2.41l0.33,0.58L245.37,129.45z"/>
			<path fill="#B5B5B5" stroke="#FFFFFF" stroke-width="0.5726" d="M116.49,232.05l0.94-0.04l0.97,0.31l-0.3,0.39l-0.65,0.1
				l-2.65-0.43l-0.35-0.44l0.36-0.22L116.49,232.05z M113.08,228.57l0.92,0.46l0.4-0.23l-0.14,1.07l-1.42,0.19l-0.49-0.36
				l-0.16-0.54l0.18-1L113.08,228.57z M110.9,219.62l-0.39,0.79l-0.21-1.51l0.22-1.06l-0.29-2.09l0.09-3.61l0.41-1.76l0.37-0.3
				l0.91,3.74L110.9,219.62z M103.61,155.54l0.33,0.46l1.58-1.17l1.52,0.04l0.1,0.49l0.71,0.32h1.52l1.12,0.49l0.71-2.43l0.25-0.11
				l2.4,3.35l0.94,0.91l1.09,0.56l0.63,0.28h0.71l0.07-0.28l0.39-0.11l0.85,0.13l4.79,1.95l1.45,0.24l0.8,0.49l1.3,0.05l1.06,0.83
				l1.22,0.24l0.55,0.84l0.38-0.05l0.53,0.42l1.02,2.15l-0.77,0.37l-1.25,2.1l0,0l-1.3,0.49l-1.32,1.15l-1.02-0.13l-1.04-0.72
				l0.28-0.76l-0.49-1.14l-0.94,0.1l-0.601,0.48l-1.18-0.79l-1.38-0.35l0,0l0.37-0.39l-0.63-0.94l-3.68-0.86l-2.96,1.44l-5.47,3.66
				l0.91,2.53l1.58,1.02l0.43,0.74l-0.3,3.66l0.45,1.12l0.22,1.88l-1.43,2.851l-0.24,2.83l0.62,0.89l-0.53,3.15l0.52,1.54l0.29,2.69
				l-0.51,1.53l-1.23,1.02l-0.09,2l-0.7,2.34l1.61,2.92l0.88,4.03l-0.69-0.24l-1.1-1.49l-3.45,1.22l-2.43-0.48l-1.14,0.91
				l-0.24,0.63l-0.79,0.51l-1.63-0.04l-0.65-1.18l-2.3-0.81l-1.5-2.37l0.47-3.17l1.41-1.98l0.8-1.84l0.09-0.65l-0.41-1.97l1.6-2.49
				l0.53-3.46l0.1-1.98l-0.32-3.13l-2.071-3.96l1.04-1.92l-0.36-1.17l0,0l-0.7-3.34l-0.59-0.57l0.01-0.35l0.33-0.24l0.32-0.04
				l0.17,0.25l0.75-0.21l0.4-0.67l0.58-0.21l0.88,0.03l0.04-0.32L99,169.8l0.26-0.59l-0.28-0.8l0.2-1.6l0.28-0.64l0.63,0.25
				l1.32-0.36l0.61-0.66l0.19-0.62l1.07-0.77l0.2-0.5l-0.23-0.97l-1.38-0.59l-0.45-1.43l-1.27-0.62l0.05-1.09l1.52-1.08l0.51-0.67
				l0.61-0.08l-0.1-1.03L103.61,155.54z"/>
			<path fill="#B5B5B5" stroke="#FFFFFF" stroke-width="0.5726" d="M-29.98,169.8l0.64-1.03l1.69-0.74l1-0.18l0.53-0.44l0.13-0.48
				l2.01-0.69l0.45-0.77l-0.12-0.38l-0.67-0.22l0.29-0.68l-0.47-2.84l-0.41-1.551l-0.57-0.95l0.68-1.05l-0.53-1.28l0.6-0.5
				l0.08-0.68l-1.23-0.12l-0.4-0.55l0.33-0.66l-0.27-0.349l0.02-0.54l0.55-0.98l-0.09-1.01l-0.43-0.58l-0.96,0.73l-0.36-0.53
				l-0.37-0.09l-0.03-0.65l1.83-1.33l0.41,0.34l0.66-0.38l0.31,0.35l0.69-0.18l-0.27-0.71l0.69-0.42l0.53,0.67l-0.03-1.22l0.32,0.11
				l0.11-0.44l0.94,0.18l0.64-1.18l0.54-0.28l0.31-0.63h0.25l0.1-0.46l2.41-0.55l0.1-0.26l-0.27-0.23l0.22-0.41l-0.27-0.54
				l0.24-0.46l0.8-0.53l-0.14-0.58l0.26-0.31l0.49-0.04l1.62-0.95l0.86,0.06l0.66-0.76l0.57,0.13l-0.24-0.65l0.12-0.72l0.73,0.57
				l1.01-0.28l-0.2-1.2l0.17-0.16l1.88,0.36l-0.12-0.67l0.71-0.96l0.75,0.26l0.88,1.43l0.3-0.37l0.35,0.15l1.13-0.63l0.32,0.11v0.52
				l0.31,0.22l0.28-0.59l0.71,0.14l0.86-0.23l0.51-0.47l0.75-0.03l0.21-0.35l0.63-0.03l0.07-0.71l1.56-0.09l0.57-0.53l1.49-0.62
				l1.13,0.12l1.15-0.73l0.11,0.29l0.42,0.01l0.47,0.47l0.7-1.09l-0.16-0.65l-0.66-0.6l1.21-1.51l0.73-0.15l0.7-0.91l0.3-0.06
				l0.07-0.28l-0.29-0.17l0.38-0.22l0.29-0.66l-0.37-0.23l0.37-0.97l-0.46-0.5l0.13-1.14l-1.31-0.69l-0.84-1.01l1.15-0.49l1.17,0.21
				l0.78-0.46l1.43-1.5l1.121-0.64l0.22-0.92l0.91-0.35l0.94-1.08l0.19-0.6l0.43-0.24l0,0l0.77,0.28l3.09-0.81l0.62,0.38l0.28,0.82
				l-0.27,0.45l0.53,0.28l0.09,0.36h1.66l1.64,0.61l0.18-0.05l-0.06-0.56l0.57-0.38l0.84-0.03l0.18-0.86l0.66-0.03l1.16-1.09
				l0.74,0.04l0.69-0.51l0.75-0.14l1.02,0.73l-0.23-0.6l0.68-0.63l0.81,0.43l0.58,1.95l1.37,2.26l0.55,0.48l-0.04,0.6l-1.3,1.3
				l-0.43-0.42l-0.88,0.17l-0.32-0.23l-0.56,0.37l-0.45,0.95l-0.49,0.23l-0.38,0.7l-0.24,1.1l0.251,0.42l0.49-0.09l0.79,0.54
				l0.57,3.32l0.86-0.16l0.76,0.2l0.65-0.56l0.79-0.2l0.24-0.56l2.05-0.99l0.3,0.95l-0.72,0.71l-0.01,0.56l-0.46,0.81l0.21,0.78
				l-0.36,0.07l0.16,1.23l0.31,0.09l-0.18,0.92l0.8,0.67l0.33,0.87l0.42,0.37l0.2,2.61l0.34,0.85l1.42,0.25l1.16,1.41l1.11,0.71
				l0.37,1.05l0.35-0.04l0.62,0.49l0.16,0.58l0.19,0.12l0.56-0.34l0.64,0.56l-1.19,1.22l-0.2,1.1l0,0l-0.3,0.26l0,0l-0.84,0.66
				l-0.42-0.1l-1.87,0.84l-1.68,0.27l-1.41,5.15l0.08,0.66l0.56,0.77l-0.22,0.69l-0.82,0.62l0.57,1.64l-0.53,1.79l-0.6-0.21
				l-5.03,3.6l-0.48-0.02l-0.17,0.8l-1.03,1.12l-0.3,1.52l-0.4,0.5l-1.02,0.18l-0.23,0.72l-1.15,0.47l-1.33,2.53l-0.37,1.91
				l-1.28,1.94l-0.71,1.98l-0.02,0.77l0,0l-2.01-0.97l-1.56-0.42l-1.04,0.08l-3.06,1.45l-2.241,0.21l-0.89-0.55l0.44-1.32l0.09-1.33
				l-0.5-1.21l-1.91,0.12l-0.54,0.92l-1.08,0.24l-1.74-1.12l-2.57-2.75l-0.44-0.06l-1.27,1.35l-0.1,0.48l0.36,0.48l-0.27,0.84
				l-2.84,1.72l-1.61,1.3l-1.76,0.43l-1.64-1.32l-1.62-0.57l-0.88-0.01l-1.23,0.47l-3.19,2.97l-0.87,0.33l-1.21-0.5l0.6-1.92
				l-0.33-3.09l0.26-2.21l-1.11-2.05l-0.31-1.35l-0.4-0.06l0.05,0.68l-0.5,0.71l0.36,0.29l-0.09,0.38l-0.8,0.15l-1.32,0.92
				l-0.89-1.07l-0.98-0.54h-1.25l-3.64,1.92l-2.08,0.43l-1.81-1.3L-29.98,169.8z"/>
			<path fill="#B5B5B5" stroke="#FFFFFF" stroke-width="0.5726" d="M-180.04,170.91l0.12,1.12l-1.24,0.31l1.11,2.24l-0.32,0.42
				l-0.49-0.7l-0.53-0.25l0.17-0.14l-0.16-0.28l-0.65-0.23l0.06-1.48l-0.5-0.68l-0.5,0.06l-1.1-1.7l0.25-0.7l-0.31-1.88l0.88-0.31
				l1.13,1.46l0.75,0.45l1.4,1.59L-180.04,170.91z M-184.61,167.18l-0.03,0.33l-0.91,0.15l-0.44-0.39l-0.35,0.53l-0.36-0.31
				l0.12-0.28l-0.31-0.34l0.28-1.59l-0.26-1.15l-0.39-0.25l0.36-1.23l0.42,0.081l0.6,0.869l1.71,1.15l0.68,1.23l-0.16,0.64
				L-184.61,167.18z M-190.78,157.57l1.01,1.9l0.51,0.28l0.35,0.59l0.27,0.62l-0.15,0.3l-0.3-0.61l-0.51,0.17l-0.19-0.43h-0.67
				l-0.81-0.7l-1.16-0.08l-1.05-1.85l0.24-0.34l0.39,0.09l-0.25-0.34l0.04-1.06l0.45-0.37h0.51l1.11,0.96L-190.78,157.57z
				 M-202.01,140.2l0.27,0.84l-0.44-0.28l0.33,1.09l0.84,0.68l0.08,0.64l0.91,1.57l-0.11,0.25l0.48,0.56l0.02,0.53l0.98,1.12
				l0.08,0.59l-0.51-0.17l0.33,0.45l0.62,0.23l0.32,1.43l0.57-0.2l0.39,0.56l0.07,1.23l-0.28,0.42l-0.61-0.95l0.39,1.32l-0.37,0.33
				l-0.95-0.27l-0.91,0.44l-3.44-1.87l-0.67-0.92l0.17-0.28l-0.52-1.04l-2.89-4.34l-0.08-0.36l1-2.15l-0.02-0.9l0.54-0.56h1.66
				l1.24-0.67L-202.01,140.2z M-188.06,113.23l0.33,0.3l0.57-0.1l0.27,0.6l1.34,0.69l1.8,0.6l-0.17-0.13l0,0l0.9,0.36l0.4,0.62
				l-0.7,1.09l-0.07,0.79l1.08,2.23l0.13,1.34l0.99-0.39l0.32,0.12l0.33,0.23l0.65,1.46l2.4,0.66l0.92,0.03l1.12-1.12l0.55-0.19
				l0.45,0.27l0.32,0.84l-0.23,1.13l0.32,0.79l-0.07,0.72l-0.5,0.87l-0.45-0.37l-0.42,0.61l0.55,2.54l0.72,0.66l0.23,0.8l0.87,0.39
				l0.17-0.61l1.05-0.18l0.68,0.5l-0.18,0.89l0.59,1.3l1.7,0.81l0.1,0.35l0.92,0.69l1.44,0.52l-0.08,0.35l0.77,0.34l0.08,0.47
				l1.42,1.04l1.32,0.6l0.85,0.9l-0.02,0.24l1.49,0.58h0.75l0,0l0.2,0.12l0,0l0.04,1.59l0.44,0.37l0.4-0.15l-0.95,1.59l-1.33,0.29
				l-0.53,0.53l0.34,1.36l-0.36,0.58l0.35,0.5l-0.54,0.93l-1.7,1.04l-1.02,1.51l-0.84,0.22l-0.32-0.29l-1,0.12l-1.35,0.21
				l-0.48,0.29l-0.57-0.6l-0.28,0.32l-0.57-0.27l0.14,3.07l0.64,1.2l0.89,0.61l0.31,0.62l0.59,2.8l0,0l-0.21,0.45l0,0l-0.69,0.81
				l-3.29,2.16l0,0l-1.89-2.32l-0.32-1.35l-0.7-0.98l0.04-0.39l0.9-1.07l0.02-0.99l-0.37-1.41l-2.85-3.9l-0.74-2.01l-0.63-0.66
				l0.35-0.98l-0.36-0.82l-0.97-0.32l-0.67-0.63l-0.34,0.25l-0.32-0.1l0.12-0.52l0.37,0.06l-1.02-1.37l-0.02-0.24l0.28-0.02
				l-0.27-0.62l0.26-0.56l-0.91-2.95l-2.75-2.9l-1.15-1.92l-1.94-1.6l-0.41-0.79l-0.96-0.58l-0.32-1.15l-0.76-1.11l0.22-1.13
				l-0.49-0.73l-2.39-1.66l-2.51-0.93l-0.66-1.07l-0.68-0.09l-0.94,0.35l-1-0.35l0.78-1.18l1.3-0.36l1.26-2.02l1.44-0.76l0.89,0.36
				l1.24-0.43l0.5,0.9l0.53,0.39l0.7-0.36l1.3,0.26l1.03-0.36l0.56-0.69v-0.57l-0.56-0.43l-0.08-0.99l-1.06-0.2l-0.24-0.66
				l0.23-0.53l-0.07-1.76L-188.06,113.23z"/>
			<path fill="#B5B5B5" stroke="#FFFFFF" stroke-width="0.5726" d="M37.31,254.14l-1.3-0.54l-0.67-0.56l0.13-0.31l0.8-0.54
				l1.06,0.13l0.47,0.96L37.31,254.14z M21.75,243.75l0.84,0.71l0.58-0.31l4.31,1.06l2.05-0.33l1.48-1.23l1.08-0.28l3.76,1.42
				l1.52,0.98l0.99,1.37l1.06,0.59l0.01,0.58l-1.46,1.3l-1.69,0.82l-2.67,0.82l-0.89,0.78l-0.01,0.63l-1.17,0.66l0.41,0.55
				l0.12-0.31l0.15,0.59l-0.33,0.42l-0.92,0.26l-0.8-0.1l-0.14-0.29l1.24-0.76l-0.18-0.37l0.27-0.53l-0.27-0.42l-3.74-3.44
				l-2.49-0.74l-1.81,0.1l-1.89-2.57l-0.14-1.57l0.13-0.36L21.75,243.75z"/>
			<path fill="#B5B5B5" stroke="#FFFFFF" stroke-width="0.5726" d="M-209.42,129.93l0.35,0.03l0.6,0.69l0.46,1.2l-0.28,0.31
				l0.12,1.25l-0.38,0.35l0.26,0.82l-0.5,0.14l0.11-0.64l-0.71,0.15l-0.07,0.81l-0.76-0.69l-1.19-0.39l0.5-0.22l0.32,0.18l0.18-0.71
				l0.28-0.19l0.13-1.68l0.73-0.47l0.14-0.35L-209.42,129.93z M-209.88,126.34l0.09,0.19l0.27-0.19v0.41l0.93,1.09l0.18,1.51
				l1.18,1.07l-0.07,0.77l-0.37,0.22l0.12,0.67l-0.42-1l-2.22-3.1l-0.27-0.93l-0.81-0.4l0.84-0.39L-209.88,126.34z M-206.58,123.8
				l1.3-0.02l0.24,0.27l1.06-0.21l0.88,0.83l-0.03,0.48l-1.03-0.2l-0.45,0.36h-1.41l-1.79-0.47l-0.09-0.56l0.66-0.46L-206.58,123.8z
				 M-222.64,105.68l2.38,3.47l1.5,0.53l1.79,1.58l0.4,0.99l-0.59,1.36l-0.12,3.4l-1.1,1.35l-1.63-0.42l-1.29-3.46l-1.75-1.81
				l-1.2-0.21l-2.37-4.41l-2-1.94l0.63-0.26l1.38-0.06l1.17-1.04l0.93-0.2l1.26,0.46L-222.64,105.68z M-208.44,102.26l0.58,0.11
				l0.25-0.43l0.7,0.79l-1.66,0.02l-0.6-0.21l-0.16-0.42l0.4-0.53l0.5,0.21v0.46H-208.44z M-238.74,92.36l-1.73-0.3l-0.27-0.84
				l-3.49-2.27l-3.53-1.11l-1.73-1.62l-0.09-0.76l1.34-1.71l1.36,0.26l1.69,2.05l1.53,0.37l1.68,1.78l1.97,1.34l1.24,0.5l0.8,1.92
				L-238.74,92.36z M-213.6,95.12l0.49-2.35l-0.47-1.37l-0.71-0.29l0.05-0.6l-0.36-0.47l-0.16-0.85l0.18-1.19l0.52-0.17l-0.59-1.19
				l0.31-0.74l-0.19-0.48l-0.8-0.1l-0.52-0.89l-0.78-0.2l-0.41-2.32l0.68-0.05l0.06-0.81l-0.54-0.55l-0.06-0.63l-1.01-0.66
				l1.99-0.55l0.19-0.67l-0.33-0.6l-0.23,0.11l-0.56-0.38l-0.27-0.84l0.27-0.45l-0.48-0.34l-0.19-0.74l-0.63-0.3l0.01-0.62
				l-0.93-1.54l1.59-1.52l-0.21-1.19l0.63,0.3l0.07-0.55l1-0.55l0.3-2.18l0.38-0.57l-0.14-0.4l0.34-0.2l-0.17-0.94l0.8-0.03
				l0.27-0.37l0.64-0.18l1.01,0.01l0,0l0.15,2.28l0.67,0.88l1-0.03l2.23,1.09l0.72,1.1l1.48,0.37l0.31,0.49l0.13,1.15l1.84,1.19
				l1.89,0.61l1.52,0.83l3.38,2.11l1.02,0.89l1.03,0.4l0.79,0.55l0.94,1.37l3.19,1.48l3.21,2.92l0.23,2.13l-0.58,1.18l0.04,0.37
				l0.98,1.08l-0.22,0.22l0.42-0.13l-0.27-0.63l0.2-0.39l-0.8-0.42l0.78-0.53l0.34,0.06l0.61,0.64l-0.04,1.18l0.64,1.43l-0.26-2.01
				l0.74-0.75l0.52,0.02l1.65,2.28l0.2,0.47l-0.32,1.07l0.12,1.69l0.77,2.12l-0.97,5.36l0.24,0.26l1.6,0.29l0.21,0.66l-0.29,0.6
				l0.5,0.1l0.11,0.86l-0.42,1l0.04,0.93l-0.69,0.6h-0.67l-0.26,0.46h-0.9v0.3l-2.53,0.13l-0.33,0.23l0.88,1.29l0.17,1.34l0.81,1.06
				l-0.99,0.33l-0.03,0.36l0.33,0.14l0.3,0.86l-0.32,0.76l-0.64,0.03v0.2l0.37,0.39l0.36-0.03l0.01,0.96l-0.24,0.17l0.9,0.99
				l-3.14-1.29l-0.27-0.6l-0.57,0.1l-0.56-0.33l-0.5,0.3l0.08,1.75l-0.24,0.53l0.24,0.66l1.07,0.2l0.07,0.99l0.56,0.43l0.01,0.57
				l-0.57,0.69l-1.03,0.37l-1.3-0.27l-0.7,0.37l-0.53-0.4l-0.5-0.9l-1.23,0.43l-0.9-0.36l-1.43,0.76l-1.26,2.02l-1.3,0.36
				l-0.79,1.18l-0.18-0.08l-0.22-0.18l0.27-0.12v-0.74l-0.67-0.4l0.35-0.98l-0.5-2.49l-3.93-10.54l-1.14-2.57l-0.71-0.89l0.17-0.27
				l0.38,0.4l0.32-0.07l0.71-1.12l0.01-0.7l-1.44-1.66l-0.41,0.26l0.42,0.13l0.19,0.57l-0.98-0.37l-2.22-2.76L-213.6,95.12z"/>
			<path fill="#B5B5B5" stroke="#FFFFFF" stroke-width="0.5726" d="M166.46,259.53l-0.44,1.32l0.07,0.46l-0.4,0.49l-0.84,0.37
				l-0.02,0.46l-0.5,0.57l0.15,0.37l-0.22,0.42l-1.04,0.23l0.17-0.72l-0.17-0.5l-0.65-0.68l-1.34,0.81l-0.2-0.27l-0.39,0.02
				l-0.67-0.99l0,0l1.59-0.56l0.52-0.58L166.46,259.53z M207.61,249.37l-3.64,2.97l-3.39,1.08l-1.97,0.29l-1.12,0.51l-1.71,2.03
				l-4.72,0.57l-3.2,1.98l-2.37,0.3l-5.791,1.81l-0.98,0.55l-1.85,1.64l-1.21,0.18l-0.61,0.38l0,0l-0.42-1.93l-0.77-0.56l-0.09-1.22
				l0.27-0.47l0.87-0.02l0.58,0.47l0.59-0.44l0.59-0.07l0.22-2.07l-1.02-0.86l-0.56,0.81l-1.5,0.59l-0.59-0.51l0.33-0.97l-0.17-0.07
				l0,0l2.45-2.88l0.32-1.14l0.56-0.67l4.13-0.91l4.18-0.6l2.03-0.71l1.36,0.09l1.97,0.54l2.3-0.37l1.88-1.03l0.781-0.05l2.169,0.89
				l3.09-0.9l3.5-1.45l2.82,0.13l1.46,0.92l-0.02,0.54L207.61,249.37z"/>
			<path fill="#B5B5B5" stroke="#FFFFFF" stroke-width="0.5726" d="M65.96,30.17l-1.21-0.19l-0.24-0.26l1.47-0.49l-0.01-0.37
				l-0.52-0.06l-0.06-0.2l0.97-0.36l0.72,0.8l-0.01,0.39L65.96,30.17z M56.51,30.81l1.14-0.18l2.55-3.33l-0.33-1.58l0.52-0.65
				l1.09-0.31l0.49,0.16l1.07,0.65l0.18,2.57l0.6,1.86l2.68,1.46l2.67,0.36l1.41,1.85l-0.16,1.89l-1.16,0.19l-0.57,0.74l0.98,1.5
				l0.24,1.55l-0.63,0.61l-1.83,0.64l4.07-0.28l1.5-0.54l1.68-1.58l0.63,0.6l1.21,2.26l-0.61,0.78l-2.18-0.04l-0.33,0.23l0.76,1.63
				l2.48-0.07l0.38-1.41l0.29-0.24l1.18-0.35l1.69,0.3l3.07,1.72l1.72,1.41l3.63,2.35l1.99,0.37l1.73-0.57l0.74,0.58l0.57,0.85
				l0.02,1.76L93,51.63l-2.21,1.15l-2.26,0.61l-3.04,1.23l-2.23-0.23l-1.52-0.58l-0.51-0.46l-0.86-0.07l-2.11,1.07l-0.94,1.07
				l-0.1,0.5l2.27,2.51l2.01,1.27l0.33-0.28l0.66,0.29l-0.23,0.79l0.63,0.55l0.5-0.36l0.74,0.06l0.78,1.21l-1.36,1.25l-2.08,0.04
				l-3.21,0.6l-2.7,1.21l-1.33-0.32l-0.64-0.6l-2.52-1.27l-0.92,0.3l0.37,1.26l-0.83,1.4l0,0l-0.21-0.15l-0.74,0.22l-1.03-0.29
				l-0.57-0.85l-2.6-1.81l-1.04,0.48l-1.99-0.07l-0.27,0.33l-1.67-0.65l-1.01,0.51l-0.63-0.14l-0.69-0.62l-0.44,0.57l-1.34,0.14
				l-0.23-0.51l-0.68-0.48l-0.439,0.56l0.06,0.52l-0.71-0.07l-0.18,0.45l-0.48,0.12l-0.179-0.53l-1.01-0.82l-1.27,0.3l-1.46-0.34
				l-0.21,0.63l-0.71,0.28l-0.48,0.75l-0.89-1.01l-1.28-0.25l-0.3-0.48l-0.44,0.16l0.06,1.23l-0.59,0.5l-0.1,0.48l-0.34,0.09
				l-0.47-0.33l-0.64,0.76l-0.31-0.02l-0.28,1.35l0,0v0.02l0,0l-0.76-0.42l-0.28-0.62l0.33-0.93l-0.15-4.8l-1.15-6.4l-1.45-0.21l0,0
				l1.13-0.69l0.17-1.61l-0.23-0.34l-1.09-0.27l-1.88-1.28l0.25-1.33l2.1-1.69l3.41-0.04l0.8-0.2l0.43-0.44l0.63-1.18l0.29-1.48
				l1.87-1.36v-0.86l0.49-1.13L47,37.41l3.03-3.42l2.43-1.89l0.06-0.74l1.88-2.27l0.09-2.11l0.77-1.76l0.69-0.81l1.12,1.11
				l0.39,2.11l-0.08,0.67l-0.95,1.65L56.51,30.81z M63.26,20.14l-0.03,1.17l-0.34,0.87l-1.46,0.15l-1.17,0.92L60,22.29l0.18-1.64
				l1.05-0.73l1.12-0.27l0.68,0.13L63.26,20.14z M57.38,21.56l-0.23,0.55l0.25-1.31l1.72-1.15l0.32,1.25L57.38,21.56z"/>
		</g>
	</g>
</g>
</svg>
