<?xml version="1.0" encoding="utf-8"?>
<!-- Generator: Adobe Illustrator 16.0.0, SVG Export Plug-In . SVG Version: 6.00 Build 0)  -->
<!DOCTYPE svg PUBLIC "-//W3C//DTD SVG 1.1//EN" "http://www.w3.org/Graphics/SVG/1.1/DTD/svg11.dtd">
<svg version="1.1" id="Layer_1" xmlns="http://www.w3.org/2000/svg" xmlns:xlink="http://www.w3.org/1999/xlink" x="0px" y="0px"
	 width="234.555px" height="56.53px" viewBox="0 0 234.555 56.53" enable-background="new 0 0 234.555 56.53" xml:space="preserve">
<g>
	<g>
		<g>
			<g>
				<path fill="#2D3032" d="M9.245,31.109c-2.664,0.024-3.043-2.936-2.31-4.307c0.508-0.814,3.348-5.521,3.348-5.521l2.368,1.384
					l-1.104-1.978l-1.116-1.978l-2.305-0.02l-2.307-0.015l2.248,1.312l-3.693,5.782c-0.369,0.725-0.575,1.544-0.575,2.413
					c0,2.955,2.421,5.36,5.438,5.417l12.701,0.072l0.007-2.522C21.944,31.148,12.305,31.113,9.245,31.109z"/>
			</g>
			<g>
				<path fill="#83C441" d="M23.487,35.239L9.221,35.15c-3.854-0.069-6.984-3.197-6.984-6.969c0-1.097,0.253-2.146,0.753-3.121
					l0.073-0.133l2.823-4.417L0,17.079l11.345,0.081l5.457,9.731l-5.973-3.495c-0.865,1.413-2.151,3.544-2.542,4.17
					c-0.158,0.346-0.196,1.097,0.093,1.584c0.116,0.2,0.308,0.398,0.827,0.398c3.099,0,12.743,0.042,12.743,0.042l1.551,0.007
					L23.487,35.239z"/>
			</g>
		</g>
		<g>
			<g>
				<path fill="#2D3032" d="M20.199,5.318c1.407-2.203,4.165-0.931,4.953,0.411c0.426,0.851,3.341,5.462,3.341,5.462l-2.46,1.213
					l4.862,0.108l2.245-3.605l-2.336,1.148l-3.382-5.882c-0.428-0.701-1.027-1.307-1.776-1.775
					c-2.551-1.583-5.926-0.866-7.585,1.589l-0.04-0.022l-6.09,9.303l2.173,1.354C14.103,14.621,18.551,7.847,20.199,5.318z"/>
			</g>
			<g>
				<path fill="#83C441" d="M14.564,16.751L9.757,13.74L17.73,1.972C19.039,0.717,20.809,0,22.687,0c1.332,0,2.645,0.374,3.78,1.079
					c0.937,0.582,1.707,1.348,2.277,2.269l2.682,4.672l5.901-2.908l-5.579,8.976l-12.104-0.277l6.617-3.255
					c-0.889-1.422-2.113-3.393-2.457-4.066c-0.229-0.334-0.905-0.809-1.527-0.809c-0.226,0-0.5,0.057-0.76,0.475
					c-1.662,2.537-6.113,9.323-6.113,9.323L14.564,16.751z"/>
			</g>
		</g>
		<g>
			<g>
				<path fill="#2D3032" d="M34.216,25.424c2.656-0.03,3.048,2.935,2.305,4.303c-0.503,0.814-3.348,5.522-3.348,5.522l-2.36-1.384
					l1.106,1.978l1.105,1.969l2.306,0.02l2.306,0.017l-2.242-1.304l3.692-5.784c0.367-0.728,0.576-1.544,0.576-2.413
					c0-2.956-2.427-5.356-5.437-5.41l-12.702-0.076l-0.007,2.521C21.516,25.384,31.152,25.418,34.216,25.424z"/>
			</g>
			<g>
				<path fill="#83C441" d="M43.458,39.458l-11.349-0.089l-5.45-9.723l5.978,3.489c0.853-1.415,2.142-3.546,2.527-4.17
					c0.168-0.347,0.208-1.104-0.083-1.584c-0.119-0.2-0.31-0.406-0.831-0.406c-3.102,0-12.741-0.034-12.741-0.034l-1.557-0.008
					l0.02-5.64l14.261,0.084c3.855,0.074,6.982,3.2,6.982,6.972c0,1.096-0.249,2.143-0.744,3.116l-0.083,0.136l-2.817,4.417
					L43.458,39.458z"/>
			</g>
		</g>
		<g>
			<g>
				<path fill="#2D3032" d="M23.262,51.204c-1.4,2.208-4.167,0.937-4.96-0.406c-0.426-0.854-3.338-5.461-3.338-5.461l2.464-1.208
					l-4.869-0.12l-2.238,3.613l2.335-1.153l3.379,5.885c0.438,0.7,1.027,1.31,1.78,1.773c2.552,1.585,5.927,0.87,7.586-1.587
					l0.035,0.027l6.096-9.311l-2.178-1.351C29.353,41.907,24.905,48.674,23.262,51.204z"/>
			</g>
			<g>
				<path fill="#83C441" d="M20.773,56.53c-1.337,0-2.644-0.374-3.78-1.089c-0.939-0.571-1.701-1.341-2.275-2.267l-2.684-4.662
					l-5.906,2.9l5.577-8.973l12.11,0.275l-6.611,3.257c0.89,1.423,2.104,3.383,2.458,4.063c0.217,0.344,0.901,0.808,1.515,0.808
					c0.231,0,0.501-0.056,0.772-0.474c1.657-2.538,6.101-9.325,6.101-9.325l0.841-1.27l4.807,3.009l-7.969,11.768
					C24.418,55.808,22.647,56.53,20.773,56.53z"/>
			</g>
		</g>
	</g>
	<g>
		<g>
			<path fill="#2D3032" d="M55.513,33.294c-4.27,0-6.403-1.344-6.403-4.034v-0.842c0-2.683,2.133-4.029,6.403-4.029h2.168
				c0.352,0,0.573,0.099,0.683,0.292c0.109,0.193,0.164,0.488,0.164,0.879c0,0.391-0.054,0.678-0.164,0.876
				c-0.11,0.2-0.332,0.296-0.683,0.296h-2.23c-1.268,0-2.17,0.159-2.693,0.481c-0.524,0.329-0.789,0.732-0.789,1.205v0.842
				c0,0.462,0.265,0.861,0.789,1.193c0.523,0.336,1.425,0.5,2.693,0.5h5.115c4.271,0,6.408,1.344,6.408,4.027v1.085
				c0,2.683-2.137,4.027-6.408,4.027h-10.61c-0.345,0-0.579-0.099-0.687-0.29c-0.104-0.198-0.16-0.49-0.16-0.881
				c0-0.391,0.056-0.681,0.16-0.878c0.108-0.193,0.342-0.292,0.687-0.292h10.677c1.271,0,2.161-0.161,2.691-0.487
				c0.525-0.319,0.79-0.725,0.79-1.198v-1.085c0-0.461-0.264-0.857-0.79-1.191c-0.531-0.334-1.42-0.495-2.691-0.495H55.513
				L55.513,33.294z"/>
			<path fill="#2D3032" d="M60.566,40.607h-10.61c-0.687,0-1.001-0.305-1.134-0.557c-0.163-0.275-0.229-0.646-0.229-1.128
				c0-0.482,0.066-0.851,0.229-1.122c0.133-0.265,0.447-0.566,1.134-0.566h10.677c1.448,0,2.116-0.228,2.421-0.406
				c0.486-0.31,0.543-0.579,0.543-0.763v-1.085c0-0.094,0-0.409-0.548-0.755c-0.305-0.188-0.971-0.418-2.417-0.418h-5.121
				c-4.592,0-6.92-1.522-6.92-4.546v-0.842c0-3.017,2.328-4.543,6.92-4.543h2.168c0.683,0,0.999,0.304,1.136,0.557
				c0.152,0.275,0.226,0.648,0.226,1.129c0,0.485-0.074,0.854-0.226,1.13c-0.138,0.252-0.453,0.557-1.136,0.557h-2.23
				c-1.452,0-2.121,0.22-2.422,0.413c-0.489,0.292-0.543,0.574-0.543,0.757v0.842c0,0.102,0,0.408,0.551,0.76
				c0.299,0.183,0.963,0.413,2.415,0.413h5.115c4.598,0,6.929,1.532,6.929,4.547v1.085C67.495,39.08,65.164,40.607,60.566,40.607z
				 M49.721,39.54c0.013,0,0.074,0.035,0.235,0.035h10.61c5.891,0,5.891-2.648,5.891-3.51v-1.085c0-0.867,0-3.505-5.891-3.505
				h-5.115c-1.383,0-2.354-0.19-2.97-0.582c-0.853-0.531-1.034-1.183-1.034-1.633v-0.842c0-0.46,0.182-1.113,1.038-1.641
				c0.616-0.384,1.588-0.564,2.966-0.564h2.23c0.187,0,0.241-0.037,0.241-0.037c0.02-0.042,0.088-0.208,0.088-0.616
				c0-0.403-0.063-0.569-0.101-0.624c0.005,0.005-0.057-0.025-0.229-0.025h-2.168c-5.885,0-5.885,2.633-5.885,3.506v0.842
				c0,0.871,0,3.512,5.885,3.512h5.121c1.378,0,2.347,0.19,2.969,0.579c0.853,0.537,1.03,1.184,1.03,1.629v1.085
				c0,0.453-0.182,1.117-1.035,1.639c-0.617,0.384-1.586,0.564-2.964,0.564H49.956c-0.186,0-0.249,0.047-0.249,0.047
				c-0.015,0.035-0.079,0.198-0.079,0.606C49.628,39.32,49.692,39.485,49.721,39.54L49.721,39.54z"/>
		</g>
		<g>
			<path fill="#2D3032" d="M76.549,40.092c-4.277,0-6.41-1.346-6.41-4.027V25.322c0-0.418,0.118-0.693,0.363-0.827
				c0.246-0.124,0.601-0.188,1.062-0.188c0.481,0,0.843,0.065,1.086,0.188c0.246,0.133,0.365,0.409,0.365,0.827v10.743
				c0,0.461,0.289,0.862,0.855,1.188c0.57,0.336,1.495,0.497,2.766,0.497h6.494c1.267,0,2.186-0.161,2.766-0.497
				c0.571-0.327,0.85-0.728,0.85-1.188V25.322c0-0.418,0.124-0.693,0.364-0.827c0.252-0.124,0.611-0.188,1.092-0.188
				c0.462,0,0.811,0.065,1.062,0.188c0.246,0.133,0.363,0.409,0.363,0.827v10.743c0,2.681-2.133,4.027-6.405,4.027H76.549
				L76.549,40.092z"/>
			<path fill="#2D3032" d="M83.221,40.607h-6.671c-4.602,0-6.926-1.527-6.926-4.542V25.322c0-0.777,0.344-1.126,0.639-1.277
				c0.33-0.171,0.752-0.265,1.302-0.265c0.571,0,1.004,0.094,1.329,0.26c0.294,0.155,0.638,0.505,0.638,1.282v10.743
				c0,0.099,0,0.399,0.6,0.743c0.49,0.28,1.338,0.426,2.506,0.426h6.494c1.172,0,2.014-0.146,2.506-0.426
				c0.594-0.344,0.594-0.644,0.594-0.743V25.322c0-0.777,0.344-1.126,0.644-1.277c0.325-0.171,0.752-0.265,1.329-0.265
				c0.55,0,0.972,0.094,1.302,0.26c0.294,0.155,0.638,0.505,0.638,1.282v10.743C90.143,39.08,87.818,40.607,83.221,40.607z
				 M71.564,24.827c-0.46,0-0.697,0.072-0.819,0.128c-0.05,0.035-0.09,0.178-0.09,0.367v10.743c0,0.862,0,3.51,5.895,3.51h6.673
				c5.889,0,5.889-2.648,5.889-3.51V25.322c0-0.188-0.04-0.332-0.093-0.367c-0.118-0.056-0.354-0.128-0.815-0.128
				c-0.493,0-0.728,0.072-0.84,0.128c-0.061,0.035-0.095,0.178-0.095,0.367v10.743c0,0.453-0.191,1.097-1.116,1.639
				c-0.653,0.384-1.642,0.564-3.021,0.564h-6.494c-1.379,0-2.368-0.19-3.021-0.564c-0.929-0.542-1.116-1.186-1.116-1.639V25.322
				c0-0.188-0.04-0.332-0.092-0.367C72.288,24.899,72.052,24.827,71.564,24.827z"/>
		</g>
		<g>
			<path fill="#2D3032" d="M93.207,25.387c0-0.666,0.34-0.998,1.008-0.998H106.5c0.978,0,1.863,0.086,2.65,0.248
				c0.792,0.168,1.455,0.408,2.001,0.706c0.556,0.305,0.978,0.67,1.272,1.106c0.295,0.435,0.444,0.915,0.444,1.447v3.143
				c0,0.535-0.149,1.017-0.444,1.45c-0.294,0.434-0.717,0.805-1.272,1.109c-0.546,0.297-1.208,0.535-2.001,0.696
				c-0.787,0.17-1.672,0.254-2.65,0.254H96.083v4.613c0,0.413-0.124,0.695-0.374,0.822c-0.241,0.125-0.605,0.19-1.076,0.19
				c-0.463,0-0.817-0.065-1.063-0.19c-0.245-0.126-0.363-0.409-0.363-0.822V25.387z M96.083,26.732v5.477h10.156
				c0.738,0,1.348-0.037,1.829-0.111c0.482-0.071,0.871-0.166,1.161-0.29c0.286-0.124,0.491-0.27,0.611-0.433
				c0.107-0.166,0.172-0.354,0.172-0.554v-2.705c0-0.19-0.065-0.371-0.172-0.542c-0.12-0.173-0.325-0.324-0.611-0.446
				c-0.29-0.118-0.678-0.217-1.161-0.292c-0.481-0.072-1.091-0.104-1.829-0.104H96.083L96.083,26.732z"/>
			<path fill="#2D3032" d="M94.633,40.691c-0.551,0-0.985-0.084-1.304-0.255c-0.296-0.15-0.649-0.497-0.649-1.274V25.387
				c0-0.95,0.582-1.512,1.535-1.512H106.5c1.008,0,1.942,0.089,2.759,0.262c0.831,0.17,1.558,0.426,2.148,0.752
				c0.619,0.344,1.102,0.767,1.446,1.265c0.348,0.522,0.535,1.111,0.535,1.742v3.143c0,0.638-0.187,1.223-0.535,1.74
				c-0.344,0.503-0.827,0.928-1.446,1.268c-0.59,0.331-1.317,0.586-2.148,0.757c-0.817,0.17-1.751,0.262-2.759,0.262h-9.902v4.096
				c0,0.777-0.354,1.124-0.64,1.274C95.634,40.607,95.202,40.691,94.633,40.691z M94.215,24.912c-0.424,0-0.497,0.141-0.497,0.475
				v13.775c0,0.186,0.033,0.329,0.092,0.361c0.12,0.06,0.354,0.134,0.822,0.134c0.51,0,0.743-0.082,0.835-0.134
				c0.064-0.032,0.093-0.175,0.093-0.361v-5.135H106.5c0.943,0,1.794-0.074,2.547-0.235c0.728-0.151,1.352-0.374,1.858-0.648
				c0.472-0.26,0.836-0.579,1.092-0.947c0.235-0.347,0.353-0.721,0.353-1.156v-3.143c0-0.431-0.118-0.805-0.353-1.156
				c-0.256-0.366-0.621-0.683-1.092-0.943c-0.506-0.274-1.13-0.497-1.858-0.646c-0.752-0.161-1.604-0.24-2.547-0.24H94.215
				L94.215,24.912z M106.239,32.725H95.561v-6.511h10.678c0.758,0,1.407,0.037,1.909,0.106c0.531,0.084,0.942,0.193,1.283,0.33
				c0.388,0.17,0.659,0.376,0.831,0.633c0.182,0.263,0.266,0.548,0.266,0.834v2.705c0,0.31-0.089,0.599-0.266,0.846
				c-0.177,0.255-0.452,0.458-0.831,0.616c-0.341,0.141-0.752,0.252-1.289,0.33C107.646,32.689,107.002,32.725,106.239,32.725z
				 M96.598,31.692h9.641c0.715,0,1.304-0.037,1.752-0.111c0.441-0.064,0.785-0.144,1.031-0.248c0.26-0.113,0.359-0.208,0.39-0.255
				c0.053-0.074,0.077-0.158,0.077-0.257v-2.705c0-0.084-0.027-0.166-0.088-0.254c-0.034-0.055-0.128-0.148-0.378-0.252
				c-0.246-0.109-0.59-0.188-1.031-0.258c-0.454-0.07-1.042-0.104-1.752-0.104h-9.641V31.692z"/>
		</g>
		<g>
			<path fill="#2D3032" d="M118.8,33.528v2.537c0,0.461,0.286,0.862,0.866,1.188c0.579,0.336,1.505,0.497,2.772,0.497h10.35
				c0.349,0,0.576,0.099,0.678,0.292c0.111,0.198,0.165,0.487,0.165,0.878c0,0.374-0.054,0.661-0.165,0.861
				c-0.102,0.201-0.329,0.309-0.678,0.309h-10.442c-4.273,0-6.402-1.346-6.402-4.027v-7.647c0-2.683,2.129-4.029,6.402-4.029h3.23
				c0.339,0,0.554,0.099,0.662,0.292c0.109,0.193,0.163,0.488,0.163,0.879c0,0.391-0.054,0.678-0.163,0.876
				c-0.108,0.2-0.323,0.296-0.662,0.296h-3.138c-1.268,0-2.193,0.159-2.772,0.481c-0.58,0.329-0.866,0.732-0.866,1.205v2.774h14.054
				c0.343,0,0.58,0.096,0.678,0.292c0.114,0.192,0.16,0.482,0.16,0.873c0,0.392-0.046,0.69-0.16,0.881
				c-0.098,0.193-0.335,0.29-0.678,0.29H118.8L118.8,33.528z"/>
			<path fill="#2D3032" d="M132.789,40.607h-10.442c-4.588,0-6.928-1.527-6.928-4.542v-7.647c0-3.017,2.339-4.543,6.928-4.543h3.23
				c0.672,0,0.968,0.304,1.116,0.557c0.155,0.275,0.225,0.648,0.225,1.129c0,0.485-0.069,0.854-0.225,1.13
				c-0.148,0.252-0.454,0.557-1.116,0.557h-3.138c-1.176,0-2.02,0.146-2.523,0.421c-0.6,0.339-0.6,0.644-0.6,0.75v2.26h13.538
				c0.678,0,0.996,0.297,1.139,0.552c0.146,0.277,0.221,0.646,0.221,1.128c0,0.488-0.074,0.854-0.221,1.131
				c-0.143,0.252-0.461,0.557-1.139,0.557h-13.538v2.019c0,0.099,0,0.396,0.605,0.743c0.496,0.28,1.342,0.426,2.518,0.426h10.35
				c0.678,0,0.997,0.302,1.136,0.557c0.151,0.277,0.229,0.644,0.229,1.131c0,0.463-0.078,0.827-0.22,1.106
				C133.786,40.29,133.476,40.607,132.789,40.607z M122.346,24.912c-5.891,0-5.891,2.633-5.891,3.506v7.647
				c0,0.862,0,3.51,5.891,3.51h10.442c0.18,0,0.234-0.035,0.234-0.035c0.029-0.061,0.09-0.234,0.09-0.618
				c0-0.401-0.07-0.572-0.09-0.626c-0.005,0.01-0.064-0.027-0.234-0.027h-10.35c-1.372,0-2.369-0.181-3.033-0.564
				c-0.935-0.534-1.12-1.186-1.12-1.639v-3.054h14.568c0.185,0,0.243-0.037,0.243-0.037c0.016-0.037,0.079-0.208,0.079-0.616
				c0-0.405-0.063-0.563-0.088-0.621c0,0.002-0.065-0.028-0.234-0.028h-14.568v-3.292c0-0.465,0.19-1.128,1.13-1.653
				c0.654-0.372,1.651-0.552,3.023-0.552h3.138c0.17,0,0.216-0.037,0.216-0.037c0.024-0.042,0.093-0.208,0.093-0.616
				c0-0.408-0.068-0.569-0.099-0.624c0,0-0.044-0.03-0.21-0.025H122.346L122.346,24.912z"/>
		</g>
		<g>
			<path fill="#2D3032" d="M137.079,25.387c0-0.666,0.335-0.998,1.013-0.998h12.18c0.976,0,1.857,0.086,2.649,0.248
				c0.792,0.168,1.45,0.408,2.006,0.706c0.546,0.305,0.969,0.67,1.269,1.106c0.289,0.435,0.443,0.915,0.443,1.447v2.735
				c0,0.534-0.154,1.017-0.443,1.447c-0.3,0.433-0.723,0.805-1.269,1.099c-0.556,0.312-1.214,0.544-2.006,0.71
				c-0.792,0.164-1.674,0.252-2.649,0.252h-0.869c-0.636,0-1.192,0-1.653,0c-0.471,0-0.892-0.007-1.255-0.017
				c-0.354,0-0.679-0.017-0.968-0.03c-0.29-0.015-0.575-0.027-0.846-0.046v0.046c0.232,0.084,0.481,0.176,0.747,0.27
				c0.267,0.094,0.601,0.213,0.99,0.359c0.385,0.144,0.86,0.327,1.415,0.54c0.55,0.215,1.241,0.495,2.064,0.822l5.222,2.104
				c0.46,0.183,0.692,0.509,0.692,0.975c0,0.386-0.123,0.661-0.381,0.792c-0.253,0.146-0.615,0.22-1.085,0.22
				c-0.103,0-0.235,0-0.382-0.008c-0.154-0.009-0.31-0.02-0.469-0.044c-0.158-0.022-0.314-0.047-0.465-0.087
				c-0.149-0.034-0.282-0.088-0.4-0.161l-12.666-5.477v4.764c0,0.413-0.124,0.695-0.372,0.822c-0.244,0.125-0.609,0.19-1.086,0.19
				c-0.467,0-0.811-0.065-1.058-0.19c-0.249-0.126-0.369-0.409-0.369-0.822V25.387L137.079,25.387z M139.963,26.732v5.104h10.042
				c0.737,0,1.341-0.035,1.832-0.104c0.483-0.072,0.87-0.171,1.157-0.29c0.289-0.121,0.49-0.267,0.604-0.433
				c0.118-0.171,0.179-0.352,0.179-0.557v-2.336c0-0.19-0.061-0.371-0.179-0.542c-0.114-0.173-0.315-0.324-0.604-0.446
				c-0.287-0.118-0.674-0.217-1.157-0.292c-0.491-0.072-1.095-0.104-1.832-0.104H139.963L139.963,26.732z"/>
			<path fill="#2D3032" d="M154.345,40.691c-0.112,0-0.246,0-0.407-0.01c-0.173-0.007-0.339-0.022-0.513-0.044
				c-0.183-0.03-0.347-0.055-0.515-0.099c-0.213-0.047-0.392-0.119-0.554-0.228l-11.885-5.126v3.978
				c0,0.777-0.347,1.124-0.633,1.274c-0.332,0.173-0.764,0.255-1.334,0.255c-0.555,0-0.978-0.082-1.303-0.255
				c-0.294-0.15-0.641-0.497-0.641-1.274V25.387c0-0.95,0.575-1.512,1.529-1.512h12.18c1.006,0,1.938,0.089,2.759,0.262
				c0.836,0.17,1.547,0.426,2.147,0.752c0.613,0.344,1.102,0.767,1.445,1.265c0.354,0.522,0.53,1.111,0.53,1.742v2.735
				c0,0.633-0.177,1.225-0.53,1.742c-0.344,0.498-0.826,0.926-1.445,1.267c-0.598,0.322-1.312,0.582-2.147,0.758
				c-0.817,0.171-1.753,0.254-2.759,0.254h-2.522c-0.02,0-0.034,0-0.05,0c0.104,0.045,0.213,0.085,0.322,0.127
				c0.56,0.218,1.251,0.497,2.068,0.824l5.225,2.101c0.655,0.268,1.012,0.782,1.012,1.458c0,0.732-0.341,1.083-0.638,1.247
				C155.348,40.602,154.915,40.691,154.345,40.691z M139.433,33.605l13.403,5.789c0.134,0.084,0.224,0.119,0.314,0.139
				c0.133,0.032,0.27,0.064,0.413,0.077c0.148,0.02,0.285,0.027,0.426,0.04c0.135,0.008,0.253,0.008,0.355,0.008
				c0.47,0,0.714-0.082,0.832-0.144c0.03-0.022,0.117-0.062,0.117-0.351c0-0.213-0.064-0.374-0.368-0.495l-5.223-2.102
				c-0.822-0.329-1.516-0.604-2.055-0.816c-0.554-0.218-1.021-0.401-1.415-0.542c-0.389-0.142-0.714-0.265-0.985-0.352
				c-0.262-0.099-0.521-0.188-0.75-0.28l-0.334-0.124v-0.904l0.545-0.015l0.841,0.042c0.282,0.015,0.599,0.022,0.96,0.03
				c0.356,0.007,0.771,0.007,1.238,0.007h2.522c0.938,0,1.793-0.077,2.541-0.235c0.731-0.151,1.361-0.372,1.858-0.646
				c0.477-0.27,0.842-0.577,1.096-0.943c0.238-0.351,0.35-0.732,0.35-1.158v-2.735c0-0.431-0.111-0.805-0.354-1.156
				c-0.25-0.366-0.615-0.683-1.092-0.943c-0.497-0.274-1.127-0.497-1.858-0.646c-0.748-0.161-1.609-0.24-2.541-0.24h-12.18
				c-0.425,0-0.495,0.141-0.495,0.475v13.775c0,0.186,0.034,0.329,0.095,0.361c0.115,0.06,0.348,0.134,0.814,0.134
				c0.517,0,0.746-0.082,0.842-0.134c0.054-0.032,0.086-0.175,0.086-0.361V33.605L139.433,33.605z M150.005,32.358h-10.572v-6.145
				h10.572c0.768,0,1.401,0.037,1.906,0.106c0.536,0.084,0.95,0.193,1.285,0.33c0.383,0.17,0.656,0.376,0.838,0.633
				c0.173,0.263,0.262,0.548,0.262,0.834v2.336c0,0.31-0.089,0.596-0.27,0.852c-0.174,0.25-0.447,0.453-0.83,0.613
				c-0.335,0.144-0.749,0.248-1.285,0.327C151.407,32.316,150.773,32.358,150.005,32.358z M140.472,31.321h9.533
				c0.708,0,1.302-0.033,1.755-0.101c0.438-0.065,0.783-0.146,1.031-0.253c0.257-0.113,0.354-0.208,0.389-0.259
				c0.05-0.077,0.075-0.159,0.075-0.255v-2.336c0-0.084-0.033-0.166-0.084-0.254c-0.035-0.055-0.13-0.148-0.38-0.252
				c-0.248-0.109-0.594-0.188-1.031-0.258c-0.453-0.07-1.047-0.104-1.755-0.104h-9.533V31.321z"/>
		</g>
		<g>
			<path fill="#2D3032" d="M183.331,25.189c0.243-0.272,0.498-0.468,0.778-0.582c0.276-0.119,0.596-0.17,0.939-0.17
				c1.061,0,1.6,0.488,1.6,1.47v13.255c0,0.413-0.12,0.695-0.367,0.822c-0.245,0.125-0.604,0.19-1.078,0.19
				c-0.485,0-0.842-0.065-1.084-0.19c-0.25-0.126-0.361-0.409-0.361-0.822V28.896l-8.649,10.459
				c-0.245,0.282-0.498,0.502-0.758,0.628c-0.266,0.125-0.582,0.19-0.953,0.19c-0.418,0-0.762-0.065-1.047-0.19
				c-0.281-0.126-0.541-0.347-0.779-0.628l-8.657-10.459v10.266c0,0.413-0.128,0.695-0.369,0.822
				c-0.249,0.125-0.607,0.19-1.081,0.19c-0.46,0-0.816-0.065-1.062-0.19c-0.244-0.126-0.374-0.409-0.374-0.822V25.906
				c0-0.982,0.529-1.47,1.589-1.47c0.708,0,1.271,0.252,1.708,0.752l9.964,12.018L183.331,25.189z"/>
			<path fill="#2D3032" d="M185.203,40.691c-0.567,0-1.006-0.084-1.329-0.255c-0.29-0.15-0.646-0.497-0.646-1.274v-8.825
				l-7.722,9.35c-0.292,0.342-0.604,0.599-0.926,0.762c-0.688,0.342-1.78,0.317-2.446,0.007c-0.359-0.17-0.678-0.428-0.963-0.78
				l-7.734-9.342v8.828c0,0.777-0.354,1.124-0.65,1.274c-0.322,0.173-0.758,0.255-1.322,0.255c-0.56,0-0.978-0.082-1.306-0.255
				c-0.293-0.15-0.64-0.497-0.64-1.274V25.906c0-1.262,0.763-1.99,2.099-1.99c0.866,0,1.569,0.314,2.099,0.94l9.573,11.542
				l9.651-11.537c0.287-0.339,0.609-0.589,0.969-0.738c0.348-0.134,0.727-0.208,1.14-0.208c1.342,0,2.119,0.728,2.119,1.99v13.255
				c0,0.777-0.347,1.124-0.644,1.274C186.202,40.607,185.772,40.691,185.203,40.691z M184.267,27.458v11.704
				c0,0.186,0.034,0.329,0.094,0.361c0.118,0.06,0.352,0.134,0.842,0.134c0.505,0,0.742-0.082,0.833-0.134
				c0.061-0.032,0.095-0.175,0.095-0.361V25.906c0-0.574-0.182-0.958-1.082-0.958c-0.276,0-0.529,0.047-0.747,0.138
				c-0.203,0.082-0.393,0.226-0.563,0.436l-10.455,12.502l-10.358-12.502c-0.33-0.381-0.752-0.574-1.308-0.574
				c-0.89,0-1.063,0.383-1.063,0.958v13.255c0,0.186,0.029,0.329,0.088,0.361c0.12,0.06,0.357,0.134,0.822,0.134
				c0.508,0,0.743-0.082,0.842-0.134c0.06-0.032,0.094-0.175,0.094-0.361V27.458l9.583,11.564c0.176,0.226,0.371,0.399,0.579,0.49
				c0.391,0.181,1.151,0.208,1.56,0.01c0.189-0.101,0.385-0.274,0.589-0.509L184.267,27.458z"/>
		</g>
		<g>
			<path fill="#2D3032" d="M200.289,24.325c0.424,0,0.772,0.064,1.037,0.198c0.26,0.129,0.487,0.316,0.653,0.559l9.447,13.468
				c0.1,0.163,0.149,0.327,0.149,0.5c0,0.158-0.05,0.305-0.136,0.45c-0.094,0.148-0.223,0.274-0.37,0.374
				c-0.157,0.102-0.317,0.184-0.511,0.235c-0.188,0.065-0.374,0.094-0.56,0.094c-0.207,0-0.386-0.037-0.549-0.104
				c-0.156-0.065-0.297-0.181-0.406-0.332l-2.556-3.72h-12.04l-2.406,3.72c-0.096,0.15-0.232,0.267-0.401,0.332
				c-0.162,0.066-0.347,0.104-0.523,0.104c-0.179,0-0.362-0.029-0.548-0.094c-0.188-0.051-0.354-0.133-0.507-0.248
				c-0.149-0.104-0.277-0.232-0.369-0.371c-0.092-0.136-0.142-0.287-0.142-0.46c0-0.146,0.055-0.307,0.151-0.48l8.886-13.468
				c0.149-0.243,0.368-0.43,0.642-0.559C199.506,24.389,199.86,24.325,200.289,24.325z M195.943,33.707h8.943l-4.598-6.741
				L195.943,33.707z"/>
			<path fill="#2D3032" d="M209.997,40.715c-0.27,0-0.521-0.042-0.739-0.133c-0.248-0.099-0.465-0.272-0.633-0.507l-2.411-3.522
				H194.73l-2.247,3.497c-0.164,0.252-0.387,0.434-0.647,0.532c-0.431,0.163-0.916,0.183-1.418,0.027
				c-0.241-0.071-0.458-0.18-0.659-0.324c-0.2-0.146-0.368-0.31-0.498-0.502c-0.148-0.218-0.225-0.478-0.225-0.752
				c0-0.232,0.072-0.488,0.221-0.735l8.895-13.498c0.213-0.317,0.502-0.571,0.86-0.745c0.684-0.322,1.852-0.329,2.535,0
				c0.352,0.173,0.638,0.416,0.856,0.725l9.444,13.483c0.173,0.26,0.247,0.517,0.247,0.79c0,0.255-0.074,0.504-0.223,0.732
				c-0.135,0.21-0.303,0.383-0.52,0.52c-0.188,0.133-0.404,0.235-0.635,0.307C210.476,40.681,210.235,40.715,209.997,40.715z
				 M194.164,35.516h12.595l2.715,3.963c0.047,0.061,0.111,0.118,0.18,0.143c0.188,0.082,0.474,0.082,0.753,0
				c0.139-0.047,0.263-0.109,0.377-0.17c0.091-0.067,0.165-0.146,0.223-0.228c0.044-0.084,0.054-0.136,0.054-0.173
				c0-0.074-0.025-0.136-0.074-0.218l-9.421-13.456c-0.127-0.17-0.275-0.297-0.464-0.386c-0.402-0.198-1.244-0.193-1.644,0
				c-0.189,0.089-0.325,0.212-0.436,0.374l-8.884,13.478c-0.06,0.099-0.065,0.163-0.065,0.188c0,0.064,0.016,0.119,0.05,0.173
				c0.055,0.079,0.139,0.166,0.248,0.248c0.099,0.071,0.213,0.124,0.352,0.17c0.282,0.082,0.522,0.082,0.733,0
				c0.063-0.025,0.108-0.067,0.146-0.136L194.164,35.516z M205.87,34.222h-10.882l5.292-8.189L205.87,34.222z M196.893,33.185h7.009
				l-3.594-5.289L196.893,33.185z"/>
		</g>
		<g>
			<path fill="#2D3032" d="M232.541,40.174c-0.202,0-0.369,0-0.498-0.017c-0.131-0.018-0.254-0.057-0.363-0.107
				c-0.118-0.066-0.244-0.136-0.374-0.228c-0.126-0.094-0.289-0.221-0.482-0.381l-13.457-11.35v11.07
				c0,0.413-0.129,0.695-0.377,0.822c-0.242,0.125-0.604,0.19-1.077,0.19c-0.465,0-0.813-0.065-1.065-0.19
				c-0.25-0.126-0.364-0.409-0.364-0.822V25.322c0-0.406,0.114-0.676,0.34-0.812c0.236-0.139,0.573-0.204,1.019-0.204
				c0.48,0,0.854,0.057,1.134,0.181c0.27,0.124,0.576,0.329,0.906,0.616l13.273,11.303V25.322c0-0.418,0.123-0.693,0.367-0.827
				c0.248-0.124,0.606-0.188,1.064-0.188c0.47,0,0.837,0.065,1.081,0.188c0.245,0.133,0.369,0.409,0.369,0.827v13.839
				c0,0.413-0.124,0.695-0.369,0.822C233.422,40.109,233.05,40.174,232.541,40.174z"/>
			<path fill="#2D3032" d="M232.541,40.691c-0.228,0-0.413-0.01-0.552-0.017c-0.191-0.028-0.374-0.072-0.547-0.164
				c-0.137-0.062-0.276-0.155-0.44-0.272c-0.139-0.099-0.3-0.228-0.508-0.398L217.88,29.208v9.954c0,0.777-0.355,1.124-0.644,1.274
				c-0.325,0.171-0.763,0.255-1.325,0.255c-0.561,0-0.981-0.084-1.312-0.255c-0.288-0.15-0.64-0.497-0.64-1.274V25.322
				c0-0.745,0.327-1.096,0.602-1.26c0.319-0.188,0.732-0.282,1.279-0.282c0.564,0,0.994,0.083,1.341,0.237
				c0.325,0.141,0.664,0.372,1.037,0.698l12.419,10.575v-9.969c0-0.777,0.344-1.126,0.64-1.282c0.334-0.166,0.756-0.26,1.309-0.26
				c0.564,0,1,0.094,1.326,0.26c0.297,0.155,0.644,0.505,0.644,1.282v13.839c0,0.777-0.347,1.124-0.644,1.274
				C233.585,40.607,233.134,40.691,232.541,40.691z M216.843,26.98l14.322,12.061c0.174,0.153,0.321,0.271,0.445,0.364
				c0.108,0.074,0.198,0.135,0.297,0.18c0.063,0.025,0.125,0.044,0.188,0.052c0.12,0.012,0.268,0.02,0.445,0.02
				c0.55,0,0.792-0.082,0.884-0.134c0.062-0.032,0.1-0.175,0.1-0.361V25.322c0-0.188-0.037-0.332-0.1-0.367
				c-0.111-0.056-0.358-0.128-0.839-0.128c-0.473,0-0.702,0.072-0.816,0.128c-0.064,0.035-0.1,0.178-0.1,0.367v12.213L217.541,25.5
				c-0.295-0.26-0.558-0.441-0.781-0.539c-0.142-0.062-0.418-0.134-0.919-0.134c-0.458,0-0.663,0.079-0.746,0.122
				c-0.061,0.042-0.1,0.185-0.1,0.374v13.839c0,0.186,0.039,0.329,0.1,0.361c0.111,0.062,0.345,0.134,0.817,0.134
				c0.508,0,0.743-0.082,0.835-0.134c0.057-0.032,0.097-0.175,0.097-0.361V26.98L216.843,26.98z"/>
		</g>
	</g>
</g>
</svg>
