<?xml version="1.0" encoding="utf-8"?>
<!-- Generator: Adobe Illustrator 16.0.0, SVG Export Plug-In . SVG Version: 6.00 Build 0)  -->
<!DOCTYPE svg PUBLIC "-//W3C//DTD SVG 1.1//EN" "http://www.w3.org/Graphics/SVG/1.1/DTD/svg11.dtd">
<svg version="1.1" id="Layer_1" xmlns="http://www.w3.org/2000/svg" xmlns:xlink="http://www.w3.org/1999/xlink" x="0px" y="0px"
	 width="3741.059px" height="901.637px" viewBox="0 0 3741.059 901.637" enable-background="new 0 0 3741.059 901.637"
	 xml:space="preserve">
<g>
	<g>
		<g>
			<path fill="#2D3032" d="M147.458,496.163c-42.5,0.389-48.541-46.815-36.855-68.652c8.116-13.018,53.399-88.097,53.399-88.097
				l37.757,22.074l-17.605-31.525l-17.798-31.521l-36.778-0.316l-36.775-0.27l35.836,20.934L69.75,411.004
				c-5.881,11.567-9.176,24.621-9.176,38.462c0,47.163,38.618,85.511,86.727,86.413l202.581,1.135L350,496.826
				C350,496.826,196.269,496.239,147.458,496.163z"/>
		</g>
		<g>
			<path fill="#83C441" d="M374.622,562.029l-227.557-1.415c-61.477-1.094-111.386-50.966-111.386-111.147
				c0-17.486,4.038-34.19,11.997-49.753l1.177-2.12l45.01-70.492L0,272.411l180.939,1.292l87.04,155.22l-95.272-55.752
				c-13.801,22.546-34.305,56.535-40.542,66.535c-2.509,5.486-3.136,17.487,1.493,25.249c1.84,3.214,4.899,6.351,13.172,6.351
				c49.439,0,203.248,0.664,203.248,0.664l24.736,0.119L374.622,562.029z"/>
		</g>
	</g>
	<g>
		<g>
			<path fill="#2D3032" d="M322.16,84.842c22.428-35.129,66.417-14.858,79,6.548c6.786,13.568,53.284,87.119,53.284,87.119
				l-39.245,19.331l77.548,1.763l35.798-57.515L491.3,160.394l-53.948-93.821c-6.823-11.173-16.388-20.857-28.307-28.307
				c-40.697-25.29-94.527-13.838-120.993,25.33l-0.627-0.353l-97.154,148.356l34.657,21.603
				C224.928,233.202,295.892,125.187,322.16,84.842z"/>
		</g>
		<g>
			<path fill="#83C441" d="M232.3,267.196l-76.687-48.029L282.8,31.484C303.658,11.451,331.886,0,361.841,0
				c21.246,0,42.185,5.962,60.294,17.212c14.941,9.294,27.212,21.525,36.311,36.227l42.771,74.494l94.137-46.384l-89,143.187
				l-193.054-4.433l105.543-51.911c-14.19-22.698-33.714-54.104-39.205-64.847c-3.645-5.334-14.428-12.898-24.35-12.898
				c-3.604,0-7.958,0.902-12.111,7.564c-26.503,40.463-97.507,148.712-97.507,148.712L232.3,267.196z"/>
		</g>
	</g>
	<g>
		<g>
			<path fill="#2D3032" d="M545.72,405.515c42.378-0.472,48.614,46.814,36.773,68.651c-8.036,12.976-53.399,88.062-53.399,88.062
				l-37.638-22.075l17.642,31.562l17.643,31.401l36.777,0.317l36.773,0.27l-35.752-20.815l58.885-92.255
				c5.843-11.604,9.176-24.621,9.176-38.458c0-47.13-38.696-85.432-86.724-86.297l-202.584-1.214l-0.114,40.188
				C343.178,404.851,496.867,405.437,545.72,405.515z"/>
		</g>
		<g>
			<path fill="#83C441" d="M693.133,629.344l-181.017-1.41l-86.92-155.101l95.35,55.675c13.604-22.582,34.154-56.577,40.308-66.535
				c2.665-5.49,3.292-17.564-1.333-25.249c-1.886-3.214-4.94-6.47-13.251-6.47c-49.479,0-203.21-0.549-203.21-0.549l-24.818-0.114
				l0.312-89.943l227.478,1.333c61.477,1.177,111.349,51.009,111.349,111.193c0,17.482-3.96,34.186-11.84,49.712l-1.337,2.156
				l-44.929,70.451L693.133,629.344z"/>
		</g>
	</g>
	<g>
		<g>
			<path fill="#2D3032" d="M371.013,816.716c-22.349,35.166-66.458,14.896-79.119-6.51c-6.781-13.604-53.243-87.077-53.243-87.077
				l39.286-19.291l-77.63-1.883L164.59,759.59l37.247-18.427l53.907,93.9c6.982,11.172,16.388,20.858,28.385,28.229
				c40.697,25.327,94.53,13.917,120.992-25.289l0.549,0.433l97.233-148.476l-34.736-21.563
				C468.167,668.396,397.241,776.372,371.013,816.716z"/>
		</g>
		<g>
			<path fill="#83C441" d="M331.336,901.637c-21.328,0-42.189-5.963-60.299-17.369c-14.978-9.134-27.13-21.405-36.265-36.149
				l-42.817-74.374l-94.213,46.265l88.961-143.104l193.128,4.391l-105.425,51.947c14.194,22.702,33.559,53.948,39.209,64.809
				c3.448,5.491,14.35,12.858,24.149,12.858c3.686,0,7.999-0.86,12.312-7.527c26.425-40.5,97.311-148.709,97.311-148.709
				l13.407-20.271l76.69,48.028L410.377,870.116C389.443,890.11,361.21,901.637,331.336,901.637z"/>
		</g>
	</g>
</g>
<g>
	<g>
		<path fill="#FFFFFF" d="M885.403,531.018c-68.101,0-102.131-21.411-102.131-64.338v-13.412c0-42.813,34.03-64.26,102.131-64.26
			h34.581c5.604,0,9.135,1.57,10.902,4.665c1.722,3.059,2.587,7.767,2.587,13.998c0,6.232-0.865,10.82-2.587,13.998
			c-1.767,3.173-5.297,4.703-10.902,4.703h-35.56c-20.229,0-34.621,2.551-42.968,7.688c-8.352,5.252-12.586,11.681-12.586,19.209
			v13.412c0,7.408,4.235,13.759,12.586,19.017c8.348,5.369,22.739,7.994,42.968,7.994h81.591
			c68.102,0,102.172,21.447,102.172,64.223v17.326c0,42.775-34.071,64.225-102.172,64.225H796.757c-5.486,0-9.213-1.571-10.939-4.63
			c-1.644-3.173-2.545-7.802-2.545-14.034c0-6.236,0.901-10.861,2.545-14.038c1.727-3.06,5.453-4.626,10.939-4.626h170.316
			c20.27,0,34.46-2.587,42.93-7.801c8.39-5.097,12.584-11.567,12.584-19.096v-17.326c0-7.336-4.195-13.646-12.584-18.979
			c-8.47-5.33-22.66-7.917-42.93-7.917H885.403z"/>
		<path fill="#FFFFFF" d="M966.015,647.696H796.757c-10.939,0-15.958-4.863-18.074-8.901c-2.586-4.392-3.649-10.312-3.649-17.995
			c0-7.685,1.062-13.604,3.649-17.917c2.116-4.197,7.134-9.021,18.074-9.021h170.316c23.091,0,33.756-3.604,38.618-6.471
			c7.761-4.937,8.663-9.249,8.663-12.152v-17.326c0-1.492,0-6.512-8.741-12.038c-4.863-2.98-15.49-6.666-38.54-6.666h-81.67
			c-73.238,0-110.369-24.305-110.369-72.529v-13.412c0-48.106,37.13-72.493,110.369-72.493h34.581
			c10.902,0,15.92,4.862,18.114,8.901c2.432,4.39,3.608,10.348,3.608,17.995c0,7.765-1.176,13.604-3.608,18.036
			c-2.193,4.039-7.212,8.901-18.114,8.901h-35.56c-23.172,0-33.833,3.526-38.655,6.584c-7.806,4.666-8.667,9.176-8.667,12.075
			v13.412c0,1.644,0,6.544,8.782,12.11c4.785,2.944,15.368,6.59,38.54,6.59h81.591c73.317,0,110.484,24.465,110.484,72.533v17.326
			C1076.499,623.309,1039.332,647.696,966.015,647.696z M793.034,630.64c0.197,0,1.176,0.551,3.723,0.551h169.258
			c93.937,0,93.937-42.228,93.937-55.951v-17.326c0-13.8,0-55.871-93.937-55.871h-81.591c-22.074,0-37.56-3.059-47.364-9.291
			c-13.603-8.507-16.501-18.896-16.501-26.071v-13.412c0-7.331,2.898-17.757,16.543-26.188c9.839-6.117,25.329-8.979,47.322-8.979
			h35.56c2.981,0,3.842-0.591,3.842-0.591c0.316-0.665,1.41-3.329,1.41-9.84c0-6.429-1.017-9.094-1.608-9.959
			c0.083,0.118-0.901-0.39-3.644-0.39h-34.581c-93.861,0-93.861,42.026-93.861,55.945v13.412c0,13.915,0,56.022,93.861,56.022h81.67
			c21.992,0,37.441,3.059,47.359,9.254c13.608,8.548,16.429,18.86,16.429,25.957v17.326c0,7.216-2.902,17.803-16.506,26.151
			c-9.84,6.117-25.289,8.979-47.281,8.979H796.757c-2.94,0-3.961,0.746-3.961,0.746c-0.234,0.549-1.254,3.173-1.254,9.685
			C791.542,627.15,792.562,629.778,793.034,630.64L793.034,630.64z"/>
	</g>
	<g>
		<path fill="#FFFFFF" d="M1220.935,639.464c-68.221,0-102.25-21.449-102.25-64.225V403.908c0-6.704,1.882-11.054,5.801-13.21
			c3.924-1.964,9.566-2.98,16.938-2.98c7.684,0,13.448,1.016,17.332,2.98c3.919,2.157,5.801,6.507,5.801,13.21v171.332
			c0,7.333,4.625,13.724,13.646,18.938c9.094,5.371,23.837,7.958,44.107,7.958h103.584c20.189,0,34.854-2.587,44.108-7.958
			c9.095-5.215,13.563-11.605,13.563-18.938V403.908c0-6.704,1.959-11.054,5.806-13.21c3.998-1.964,9.721-2.98,17.404-2.98
			c7.372,0,12.94,1.016,16.938,2.98c3.919,2.157,5.806,6.507,5.806,13.21v171.332c0,42.775-34.034,64.225-102.173,64.225H1220.935z"
			/>
		<path fill="#FFFFFF" d="M1327.343,647.696h-106.409c-73.394,0-110.483-24.388-110.483-72.457V403.908
			c0-12.428,5.486-17.958,10.193-20.385c5.256-2.747,11.997-4.236,20.779-4.236c9.098,0,15.999,1.489,21.172,4.154
			c4.707,2.509,10.193,8.04,10.193,20.468v171.332c0,1.571,0,6.352,9.57,11.843c7.798,4.468,21.328,6.78,39.95,6.78h103.584
			c18.701,0,32.112-2.312,39.95-6.78c9.488-5.491,9.488-10.271,9.488-11.843V403.908c0-12.428,5.489-17.958,10.274-20.385
			c5.174-2.747,11.997-4.236,21.168-4.236c8.783,0,15.527,1.489,20.779,4.154c4.707,2.509,10.196,8.04,10.196,20.468v171.332
			C1437.749,623.309,1400.661,647.696,1327.343,647.696z M1141.423,395.986c-7.372,0-11.135,1.14-13.095,2.042
			c-0.783,0.549-1.411,2.861-1.411,5.879v171.332c0,13.724,0,55.951,94.018,55.951h106.409c93.936,0,93.936-42.228,93.936-55.951
			V403.908c0-3.018-0.626-5.33-1.488-5.879c-1.882-0.902-5.646-2.042-13.018-2.042c-7.839,0-11.603,1.14-13.407,2.042
			c-0.943,0.549-1.488,2.861-1.488,5.879v171.332c0,7.216-3.06,17.487-17.803,26.151c-10.431,6.117-26.192,8.979-48.184,8.979
			h-103.584c-21.996,0-37.756-3.017-48.187-8.979c-14.817-8.664-17.798-18.936-17.798-26.151V403.908
			c0-3.018-0.627-5.33-1.452-5.879C1152.952,397.126,1149.189,395.986,1141.423,395.986z"/>
	</g>
	<g>
		<path fill="#FFFFFF" d="M1486.597,404.928c0-10.627,5.413-15.92,16.077-15.92h195.953c15.605,0,29.722,1.373,42.268,3.96
			c12.624,2.666,23.209,6.511,31.914,11.214c8.86,4.863,15.601,10.705,20.308,17.684c4.707,6.937,7.056,14.583,7.056,23.091v50.106
			c0,8.549-2.349,16.232-7.056,23.132c-4.707,6.938-11.447,12.822-20.308,17.685c-8.704,4.74-19.29,8.545-31.914,11.094
			c-12.546,2.744-26.663,4.077-42.268,4.077h-166.158v73.55c0,6.59-1.96,11.099-5.958,13.137c-3.841,1.997-9.643,3.017-17.17,3.017
			c-7.373,0-13.018-1.02-16.938-3.017c-3.919-2.038-5.806-6.547-5.806-13.137V404.928z M1532.469,426.372v87.355h162.005
			c11.763,0,21.484-0.591,29.167-1.767c7.688-1.135,13.879-2.665,18.508-4.625c4.548-1.959,7.839-4.272,9.722-6.9
			c1.727-2.665,2.747-5.645,2.747-8.823v-43.165c0-3.018-1.021-5.921-2.747-8.663c-1.882-2.748-5.174-5.138-9.722-7.061
			c-4.629-1.918-10.819-3.485-18.508-4.665c-7.683-1.136-17.404-1.686-29.167-1.686H1532.469z"/>
		<path fill="#FFFFFF" d="M1509.341,649.028c-8.783,0-15.683-1.332-20.784-4.079c-4.703-2.427-10.348-7.917-10.348-20.349V404.928
			c0-15.174,9.254-24.153,24.465-24.153h195.953c16.076,0,30.976,1.451,43.993,4.194c13.251,2.747,24.854,6.785,34.265,12.001
			c9.881,5.485,17.564,12.23,23.054,20.188c5.568,8.315,8.545,17.72,8.545,27.798v50.106c0,10.192-2.977,19.524-8.545,27.758
			c-5.489,8-13.173,14.82-23.054,20.193c-9.411,5.293-21.014,9.367-34.265,12.114c-13.018,2.702-27.917,4.154-43.993,4.154h-157.921
			v65.317c0,12.432-5.646,17.922-10.197,20.349C1525.334,647.696,1518.434,649.028,1509.341,649.028z M1502.674,397.323
			c-6.745,0-7.917,2.271-7.917,7.605v219.672c0,2.98,0.545,5.293,1.489,5.764c1.881,0.98,5.646,2.158,13.096,2.158
			c8.155,0,11.836-1.332,13.329-2.158c1.017-0.471,1.488-2.783,1.488-5.764v-81.86h174.469c15.055,0,28.622-1.219,40.619-3.766
			c11.608-2.431,21.562-5.96,29.639-10.353c7.528-4.152,13.334-9.249,17.41-15.134c3.763-5.489,5.645-11.446,5.645-18.425v-50.106
			c0-6.9-1.881-12.858-5.645-18.466c-4.076-5.801-9.882-10.862-17.41-15.014c-8.077-4.392-18.031-7.922-29.639-10.312
			c-11.997-2.587-25.564-3.842-40.619-3.842H1502.674z M1694.474,521.96h-170.316V418.102h170.316
			c12.074,0,22.423,0.586,30.422,1.685c8.471,1.374,15.056,3.096,20.469,5.253c6.194,2.746,10.507,5.998,13.25,10.114
			c2.903,4.195,4.236,8.705,4.236,13.292v43.165c0,4.903-1.411,9.528-4.236,13.489c-2.826,4.076-7.212,7.294-13.25,9.841
			c-5.413,2.234-11.998,3.997-20.546,5.214C1716.897,521.411,1706.626,521.96,1694.474,521.96z M1540.706,505.49h153.768
			c11.369,0,20.779-0.587,27.913-1.764c7.057-1.017,12.546-2.312,16.47-3.96c4.152-1.804,5.724-3.329,6.19-4.076
			c0.866-1.175,1.256-2.508,1.256-4.079v-43.165c0-1.333-0.468-2.628-1.411-4.038c-0.549-0.862-2.038-2.391-6.035-4.039
			c-3.924-1.726-9.413-3.017-16.47-4.116c-7.212-1.099-16.621-1.644-27.913-1.644h-153.768V505.49z"/>
	</g>
	<g>
		<path fill="#FFFFFF" d="M1894.818,534.78v40.459c0,7.333,4.546,13.724,13.801,18.938c9.254,5.371,23.997,7.958,44.228,7.958
			h165.059c5.567,0,9.177,1.566,10.82,4.626c1.803,3.177,2.664,7.802,2.664,14.038c0,5.957-0.861,10.545-2.664,13.725
			c-1.644,3.213-5.253,4.939-10.82,4.939h-166.552c-68.139,0-102.091-21.449-102.091-64.225V453.268
			c0-42.813,33.952-64.26,102.091-64.26h51.521c5.408,0,8.856,1.57,10.583,4.665c1.727,3.059,2.587,7.767,2.587,13.998
			c0,6.232-0.86,10.82-2.587,13.998c-1.727,3.173-5.175,4.703-10.583,4.703h-50.027c-20.23,0-34.974,2.551-44.228,7.688
			c-9.255,5.252-13.801,11.681-13.801,19.209v44.264h224.186c5.409,0,9.172,1.529,10.82,4.629c1.804,3.095,2.51,7.725,2.51,13.957
			c0,6.23-0.706,10.979-2.51,14.033c-1.648,3.101-5.411,4.629-10.82,4.629H1894.818z"/>
		<path fill="#FFFFFF" d="M2117.905,647.696h-166.552c-73.157,0-110.482-24.388-110.482-72.457V453.268
			c0-48.106,37.325-72.493,110.482-72.493h51.521c10.742,0,15.445,4.862,17.799,8.901c2.51,4.39,3.604,10.348,3.604,17.995
			c0,7.765-1.094,13.604-3.604,18.036c-2.354,4.039-7.216,8.901-17.799,8.901h-50.027c-18.743,0-32.231,2.312-40.229,6.704
			c-9.567,5.408-9.567,10.271-9.567,11.956V489.3h215.954c10.82,0,15.839,4.742,18.114,8.823c2.35,4.391,3.526,10.271,3.526,17.995
			c0,7.761-1.177,13.604-3.526,18.036c-2.275,4.037-7.294,8.86-18.114,8.86H1903.05v32.225c0,1.571,0,6.314,9.648,11.843
			c7.917,4.468,21.405,6.78,40.148,6.78h165.059c10.82,0,15.916,4.823,18.114,8.902c2.428,4.431,3.681,10.233,3.681,18.035
			c0,7.371-1.253,13.174-3.524,17.643C2133.821,642.637,2128.882,647.696,2117.905,647.696z M1951.354,397.323
			c-93.94,0-93.94,42.026-93.94,55.945v121.971c0,13.724,0,55.951,93.94,55.951h166.552c2.904,0,3.764-0.551,3.764-0.551
			c0.468-0.979,1.41-3.723,1.41-9.84c0-6.392-1.098-9.136-1.41-10.001c-0.077,0.162-1.021-0.43-3.764-0.43h-165.059
			c-21.877,0-37.795-2.861-48.382-8.979c-14.899-8.545-17.879-18.936-17.879-26.151v-48.691h232.418
			c2.899,0,3.842-0.633,3.842-0.633c0.233-0.584,1.256-3.291,1.256-9.797c0-6.47-1.022-9.021-1.415-9.92
			c0,0.037-1.018-0.43-3.683-0.43h-232.418v-52.5c0-7.41,3.059-17.995,18.036-26.347c10.43-5.957,26.348-8.819,48.225-8.819h50.027
			c2.743,0,3.449-0.591,3.449-0.591c0.389-0.665,1.487-3.329,1.487-9.84c0-6.506-1.099-9.094-1.565-9.959c0,0-0.705-0.43-3.371-0.39
			H1951.354z"/>
	</g>
	<g>
		<path fill="#FFFFFF" d="M2186.359,404.928c0-10.627,5.33-15.92,16.153-15.92h194.229c15.605,0,29.643,1.373,42.268,3.96
			c12.624,2.666,23.128,6.511,31.993,11.214c8.698,4.863,15.444,10.705,20.229,17.684c4.626,6.937,7.058,14.583,7.058,23.091v43.6
			c0,8.545-2.432,16.229-7.058,23.092c-4.784,6.9-11.53,12.821-20.229,17.523c-8.865,4.982-19.369,8.705-31.993,11.332
			c-12.625,2.624-26.662,4.039-42.268,4.039h-13.879c-10.115,0-18.975,0-26.347,0c-7.527,0-14.189-0.118-19.995-0.275
			c-5.646-0.041-10.82-0.273-15.446-0.47c-4.63-0.275-9.176-0.473-13.489-0.783v0.783c3.686,1.331,7.688,2.783,11.92,4.271
			c4.234,1.529,9.569,3.412,15.761,5.729c6.194,2.312,13.723,5.21,22.583,8.622c8.783,3.41,19.84,7.88,32.936,13.095l83.275,33.562
			c7.367,2.899,11.054,8.114,11.054,15.523c0,6.196-1.96,10.549-6.035,12.665c-4.079,2.312-9.882,3.488-17.331,3.488
			c-1.648,0-3.764,0-6.117-0.118c-2.432-0.156-4.941-0.312-7.45-0.705c-2.509-0.354-5.017-0.741-7.445-1.37
			c-2.354-0.549-4.473-1.413-6.354-2.55l-202.072-87.393v75.982c0,6.59-1.958,11.099-5.877,13.137
			c-3.926,1.997-9.727,3.017-17.332,3.017c-7.449,0-12.939-1.02-16.859-3.017c-3.997-2.038-5.88-6.547-5.88-13.137V404.928z
			 M2232.308,426.372v81.435h160.202c11.761,0,21.406-0.59,29.247-1.685c7.687-1.14,13.877-2.747,18.428-4.629
			c4.625-1.924,7.841-4.272,9.644-6.901c1.882-2.743,2.821-5.604,2.821-8.896v-37.25c0-3.018-0.939-5.921-2.821-8.663
			c-1.803-2.748-5.019-5.138-9.644-7.061c-4.551-1.918-10.741-3.485-18.428-4.665c-7.841-1.136-17.486-1.686-29.247-1.686H2232.308z
			"/>
		<path fill="#FFFFFF" d="M2461.747,649.028c-1.804,0-3.92,0-6.506-0.159c-2.746-0.116-5.413-0.391-8.159-0.743
			c-2.898-0.43-5.563-0.863-8.233-1.569c-3.37-0.742-6.189-1.883-8.86-3.604l-189.524-81.79v63.438
			c0,12.432-5.486,17.922-10.114,20.349c-5.253,2.747-12.152,4.079-21.251,4.079c-8.859,0-15.605-1.332-20.778-4.079
			c-4.707-2.427-10.194-7.917-10.194-20.349V404.928c0-15.174,9.095-24.153,24.387-24.153h194.229
			c16.076,0,30.896,1.451,43.993,4.194c13.329,2.747,24.699,6.785,34.265,12.001c9.802,5.485,17.563,12.23,23.054,20.188
			c5.646,8.315,8.468,17.72,8.468,27.798v43.6c0,10.115-2.821,19.525-8.468,27.795c-5.49,7.921-13.173,14.744-23.054,20.192
			c-9.565,5.137-20.936,9.291-34.265,12.074c-13.018,2.748-27.917,4.08-43.993,4.08h-40.226c-0.312,0-0.55,0-0.782,0
			c1.647,0.704,3.369,1.332,5.096,2.001c8.938,3.485,19.996,7.958,33.014,13.17l83.35,33.521
			c10.431,4.235,16.153,12.468,16.153,23.21c0,11.685-5.485,17.331-10.192,19.917
			C2477.741,647.576,2470.845,649.028,2461.747,649.028z M2223.921,535.994l213.755,92.333c2.116,1.334,3.526,1.92,5.02,2.194
			c2.114,0.55,4.313,1.02,6.583,1.253c2.354,0.315,4.547,0.433,6.823,0.628c2.116,0.12,3.997,0.12,5.646,0.12
			c7.449,0,11.369-1.332,13.252-2.275c0.472-0.354,1.882-1.018,1.882-5.646c0-3.371-1.017-5.957-5.879-7.88l-83.276-33.522
			c-13.096-5.251-24.154-9.643-32.775-13.014c-8.861-3.488-16.311-6.392-22.584-8.626c-6.195-2.275-11.37-4.236-15.682-5.646
			c-4.236-1.57-8.315-2.98-11.997-4.432l-5.336-1.96v-14.429l8.706-0.233l13.406,0.665c4.469,0.238,9.57,0.356,15.293,0.471
			c5.726,0.12,12.31,0.12,19.759,0.12h40.226c14.978,0,28.621-1.219,40.542-3.729c11.685-2.427,21.721-5.92,29.639-10.308
			c7.604-4.312,13.411-9.216,17.487-15.055c3.763-5.608,5.566-11.685,5.566-18.467v-43.6c0-6.9-1.804-12.858-5.646-18.466
			c-3.997-5.801-9.804-10.862-17.408-15.014c-7.918-4.392-17.954-7.922-29.639-10.312c-11.921-2.587-25.644-3.842-40.542-3.842
			h-194.229c-6.82,0-7.92,2.271-7.92,7.605v219.672c0,2.98,0.549,5.293,1.492,5.764c1.878,0.98,5.564,2.158,13.014,2.158
			c8.232,0,11.919-1.332,13.406-2.158c0.867-0.471,1.416-2.783,1.416-5.764V535.994z M2392.51,516.118h-168.589v-98.016h168.589
			c12.23,0,22.347,0.586,30.423,1.685c8.549,1.374,15.133,3.096,20.545,5.253c6.039,2.746,10.426,5.998,13.33,10.114
			c2.746,4.195,4.156,8.705,4.156,13.292v37.25c0,4.936-1.41,9.523-4.312,13.604c-2.748,3.996-7.135,7.211-13.174,9.798
			c-5.412,2.275-11.996,3.921-20.545,5.215C2414.856,515.449,2404.74,516.118,2392.51,516.118z M2240.464,499.569h152.046
			c11.29,0,20.777-0.508,27.99-1.606c6.979-1.059,12.547-2.35,16.472-4.034c4.075-1.806,5.641-3.333,6.191-4.157
			c0.785-1.215,1.175-2.511,1.175-4.075v-37.25c0-1.333-0.471-2.628-1.332-4.038c-0.549-0.862-2.038-2.391-6.034-4.039
			c-3.925-1.726-9.492-3.017-16.472-4.116c-7.213-1.099-16.7-1.644-27.99-1.644h-152.046V499.569z"/>
	</g>
	<g>
		<path fill="#FFFFFF" d="M2924.072,401.751c3.841-4.351,7.923-7.451,12.39-9.254c4.393-1.919,9.487-2.743,14.974-2.743
			c16.941,0,25.487,7.762,25.487,23.444v211.403c0,6.59-1.884,11.099-5.803,13.137c-3.92,1.997-9.647,3.017-17.248,3.017
			c-7.688,0-13.413-1.02-17.254-3.017c-4.001-2.038-5.801-6.547-5.801-13.137V460.873L2792.888,627.7
			c-3.92,4.507-7.923,7.999-12.079,10.037c-4.231,1.997-9.251,3.017-15.212,3.017c-6.662,0-12.152-1.02-16.699-3.017
			c-4.473-2.038-8.626-5.53-12.39-10.037l-138.086-166.827v163.728c0,6.59-2.042,11.099-5.88,13.137
			c-4.001,1.997-9.725,3.017-17.252,3.017c-7.372,0-13.018-1.02-16.938-3.017c-3.92-2.038-5.957-6.547-5.957-13.137V413.198
			c0-15.682,8.466-23.444,25.326-23.444c11.291,0,20.307,4.039,27.208,11.998l158.946,191.681L2924.072,401.751z"/>
		<path fill="#FFFFFF" d="M2953.872,649.028c-9.021,0-16-1.332-21.174-4.079c-4.628-2.427-10.273-7.917-10.273-20.349V483.85
			l-123.188,149.144c-4.628,5.449-9.646,9.529-14.739,12.153c-10.979,5.448-28.466,5.059-39.053,0.117
			c-5.725-2.741-10.818-6.821-15.366-12.426l-123.346-149.029v140.792c0,12.432-5.645,17.922-10.354,20.349
			c-5.174,2.747-12.074,4.079-21.09,4.079c-8.939,0-15.605-1.332-20.857-4.079c-4.629-2.427-10.196-7.917-10.196-20.349V413.198
			c0-20.11,12.156-31.718,33.485-31.718c13.8,0,25.014,5.019,33.48,14.978l152.674,184.116L2917.8,396.535
			c4.625-5.408,9.726-9.368,15.448-11.758c5.567-2.12,11.603-3.297,18.188-3.297c21.41,0,33.802,11.608,33.802,31.718v211.403
			c0,12.432-5.568,17.922-10.275,20.349C2969.865,647.696,2962.965,649.028,2953.872,649.028z M2938.972,437.938v186.662
			c0,2.98,0.551,5.293,1.487,5.764c1.883,0.98,5.647,2.158,13.413,2.158c8.072,0,11.835-1.332,13.328-2.158
			c0.938-0.471,1.487-2.783,1.487-5.764V413.198c0-9.134-2.901-15.251-17.252-15.251c-4.387,0-8.466,0.746-11.913,2.197
			c-3.215,1.296-6.274,3.608-9.021,6.941L2763.794,606.49l-165.217-199.405c-5.25-6.081-11.996-9.139-20.855-9.139
			c-14.195,0-16.938,6.117-16.938,15.251v211.403c0,2.98,0.467,5.293,1.411,5.764c1.88,0.98,5.646,2.158,13.096,2.158
			c8.076,0,11.841-1.332,13.406-2.158c0.943-0.471,1.493-2.783,1.493-5.764V437.938l152.823,184.469
			c2.826,3.606,5.964,6.351,9.256,7.84c6.273,2.861,18.348,3.296,24.857,0.117c3.059-1.606,6.192-4.351,9.41-8.113L2938.972,437.938
			z"/>
	</g>
	<g>
		<path fill="#FFFFFF" d="M3194.519,387.991c6.745,0,12.313,1.017,16.549,3.136c4.154,2.079,7.76,5.056,10.427,8.938l150.63,214.812
			c1.648,2.589,2.434,5.217,2.434,7.96c0,2.55-0.785,4.862-2.194,7.213c-1.493,2.352-3.531,4.353-5.884,5.96
			c-2.509,1.606-5.096,2.903-8.155,3.724c-2.977,1.02-5.957,1.492-8.938,1.492c-3.291,0-6.117-0.591-8.704-1.649
			c-2.51-1.017-4.784-2.86-6.507-5.292l-40.775-59.32h-192.033l-38.344,59.32c-1.57,2.432-3.762,4.275-6.433,5.292
			c-2.588,1.059-5.489,1.649-8.39,1.649c-2.824,0-5.723-0.473-8.703-1.492c-2.982-0.82-5.647-2.117-8.077-3.921
			c-2.354-1.686-4.392-3.724-5.88-5.92c-1.492-2.193-2.276-4.625-2.276-7.371c0-2.313,0.865-4.9,2.431-7.645l141.694-214.812
			c2.433-3.882,5.881-6.859,10.271-8.938C3182.05,389.008,3187.697,387.991,3194.519,387.991z M3125.204,537.642h142.633
			l-73.318-107.543L3125.204,537.642z"/>
		<path fill="#FFFFFF" d="M3349.386,649.418c-4.313,0-8.311-0.665-11.84-2.155c-3.922-1.567-7.373-4.31-10.116-8.073l-38.421-56.185
			h-183.174l-35.836,55.79c-2.589,4.038-6.115,6.9-10.351,8.468c-6.823,2.626-14.585,2.942-22.583,0.434
			c-3.842-1.14-7.294-2.862-10.508-5.174c-3.216-2.317-5.881-4.905-7.919-7.998c-2.353-3.453-3.606-7.607-3.606-12.002
			c0-3.725,1.177-7.762,3.529-11.724l141.85-215.28c3.37-5.06,7.998-9.098,13.723-11.882c10.898-5.133,29.562-5.252,40.46,0
			c5.567,2.784,10.192,6.626,13.645,11.566l150.632,215.051c2.742,4.154,3.919,8.233,3.919,12.584c0,4.079-1.177,8.075-3.53,11.687
			c-2.115,3.368-4.859,6.111-8.311,8.309c-2.98,2.116-6.429,3.724-10.115,4.863C3356.991,648.869,3353.149,649.418,3349.386,649.418
			z M3096.815,566.499h200.893l43.289,63.162c0.784,0.979,1.804,1.88,2.897,2.312c2.981,1.294,7.529,1.294,11.999,0
			c2.196-0.783,4.156-1.727,5.961-2.744c1.487-1.059,2.665-2.312,3.604-3.607c0.71-1.334,0.865-2.197,0.865-2.784
			c0-1.177-0.393-2.157-1.176-3.49L3214.83,404.769c-1.963-2.743-4.395-4.744-7.372-6.191c-6.428-3.141-19.84-3.059-26.19,0
			c-3.06,1.447-5.256,3.411-6.979,5.998l-141.693,214.929c-0.938,1.607-1.021,2.628-1.021,3.019c0,1.02,0.239,1.923,0.79,2.746
			c0.859,1.296,2.193,2.665,3.918,3.961c1.647,1.135,3.449,1.961,5.646,2.744c4.47,1.294,8.311,1.294,11.682,0
			c1.021-0.433,1.726-1.061,2.354-2.195L3096.815,566.499z M3283.52,545.835h-173.532l84.376-130.636L3283.52,545.835z
			 M3140.337,529.291h111.815l-57.321-84.334L3140.337,529.291z"/>
	</g>
	<g>
		<path fill="#FFFFFF" d="M3708.91,640.754c-3.214,0-5.88,0-7.921-0.274c-2.115-0.274-4.076-0.902-5.803-1.685
			c-1.881-1.058-3.918-2.193-5.956-3.646c-2.042-1.491-4.63-3.488-7.684-6.076l-214.698-181.017v176.544
			c0,6.59-2.039,11.099-5.959,13.137c-3.846,1.997-9.646,3.017-17.175,3.017c-7.448,0-13.017-1.02-17.017-3.017
			c-3.996-2.038-5.799-6.547-5.799-13.137V403.908c0-6.507,1.803-10.784,5.411-12.977c3.765-2.198,9.172-3.214,16.229-3.214
			c7.688,0,13.645,0.902,18.114,2.861c4.312,1.997,9.176,5.252,14.428,9.84L3686.8,580.688V403.908
			c0-6.704,1.958-11.054,5.879-13.21c3.923-1.964,9.646-2.98,16.938-2.98c7.527,0,13.333,1.016,17.254,2.98
			c3.917,2.157,5.878,6.507,5.878,13.21v220.693c0,6.59-1.961,11.099-5.878,13.137
			C3722.949,639.734,3717.065,640.754,3708.91,640.754z"/>
		<path fill="#FFFFFF" d="M3708.91,649.028c-3.607,0-6.585-0.159-8.782-0.275c-3.058-0.47-5.961-1.177-8.704-2.626
			c-2.193-0.98-4.47-2.469-7.056-4.352c-2.198-1.57-4.785-3.608-8.078-6.352l-201.209-169.569v158.746
			c0,12.432-5.646,17.922-10.271,20.349c-5.173,2.747-12.151,4.079-21.095,4.079c-8.937,0-15.683-1.332-20.933-4.079
			c-4.631-2.427-10.195-7.917-10.195-20.349V403.908c0-11.919,5.176-17.487,9.567-20.115c5.095-3.017,11.684-4.506,20.385-4.506
			c9.02,0,15.92,1.333,21.41,3.802c5.175,2.238,10.586,5.92,16.544,11.135l198.072,168.667V403.908
			c0-12.428,5.49-17.958,10.192-20.468c5.336-2.665,12.075-4.154,20.858-4.154c9.02,0,15.998,1.489,21.171,4.154
			c4.708,2.509,10.271,8.04,10.271,20.468v220.693c0,12.432-5.563,17.922-10.271,20.349
			C3725.614,647.696,3718.397,649.028,3708.91,649.028z M3458.538,430.332l228.416,192.35c2.825,2.468,5.175,4.351,7.14,5.802
			c1.72,1.178,3.13,2.156,4.701,2.861c1.021,0.43,2.038,0.745,3.06,0.862c1.882,0.195,4.234,0.315,7.056,0.315
			c8.782,0,12.625-1.332,14.112-2.158c0.943-0.471,1.571-2.783,1.571-5.764V403.908c0-3.018-0.628-5.33-1.571-5.879
			c-1.8-0.902-5.723-2.042-13.406-2.042c-7.529,0-11.215,1.14-13.015,2.042c-1.021,0.549-1.569,2.861-1.569,5.879v194.778
			l-225.359-191.957c-4.707-4.153-8.863-7.015-12.469-8.585c-2.274-1.017-6.666-2.157-14.665-2.157
			c-7.29,0-10.585,1.296-11.915,1.96c-0.942,0.631-1.57,2.943-1.57,5.961v220.693c0,2.98,0.628,5.293,1.57,5.764
			c1.801,0.98,5.563,2.158,13.091,2.158c8.078,0,11.843-1.332,13.329-2.158c0.866-0.471,1.494-2.783,1.494-5.764V430.332z"/>
	</g>
</g>
</svg>
